<?xml version="1.0" encoding="UTF-8" standalone="no"?>
<svg
   xmlns:dc="http://purl.org/dc/elements/1.1/"
   xmlns:cc="http://creativecommons.org/ns#"
   xmlns:rdf="http://www.w3.org/1999/02/22-rdf-syntax-ns#"
   xmlns:svg="http://www.w3.org/2000/svg"
   xmlns="http://www.w3.org/2000/svg"
   xmlns:sodipodi="http://sodipodi.sourceforge.net/DTD/sodipodi-0.dtd"
   xmlns:inkscape="http://www.inkscape.org/namespaces/inkscape"
   version="1.1"
   viewBox="0.00 0.00 1024.00 1024.00"
   id="svg246"
   sodipodi:docname="certificate.svg"
   inkscape:version="1.0.1 (3bc2e813f5, 2020-09-07)"
   inkscape:export-filename="C:\Users\keega\OneDrive\Cannlytics\assets\images\ai\midjourney-icons\certificate.png"
   inkscape:export-xdpi="96"
   inkscape:export-ydpi="96">
  <metadata
     id="metadata252">
    <rdf:RDF>
      <cc:Work
         rdf:about="">
        <dc:format>image/svg+xml</dc:format>
        <dc:type
           rdf:resource="http://purl.org/dc/dcmitype/StillImage" />
      </cc:Work>
    </rdf:RDF>
  </metadata>
  <defs
     id="defs250" />
  <sodipodi:namedview
     pagecolor="#ffffff"
     bordercolor="#666666"
     borderopacity="1"
     objecttolerance="10"
     gridtolerance="10"
     guidetolerance="10"
     inkscape:pageopacity="0"
     inkscape:pageshadow="2"
     inkscape:window-width="1920"
     inkscape:window-height="1094"
     id="namedview248"
     showgrid="false"
     inkscape:zoom="0.36767578"
     inkscape:cx="48.952641"
     inkscape:cy="430.52755"
     inkscape:window-x="-11"
     inkscape:window-y="-11"
     inkscape:window-maximized="1"
     inkscape:current-layer="svg246" />
  <g
     stroke-width="2.00"
     fill="none"
     stroke-linecap="butt"
     id="g152">
    <path
       stroke="#e9edfa"
       vector-effect="non-scaling-stroke"
       d="   M 284.85 823.10   L 284.71 823.75   Q 284.61 824.22 284.98 824.51   C 296.48 833.33 306.64 846.83 322.50 846.89   C 461.83 847.40 601.17 846.98 740.50 847.02   C 762.34 847.02 778.25 830.25 778.25 808.75   Q 778.27 540.04 778.23 271.33   C 778.23 258.52 778.43 249.87 771.94 241.10   Q 765.29 232.12 753.65 222.72   Q 753.27 222.41 752.78 222.52   Q 752.37 222.61 752.01 222.89"
       id="path2" />
    <path
       stroke="#8791a8"
       vector-effect="non-scaling-stroke"
       d="   M 752.01 222.89   Q 742.11 206.86 724.08 207.48"
       id="path4" />
    <path
       stroke="#e9edfa"
       vector-effect="non-scaling-stroke"
       d="   M 724.08 207.48   Q 722.97 206.54 724.48 206.04   Q 725.44 205.72 724.78 204.96   Q 722.61 202.44 720.13 200.88   C 713.39 196.65 712.29 183.20 704.63 182.65   A 1.09 1.05 25.5 0 0 703.85 182.91   L 700.98 185.42"
       id="path6" />
    <path
       stroke="#8791a8"
       vector-effect="non-scaling-stroke"
       d="   M 700.98 185.42   C 695.68 176.99 689.63 175.54 679.38 175.49   Q 654.69 175.35 630.00 175.33   Q 622.61 175.33 620.58 176.04   C 605.36 181.41 605.31 193.38 605.90 207.00   Q 605.92 207.49 605.43 207.49   Q 456.63 207.52 307.84 207.49   Q 305.03 207.48 299.30 207.28   C 281.01 206.63 268.01 214.87 264.77 233.32   Q 264.19 236.66 264.47 245.61   Q 264.72 253.47 264.69 257.89   Q 264.18 328.97 264.22 334.20   Q 264.49 370.64 264.50 407.07   Q 264.51 598.03 264.49 789.06   Q 264.49 799.14 265.94 803.80   Q 270.15 817.27 284.85 823.10"
       id="path8" />
    <path
       stroke="#717fa3"
       vector-effect="non-scaling-stroke"
       d="   M 700.98 185.42   C 705.77 192.11 704.72 199.45 704.76 206.90   Q 704.76 207.82 705.68 207.80   L 724.08 207.48"
       id="path10" />
    <path
       stroke="#717fa3"
       vector-effect="non-scaling-stroke"
       d="   M 752.01 222.89   Q 755.33 229.54 755.31 236.75   Q 754.68 512.35 755.20 787.95   Q 755.22 798.89 753.75 803.77   C 749.74 817.14 737.89 824.49 724.00 824.45   Q 596.53 824.05 469.06 824.35   C 409.71 824.48 350.35 824.18 291.00 824.28   Q 289.52 824.29 284.85 823.10"
       id="path12" />
    <path
       stroke="#396a61"
       vector-effect="non-scaling-stroke"
       d="   M 684.39 207.96   L 691.95 207.46   Q 692.42 207.43 692.40 206.96   C 692.06 197.90 692.64 189.32 683.74 184.11"
       id="path14" />
    <path
       stroke="#3b715b"
       vector-effect="non-scaling-stroke"
       d="   M 683.74 184.11   Q 655.77 183.92 626.49 184.00   Q 619.46 184.01 616.09 189.94   C 613.73 194.10 614.70 202.41 614.78 207.27   A 0.49 0.49 0.0 0 0 615.27 207.75   L 629.02 207.75   A 1.94 1.94 0.0 0 1 630.96 209.68   Q 631.05 239.11 631.25 268.49   Q 631.29 274.92 632.67 278.27   C 637.83 290.79 649.73 288.64 661.14 288.75   Q 668.36 288.81 671.74 287.63   Q 682.31 283.92 682.73 271.24   Q 683.23 256.16 682.98 210.27   C 682.97 209.22 683.48 208.38 684.39 207.96"
       id="path16" />
    <path
       stroke="#66b96a"
       vector-effect="non-scaling-stroke"
       d="   M 683.74 184.11   Q 685.14 196.28 684.39 207.96"
       id="path18" />
    <path
       stroke="#396a61"
       vector-effect="non-scaling-stroke"
       d="   M 272.73 410.49   C 272.57 420.64 273.04 432.09 273.02 440.93   C 272.82 555.46 273.26 670.01 272.74 784.54   Q 272.68 797.48 274.20 801.80   C 278.36 813.68 288.38 815.98 300.00 815.99   Q 404.46 816.05 509.06 815.95"
       id="path20" />
    <path
       stroke="#224865"
       vector-effect="non-scaling-stroke"
       d="   M 509.06 815.95   Q 615.44 816.04 721.96 816.00   C 732.93 816.00 741.76 812.74 745.59 801.90   Q 747.00 797.91 747.00 789.81   C 746.98 632.01 746.98 474.21 746.99 316.41   Q 746.99 310.88 746.80 301.71   Q 746.64 294.07 746.66 287.01"
       id="path22" />
    <path
       stroke="#396a61"
       vector-effect="non-scaling-stroke"
       d="   M 746.66 287.01   Q 746.84 261.99 746.72 238.11   C 746.66 225.37 737.34 216.00 724.52 216.05   Q 716.51 216.08 706.87 216.25"
       id="path24" />
    <path
       stroke="#224865"
       vector-effect="non-scaling-stroke"
       d="   M 706.87 216.25   L 692.37 216.11   Q 691.70 216.11 691.70 216.78   L 691.86 241.34   Q 691.86 241.97 692.48 242.07   C 712.61 245.34 726.77 263.03 726.74 283.25   Q 726.67 350.75 726.81 361.06   A 63.44 0.05 -89.9 0 1 726.79 421.35   C 726.68 529.24 726.72 637.18 726.74 745.09   Q 726.74 755.94 725.30 761.13   C 720.06 780.11 703.47 792.59 683.75 792.61   Q 530.59 792.76 377.43 792.45   C 366.24 792.43 352.80 793.05 340.48 792.99"
       id="path26" />
    <path
       stroke="#396a61"
       vector-effect="non-scaling-stroke"
       d="   M 340.48 792.99   C 315.00 793.89 294.74 775.48 294.74 750.00   Q 294.76 546.26 294.74 342.49"
       id="path28" />
    <path
       stroke="#3b715b"
       vector-effect="non-scaling-stroke"
       d="   M 294.74 342.49   Q 294.75 315.20 294.75 287.87   Q 294.75 277.47 295.92 272.82   C 300.87 253.19 318.33 240.80 338.26 240.78   Q 409.12 240.73 480.00 240.77"
       id="path30" />
    <path
       stroke="#396a61"
       vector-effect="non-scaling-stroke"
       d="   M 480.00 240.77   L 621.58 240.42   A 0.67 0.66 0.0 0 0 622.25 239.76   L 622.25 216.72   Q 622.25 216.08 621.61 216.08   L 480.00 215.75"
       id="path32" />
    <path
       stroke="#3b715b"
       vector-effect="non-scaling-stroke"
       d="   M 480.00 215.75   Q 389.62 215.67 299.23 215.86   Q 291.72 215.87 288.84 216.66   C 281.59 218.65 275.67 224.75 273.75 231.98   Q 272.96 234.94 273.01 243.08   Q 273.11 261.99 272.72 280.89   Q 272.72 281.01 272.77 281.10   Q 272.84 281.22 272.93 281.33   Q 273.09 281.52 273.09 281.77   L 272.73 410.49"
       id="path34" />
    <path
       stroke="#66b96a"
       vector-effect="non-scaling-stroke"
       d="   M 480.00 215.75   L 486.62 215.94   Q 487.16 215.96 487.49 216.39   Q 488.43 217.61 489.93 217.83   A 0.69 0.68 29.5 0 1 490.27 219.04   Q 487.25 221.55 483.49 222.58   Q 482.98 222.72 482.71 223.18   L 482.30 223.86   Q 482.25 223.94 482.35 223.96   L 482.78 224.01   Q 483.36 224.09 482.91 224.46   L 481.06 226.00   A 0.89 0.89 0.0 0 0 480.74 226.59   L 480.39 229.77   Q 480.27 230.81 479.47 231.47   Q 475.98 234.37 477.66 238.51   Q 477.84 238.94 478.31 238.96   Q 480.35 239.04 480.00 240.77"
       id="path36" />
    <path
       stroke="#66b96a"
       vector-effect="non-scaling-stroke"
       d="   M 294.74 342.49   C 293.21 345.41 292.77 349.10 291.89 351.71   C 284.43 373.67 280.35 389.02 273.96 414.16   Q 273.88 414.49 273.54 414.50   Q 273.40 414.50 273.25 414.50   A 0.28 0.27 3.6 0 1 272.97 414.19   Q 273.23 412.21 272.73 410.49"
       id="path38" />
    <path
       stroke="#4d9074"
       vector-effect="non-scaling-stroke"
       d="   M 706.87 216.25   L 746.66 287.01"
       id="path40" />
    <path
       stroke="#4d9074"
       vector-effect="non-scaling-stroke"
       d="   M 509.06 815.95   Q 493.40 813.99 477.72 812.58   C 442.87 809.45 404.03 802.69 352.00 795.01   Q 343.10 793.70 340.48 792.99"
       id="path42" />
    <path
       stroke="#6c7594"
       vector-effect="non-scaling-stroke"
       d="   M 587.56 784.20   Q 634.51 784.40 681.06 784.11   Q 689.78 784.05 694.28 782.64   C 705.47 779.12 714.09 769.77 717.21 758.36   Q 718.30 754.35 718.27 746.53   Q 718.10 701.77 718.51 657.01   C 718.53 654.85 718.03 651.69 718.45 648.97"
       id="path44" />
    <path
       stroke="#868c9d"
       vector-effect="non-scaling-stroke"
       d="   M 718.45 648.97   L 718.57 389.76"
       id="path46" />
    <path
       stroke="#6c7594"
       vector-effect="non-scaling-stroke"
       d="   M 718.57 389.76   Q 718.28 337.16 718.29 284.55   C 718.30 267.80 708.33 255.29 692.37 250.25   Q 691.71 250.04 691.72 250.74   C 691.95 267.64 694.82 288.15 675.13 295.75   C 667.22 298.80 657.39 297.39 647.75 297.17   Q 641.77 297.04 636.43 295.03"
       id="path48" />
    <path
       stroke="#868c9d"
       vector-effect="non-scaling-stroke"
       d="   M 636.43 295.03   Q 622.88 286.40 622.49 270.78   Q 622.22 260.17 622.23 249.77   A 0.52 0.52 0.0 0 0 621.71 249.25   Q 480.12 249.24 338.50 249.28   C 322.96 249.28 309.07 258.58 304.49 273.70   Q 303.25 277.79 303.25 285.93   Q 303.24 516.44 303.26 746.94   C 303.26 756.96 305.11 764.11 311.10 771.41   Q 321.84 784.48 339.25 784.46   Q 463.64 784.31 587.56 784.20"
       id="path50" />
    <path
       stroke="#e4dedf"
       vector-effect="non-scaling-stroke"
       d="   M 636.43 295.03   Q 648.17 310.11 662.30 322.81"
       id="path52" />
    <path
       stroke="#b1d3ac"
       vector-effect="non-scaling-stroke"
       d="   M 662.30 322.81   Q 620.18 322.92 578.81 322.75   C 574.10 322.74 574.28 328.47 578.00 328.47   Q 622.38 328.54 666.74 328.43"
       id="path54" />
    <path
       stroke="#e4dedf"
       vector-effect="non-scaling-stroke"
       d="   M 666.74 328.43   C 684.82 346.64 701.74 364.14 716.76 386.50   Q 718.42 388.97 718.57 389.76"
       id="path56" />
    <path
       stroke="#e4dedf"
       vector-effect="non-scaling-stroke"
       d="   M 718.45 648.97   Q 717.46 649.68 717.10 650.57   C 692.28 710.81 646.44 756.67 587.56 784.20"
       id="path58" />
    <path
       stroke="#469769"
       vector-effect="non-scaling-stroke"
       d="   M 662.14 322.98   L 665.33 326.16   A 0.60 0.60 0.0 0 1 665.36 326.98   L 664.78 327.65   A 0.36 0.36 0.0 0 0 665.01 328.24   L 666.74 328.43"
       id="path60" />
    <path
       stroke="#79a29c"
       vector-effect="non-scaling-stroke"
       d="   M 666.74 328.43   L 704.15 328.14   A 1.02 1.02 0.0 0 0 705.07 327.52   Q 706.14 324.99 704.25 323.20   Q 703.90 322.86 703.40 322.86   L 662.14 322.98"
       id="path62" />
    <path
       stroke="#97bca3"
       vector-effect="non-scaling-stroke"
       d="   M 662.14 322.98   Q 662.22 322.89 662.30 322.81"
       id="path64" />
    <path
       stroke="#3b715b"
       vector-effect="non-scaling-stroke"
       d="   M 670.96 265.53   A 12.14 12.14 0.0 0 0 658.82 253.39   A 12.14 12.14 0.0 0 0 646.68 265.53   A 12.14 12.14 0.0 0 0 658.82 277.67   A 12.14 12.14 0.0 0 0 670.96 265.53"
       id="path66" />
    <path
       stroke="#b1d3ac"
       vector-effect="non-scaling-stroke"
       d="   M 465.7510 278.6640   A 2.18 2.18 0.0 0 0 463.5748 276.4802   L 417.4949 276.3998   A 2.18 2.18 0.0 0 0 415.3111 278.5760   L 415.3090 279.7760   A 2.18 2.18 0.0 0 0 417.4852 281.9598   L 463.5651 282.0402   A 2.18 2.18 0.0 0 0 465.7489 279.8640   L 465.7510 278.6640"
       id="path68" />
    <path
       stroke="#868c9d"
       vector-effect="non-scaling-stroke"
       d="   M 446.54 627.70   C 405.14 627.63 371.95 653.39 346.67 684.94   Q 346.41 685.28 346.82 685.37   C 398.13 696.65 456.61 701.02 500.88 666.92   A 0.20 0.20 0.0 0 1 501.20 667.09   Q 499.60 693.64 497.78 720.26   C 496.49 739.06 523.59 740.48 526.92 725.78   Q 527.44 723.50 526.70 712.83   Q 525.14 690.18 523.35 667.51   A 0.42 0.42 0.0 0 1 524.03 667.14   C 568.06 701.46 626.75 696.28 677.47 685.18   Q 678.04 685.06 677.67 684.62   C 652.68 654.85 620.72 627.65 579.56 627.66   A 0.38 0.38 0.0 0 1 579.40 626.94   Q 654.57 589.80 684.27 511.12   Q 698.05 474.62 701.75 435.81   Q 701.80 435.35 701.36 435.52   C 645.98 457.08 590.62 487.85 558.79 540.28   A 0.25 0.24 70.4 0 1 558.35 540.07   C 564.30 523.26 567.47 506.30 568.39 488.27   C 572.10 415.93 551.20 346.86 515.03 284.45   Q 513.40 281.64 512.41 280.16   Q 512.09 279.68 511.80 280.18   C 479.60 335.11 456.80 396.99 455.51 461.25   C 454.95 489.42 456.83 513.82 465.39 539.83   A 0.14 0.14 0.0 0 1 465.13 539.95   C 435.33 488.79 377.12 456.58 323.76 435.97   Q 323.34 435.81 323.39 436.25   Q 327.60 480.82 343.02 517.97   Q 373.88 592.37 446.60 627.43   A 0.14 0.14 0.0 0 1 446.54 627.70"
       id="path70" />
    <path
       stroke="#b1d3ac"
       vector-effect="non-scaling-stroke"
       d="   M 619.2542 293.8635   A 1.36 1.36 0.0 0 0 617.8871 292.5106   L 610.4672 292.5495   A 1.36 1.36 0.0 0 0 609.1143 293.9166   L 609.1258 296.1165   A 1.36 1.36 0.0 0 0 610.4929 297.4694   L 617.9128 297.4305   A 1.36 1.36 0.0 0 0 619.2657 296.0634   L 619.2542 293.8635"
       id="path72" />
    <path
       stroke="#b1d3ac"
       vector-effect="non-scaling-stroke"
       d="   M 350.60 299.14   C 345.30 304.29 350.80 307.47 355.76 307.49   C 360.75 307.50 380.45 306.26 383.70 308.55   C 387.32 311.10 386.38 317.51 383.20 319.99   Q 381.53 321.30 377.99 321.28   Q 358.96 321.16 339.94 321.34   C 336.58 321.38 333.66 321.55 333.30 325.60   C 332.97 329.31 336.11 330.01 339.22 330.01   Q 387.80 330.00 436.38 330.00   C 443.39 330.00 442.66 321.06 436.50 321.18   Q 419.94 321.50 403.40 321.26   C 398.13 321.18 394.60 321.70 393.64 315.91   Q 393.03 312.24 394.31 308.94   A 1.24 1.21 1.4 0 1 395.06 308.24   Q 397.98 307.27 402.25 307.26   Q 424.63 307.24 447.01 307.25   C 453.09 307.25 452.99 298.83 445.42 298.79   C 422.97 298.66 400.52 298.75 378.07 298.49   Q 364.77 298.33 351.46 298.77   Q 350.95 298.79 350.60 299.14"
       id="path74" />
    <path
       stroke="#b1d3ac"
       vector-effect="non-scaling-stroke"
       d="   M 667.19 365.52   A 7.48 7.48 0.0 0 0 659.71 358.04   A 7.48 7.48 0.0 0 0 652.23 365.52   A 7.48 7.48 0.0 0 0 659.71 373.00   A 7.48 7.48 0.0 0 0 667.19 365.52"
       id="path76" />
    <path
       stroke="#b1d3ac"
       vector-effect="non-scaling-stroke"
       d="   M 392.45 364.61   A 2.35 2.35 0.0 0 0 390.10 362.26   L 339.58 362.26   A 2.35 2.35 0.0 0 0 337.23 364.61   L 337.23 365.41   A 2.35 2.35 0.0 0 0 339.58 367.76   L 390.10 367.76   A 2.35 2.35 0.0 0 0 392.45 365.41   L 392.45 364.61"
       id="path78" />
    <path
       stroke="#b1d3ac"
       vector-effect="non-scaling-stroke"
       d="   M 396.2292 387.8128   A 3.86 3.86 0.0 0 0 392.3625 383.9595   L 345.9425 384.0405   A 3.86 3.86 0.0 0 0 342.0893 387.9072   L 342.0908 388.7672   A 3.86 3.86 0.0 0 0 345.9575 392.6205   L 392.3775 392.5395   A 3.86 3.86 0.0 0 0 396.2307 388.6728   L 396.2292 387.8128"
       id="path80" />
    <path
       stroke="#93b9a5"
       vector-effect="non-scaling-stroke"
       d="   M 697.7494 398.1652   A 4.01 4.01 0.0 0 0 693.7324 394.1622   L 604.5725 394.3178   A 4.01 4.01 0.0 0 0 600.5695 398.3348   L 600.5706 398.9548   A 4.01 4.01 0.0 0 0 604.5876 402.9578   L 693.7475 402.8022   A 4.01 4.01 0.0 0 0 697.7505 398.7852   L 697.7494 398.1652"
       id="path82" />
    <path
       stroke="#b1d3ac"
       vector-effect="non-scaling-stroke"
       d="   M 415.50 416.85   A 2.08 2.08 0.0 0 0 413.42 414.77   L 366.10 414.77   A 2.08 2.08 0.0 0 0 364.02 416.85   L 364.02 418.17   A 2.08 2.08 0.0 0 0 366.10 420.25   L 413.42 420.25   A 2.08 2.08 0.0 0 0 415.50 418.17   L 415.50 416.85"
       id="path84" />
    <path
       stroke="#93b9a5"
       vector-effect="non-scaling-stroke"
       d="   M 646.99 423.10   A 4.10 4.10 0.0 0 0 642.89 419.00   L 610.21 419.00   A 4.10 4.10 0.0 0 0 606.11 423.10   L 606.11 423.70   A 4.10 4.10 0.0 0 0 610.21 427.80   L 642.89 427.80   A 4.10 4.10 0.0 0 0 646.99 423.70   L 646.99 423.10"
       id="path86" />
    <path
       stroke="#b1d3ac"
       vector-effect="non-scaling-stroke"
       d="   M 685.6384 605.9243   A 3.90 3.90 0.0 0 0 681.7248 602.0379   L 651.8850 602.1421   A 3.90 3.90 0.0 0 0 647.9986 606.0557   L 648.0016 606.9157   A 3.90 3.90 0.0 0 0 651.9152 610.8021   L 681.7550 610.6979   A 3.90 3.90 0.0 0 0 685.6414 606.7843   L 685.6384 605.9243"
       id="path88" />
    <path
       stroke="#b1d3ac"
       vector-effect="non-scaling-stroke"
       d="   M 358.92 606.51   A 3.99 3.99 0.0 0 0 354.93 602.52   L 328.73 602.52   A 3.99 3.99 0.0 0 0 324.74 606.51   L 324.74 607.27   A 3.99 3.99 0.0 0 0 328.73 611.26   L 354.93 611.26   A 3.99 3.99 0.0 0 0 358.92 607.27   L 358.92 606.51"
       id="path90" />
    <path
       stroke="#b1d3ac"
       vector-effect="non-scaling-stroke"
       d="   M 688.89 632.37   A 7.50 7.50 0.0 0 0 681.39 624.87   A 7.50 7.50 0.0 0 0 673.89 632.37   A 7.50 7.50 0.0 0 0 681.39 639.87   A 7.50 7.50 0.0 0 0 688.89 632.37"
       id="path92" />
    <path
       stroke="#b1d3ac"
       vector-effect="non-scaling-stroke"
       d="   M 354.64 634.42   A 7.54 7.54 0.0 0 0 347.10 626.88   A 7.54 7.54 0.0 0 0 339.56 634.42   A 7.54 7.54 0.0 0 0 347.10 641.96   A 7.54 7.54 0.0 0 0 354.64 634.42"
       id="path94" />
    <path
       stroke="#b1d3ac"
       vector-effect="non-scaling-stroke"
       d="   M 574.03 725.40   A 7.44 7.44 0.0 0 0 566.59 717.96   A 7.44 7.44 0.0 0 0 559.15 725.40   A 7.44 7.44 0.0 0 0 566.59 732.84   A 7.44 7.44 0.0 0 0 574.03 725.40"
       id="path96" />
    <path
       stroke="#93b9a5"
       vector-effect="non-scaling-stroke"
       d="   M 441.67 726.29   A 4.04 4.04 0.0 0 0 437.63 722.25   L 325.13 722.25   A 4.04 4.04 0.0 0 0 321.09 726.29   L 321.09 726.77   A 4.04 4.04 0.0 0 0 325.13 730.81   L 437.63 730.81   A 4.04 4.04 0.0 0 0 441.67 726.77   L 441.67 726.29"
       id="path98" />
    <path
       stroke="#93b9a5"
       vector-effect="non-scaling-stroke"
       d="   M 601.70 747.37   A 2.36 2.36 0.0 0 0 599.34 745.01   L 536.16 745.01   A 2.36 2.36 0.0 0 0 533.80 747.37   L 533.80 747.89   A 2.36 2.36 0.0 0 0 536.16 750.25   L 599.34 750.25   A 2.36 2.36 0.0 0 0 601.70 747.89   L 601.70 747.37"
       id="path100" />
    <path
       stroke="#93b9a5"
       vector-effect="non-scaling-stroke"
       d="   M 422.4203 750.0334   A 4.11 4.11 0.0 0 0 418.3175 745.9162   L 330.9776 745.7638   A 4.11 4.11 0.0 0 0 326.8605 749.8666   L 326.8597 750.3066   A 4.11 4.11 0.0 0 0 330.9625 754.4238   L 418.3024 754.5762   A 4.11 4.11 0.0 0 0 422.4195 750.4734   L 422.4203 750.0334"
       id="path102" />
    <path
       stroke="#3b715b"
       vector-effect="non-scaling-stroke"
       d="   M 466.55 503.70   Q 470.25 529.65 480.51 556.75   Q 492.01 587.11 502.58 622.98   Q 502.67 623.29 502.42 623.56   Q 502.20 623.80 502.06 623.51   C 486.14 590.86 466.65 554.99 444.12 525.49"
       id="path104" />
    <path
       stroke="#477b5d"
       vector-effect="non-scaling-stroke"
       d="   M 444.12 525.49   C 414.59 490.01 376.15 468.17 334.35 449.92   Q 333.88 449.72 333.96 450.22   C 341.22 498.43 358.81 544.29 393.67 579.10"
       id="path106" />
    <path
       stroke="#3b715b"
       vector-effect="non-scaling-stroke"
       d="   M 393.67 579.10   Q 419.31 604.60 451.81 619.99   C 464.23 625.88 476.78 628.35 488.32 636.43   Q 489.93 637.56 487.96 637.50   Q 466.63 636.84 444.31 637.07   C 411.08 637.41 385.43 656.37 363.38 679.22   Q 363.16 679.44 363.46 679.50   C 398.61 686.01 430.89 687.44 464.44 676.37   C 482.51 670.40 495.55 660.12 509.58 648.89   A 0.46 0.46 0.0 0 1 510.32 649.26   C 509.93 673.02 508.04 696.80 506.46 720.52   C 505.87 729.46 518.92 728.59 518.51 722.25   C 516.93 697.75 515.19 673.30 514.01 648.78   Q 513.98 648.16 514.49 648.53   C 521.28 653.56 528.74 659.88 534.73 663.87   C 571.49 688.36 618.55 687.92 660.22 679.16   Q 660.63 679.07 660.34 678.76   C 642.97 660.29 621.42 643.27 596.15 638.40   C 578.53 635.01 556.86 637.23 539.00 639.80   Q 537.68 639.99 535.93 639.64   Q 535.36 639.52 535.85 639.21   Q 548.83 630.98 558.91 626.63   C 597.12 610.14 630.08 585.93 653.67 551.75"
       id="path108" />
    <path
       stroke="#477b5d"
       vector-effect="non-scaling-stroke"
       d="   M 653.67 551.75   C 673.88 521.59 685.71 485.82 690.91 450.24   A 0.49 0.49 0.0 0 0 690.23 449.72   C 660.92 462.31 631.74 477.96 608.14 497.39"
       id="path110" />
    <path
       stroke="#3b715b"
       vector-effect="non-scaling-stroke"
       d="   M 608.14 497.39   Q 581.90 519.14 565.05 546.81   Q 547.72 575.26 529.29 611.56   C 527.50 615.08 525.36 618.44 523.30 621.75   A 0.31 0.31 0.0 0 1 522.74 621.50   C 528.12 603.64 533.72 586.69 540.21 568.41   C 550.52 539.40 558.92 510.88 559.76 480.75   C 561.50 418.05 544.51 357.92 515.18 302.78"
       id="path112" />
    <path
       stroke="#477b5d"
       vector-effect="non-scaling-stroke"
       d="   M 515.18 302.78   L 512.45 297.72   A 0.47 0.47 0.0 0 0 511.62 297.73   Q 504.89 311.09 498.54 324.51   C 475.57 373.01 462.43 425.93 464.13 479.81   Q 464.49 491.36 466.55 503.70"
       id="path114" />
    <path
       stroke="#73ca67"
       vector-effect="non-scaling-stroke"
       d="   M 515.18 302.78   L 513.92 304.71   Q 513.65 305.12 513.67 305.61   C 513.99 313.03 513.22 320.14 513.03 327.73   Q 512.92 331.97 512.31 336.15"
       id="path116" />
    <path
       stroke="#54a965"
       vector-effect="non-scaling-stroke"
       d="   M 512.31 336.15   C 510.42 338.51 510.86 340.78 510.80 343.68   Q 510.19 374.93 509.58 406.30   Q 509.56 407.14 508.92 406.59   L 490.99 391.06   A 0.78 0.78 0.0 0 0 489.87 392.14   L 502.05 407.15"
       id="path118" />
    <path
       stroke="#73ca67"
       vector-effect="non-scaling-stroke"
       d="   M 502.05 407.15   Q 498.25 420.35 494.68 432.93   Q 494.43 433.82 492.47 435.64"
       id="path120" />
    <path
       stroke="#54a965"
       vector-effect="non-scaling-stroke"
       d="   M 492.47 435.64   Q 491.27 434.25 490.21 434.29   Q 489.50 434.31 489.68 435.00   Q 490.26 437.23 491.91 439.11"
       id="path122" />
    <path
       stroke="#73ca67"
       vector-effect="non-scaling-stroke"
       d="   M 491.91 439.11   Q 481.77 472.14 466.55 503.70"
       id="path124" />
    <path
       stroke="#73ca67"
       vector-effect="non-scaling-stroke"
       d="   M 608.14 497.39   C 608.43 498.46 608.77 499.16 609.93 499.49   Q 615.97 501.18 621.84 503.80"
       id="path126" />
    <path
       stroke="#489f63"
       vector-effect="non-scaling-stroke"
       d="   M 621.84 503.80   Q 620.82 506.91 620.49 508.75   Q 618.35 520.84 616.29 532.94   C 615.99 534.70 614.99 537.77 614.04 538.79   Q 602.20 551.53 590.40 564.32   Q 590.07 564.68 590.08 564.20   Q 590.57 550.63 590.53 537.05   C 590.53 535.83 590.88 533.40 590.34 531.78   A 1.10 1.10 0.0 0 0 588.20 531.98   Q 585.58 550.97 584.09 569.06   C 583.70 573.78 572.32 583.34 568.62 586.71   Q 568.36 586.95 568.41 586.60   L 571.86 561.78   A 1.01 1.01 0.0 0 0 569.94 561.24   Q 569.03 563.33 568.54 565.26   Q 565.06 579.05 561.75 592.87   C 561.41 594.31 560.56 596.03 559.69 596.94   Q 542.28 615.16 525.29 633.80   A 1.89 1.89 0.0 0 0 525.50 636.54   Q 527.40 638.08 529.23 636.22   Q 545.64 619.53 561.79 602.42   A 1.48 1.46 17.9 0 1 562.64 601.99   C 574.82 600.40 588.06 599.71 599.87 596.45   A 0.69 0.69 0.0 0 0 599.89 595.12   Q 598.30 594.62 596.25 594.68   Q 583.51 595.07 569.98 595.31   Q 568.47 595.34 569.51 594.24   L 585.11 577.88   A 5.22 5.20 14.2 0 1 587.57 576.42   Q 609.33 570.62 631.01 564.27   Q 633.18 563.63 634.45 563.02   A 0.38 0.37 33.3 0 0 634.30 562.31   Q 631.18 562.16 628.05 562.61   Q 611.14 565.03 594.25 568.34   Q 593.59 568.47 594.05 567.99   Q 602.40 559.35 610.25 550.26   Q 612.42 547.75 615.25 547.02   Q 630.63 543.08 643.24 538.64"
       id="path128" />
    <path
       stroke="#73ca67"
       vector-effect="non-scaling-stroke"
       d="   M 643.24 538.64   Q 642.64 539.80 642.74 540.90   Q 642.79 541.42 643.17 541.78   C 644.14 542.73 644.68 543.74 645.84 544.55   Q 648.15 546.17 649.15 548.87   Q 649.31 549.33 649.71 549.62   L 650.68 550.31   Q 651.06 550.58 651.09 551.05   Q 651.17 552.43 653.67 551.75"
       id="path130" />
    <path
       stroke="#73ca67"
       vector-effect="non-scaling-stroke"
       d="   M 393.67 579.10   L 394.14 577.04   Q 394.18 576.84 394.00 576.75   L 393.38 576.45   Q 393.12 576.33 393.12 576.04   Q 393.12 575.90 393.17 575.77   Q 393.26 575.57 393.54 575.47   Q 397.07 574.24 400.67 575.25   Q 401.17 575.39 401.68 575.27   Q 402.89 574.98 404.07 575.01   Q 404.56 575.03 404.96 574.74   Q 405.84 574.11 406.82 573.63   Q 407.30 573.40 407.49 573.14   Q 407.75 572.77 407.77 572.26   Q 407.77 572.14 408.20 571.45   Q 408.48 571.00 408.91 570.99   Q 409.33 570.99 409.62 570.70   L 410.81 569.55"
       id="path132" />
    <path
       stroke="#489f63"
       vector-effect="non-scaling-stroke"
       d="   M 410.81 569.55   Q 422.01 572.86 433.53 575.51   C 436.18 576.12 439.17 577.23 440.80 578.95   Q 448.34 586.91 455.81 594.64   A 0.55 0.55 0.0 0 1 455.41 595.57   Q 440.25 595.28 425.00 594.99   Q 424.25 594.97 423.93 595.29   A 0.75 0.75 0.0 0 0 424.23 596.54   Q 428.06 597.75 432.24 598.35   Q 446.30 600.38 460.41 601.99   Q 462.60 602.24 463.40 603.09   Q 479.59 620.33 495.66 636.83   A 2.19 2.18 -41.4 0 0 498.59 637.01   C 500.30 635.63 500.43 634.29 498.88 632.64   Q 482.29 614.82 465.40 597.29   C 464.25 596.10 463.41 594.66 463.07 593.19   Q 459.45 577.48 454.94 562.02   Q 454.68 561.11 454.24 560.61   A 0.51 0.51 0.0 0 0 453.35 560.95   Q 453.52 573.75 455.87 586.33   Q 455.99 587.01 455.49 586.54   Q 447.87 579.46 441.36 571.34   A 2.01 1.97 -69.2 0 1 440.94 570.38   L 436.02 538.68"
       id="path134" />
    <path
       stroke="#73ca67"
       vector-effect="non-scaling-stroke"
       d="   M 436.02 538.68   L 441.29 526.67   Q 441.50 526.21 441.99 526.08   L 444.12 525.49"
       id="path136" />
    <path
       stroke="#489f63"
       vector-effect="non-scaling-stroke"
       d="   M 491.91 439.11   L 509.46 457.47   Q 509.83 457.86 509.83 458.41   L 509.66 492.94   A 0.57 0.55 18.9 0 1 508.75 493.37   Q 500.22 486.93 491.39 480.38   Q 488.32 478.10 485.00 476.84   A 0.51 0.51 0.0 0 0 484.43 477.65   C 491.30 485.78 500.39 493.20 508.51 500.69   Q 509.76 501.85 509.76 503.55   L 509.73 541.75   Q 509.72 543.46 508.45 542.32   L 488.41 524.49   Q 487.13 523.35 487.14 525.06   Q 487.15 527.25 490.68 531.08   Q 499.86 541.03 509.39 550.82   Q 509.82 551.27 509.81 551.88   L 509.31 582.68   A 0.55 0.55 0.0 0 1 508.38 583.06   Q 500.43 575.20 491.37 568.67   Q 490.78 568.25 490.94 568.95   C 492.25 574.60 502.85 584.17 507.16 588.34   Q 509.14 590.25 509.23 591.75   Q 509.57 597.24 508.96 612.25   Q 508.83 615.50 509.85 619.32   Q 509.99 619.85 510.53 619.95   Q 512.47 620.33 514.15 619.54   A 1.12 1.11 -7.0 0 0 514.77 618.75   C 516.35 610.48 515.25 601.00 515.22 592.49   A 1.26 1.23 67.6 0 1 515.57 591.62   C 521.45 585.43 530.30 577.74 534.23 570.28   A 0.51 0.51 0.0 0 0 533.57 569.57   C 527.58 572.29 521.26 579.08 516.13 583.42   A 0.52 0.51 69.7 0 1 515.28 583.02   L 515.23 551.34   Q 515.23 550.88 515.57 550.55   Q 526.87 539.53 537.08 527.49   C 537.92 526.49 538.54 525.17 539.10 524.04   A 0.87 0.86 82.7 0 0 537.76 523.00   L 516.28 541.83   A 0.53 0.52 -20.8 0 1 515.41 541.44   L 515.18 502.62   A 2.01 1.99 68.3 0 1 515.80 501.17   L 540.13 477.91   A 0.95 0.95 0.0 0 0 539.19 476.31   Q 538.20 476.63 536.83 477.59   Q 526.15 485.05 516.13 493.07   A 0.45 0.44 70.5 0 1 515.41 492.72   L 515.18 457.80   A 0.97 0.96 67.1 0 1 515.45 457.13   C 522.87 449.47 529.84 441.99 536.48 433.66   A 0.77 0.77 0.0 0 0 535.38 432.59   L 515.98 449.01   A 0.40 0.40 0.0 0 1 515.32 448.71   L 515.09 415.02   A 2.92 2.89 67.6 0 1 515.95 412.93   C 522.58 406.27 529.74 399.01 534.75 390.97   A 0.60 0.60 0.0 0 0 534.02 390.10   Q 532.52 390.69 531.11 391.87   Q 523.56 398.17 516.48 404.62   A 0.61 0.61 0.0 0 1 515.46 404.18   Q 515.13 375.55 515.25 346.84   C 515.26 344.25 515.95 336.43 512.31 336.15"
       id="path138" />
    <path
       stroke="#489f63"
       vector-effect="non-scaling-stroke"
       d="   M 492.47 435.64   L 508.33 449.56   A 0.80 0.79 20.8 0 0 509.65 448.97   L 509.79 415.54   A 1.06 1.05 23.3 0 0 509.48 414.77   L 502.05 407.15"
       id="path140" />
    <path
       stroke="#54a965"
       vector-effect="non-scaling-stroke"
       d="   M 436.02 538.68   L 435.45 536.90   Q 435.21 536.16 434.87 536.86   Q 433.68 539.32 433.73 543.00   Q 433.87 552.72 434.11 562.62   A 0.32 0.32 0.0 0 1 433.56 562.86   Q 421.69 551.41 410.60 538.90   C 409.42 537.57 408.59 534.94 408.24 533.19   C 406.51 524.36 404.94 513.96 401.49 505.67   A 0.44 0.44 0.0 0 0 400.64 505.81   Q 399.91 516.44 401.73 526.94   Q 401.88 527.81 401.27 527.17   C 388.74 513.93 377.12 499.52 365.00 485.75   Q 361.77 482.08 357.99 479.00   A 0.49 0.49 0.0 0 0 357.23 479.58   Q 359.55 484.77 363.26 489.45   Q 371.77 500.19 380.52 510.76   A 0.34 0.34 0.0 0 1 380.20 511.31   C 376.48 510.63 371.69 509.18 367.92 509.88   A 0.61 0.61 0.0 0 0 367.75 511.02   Q 376.21 515.31 384.64 518.91   Q 388.91 520.73 389.98 522.02   Q 397.55 531.07 405.15 539.88   A 0.26 0.25 75.0 0 1 404.91 540.30   Q 391.49 537.68 378.50 535.02   Q 377.17 534.74 375.36 535.12   Q 374.65 535.27 375.26 535.68   Q 376.85 536.72 378.66 537.39   Q 393.35 542.88 408.45 547.12   C 411.01 547.84 412.96 548.83 414.62 550.64   Q 422.91 559.70 431.34 568.41   A 0.27 0.27 0.0 0 1 431.09 568.86   Q 412.95 564.84 394.50 562.17   Q 386.26 560.98 393.96 564.14   Q 400.10 566.66 410.81 569.55"
       id="path142" />
    <path
       stroke="#54a965"
       vector-effect="non-scaling-stroke"
       d="   M 643.24 538.64   L 650.38 536.12   A 0.57 0.57 0.0 0 0 650.23 535.01   Q 647.91 534.87 645.27 535.35   Q 633.01 537.57 620.81 539.72   A 0.30 0.30 0.0 0 1 620.53 539.23   Q 627.25 531.37 633.98 523.49   C 636.20 520.89 637.84 519.00 641.31 517.94   Q 650.03 515.27 658.06 511.09   A 0.72 0.72 0.0 0 0 657.64 509.74   L 644.47 511.39   A 0.21 0.21 0.0 0 1 644.28 511.04   Q 656.78 496.25 667.77 480.29   A 0.90 0.90 0.0 0 0 666.41 479.12   Q 662.55 482.80 659.90 485.89   Q 642.45 506.19 624.01 527.20   Q 623.00 528.36 623.10 526.82   C 623.56 519.81 625.15 509.90 623.15 503.03   Q 622.96 502.38 622.42 502.79   Q 622.11 503.02 621.84 503.80"
       id="path144" />
    <path
       stroke="#489f63"
       vector-effect="non-scaling-stroke"
       d="   M 443.18 662.17   L 433.66 676.92   Q 433.31 677.47 433.96 677.47   C 438.43 677.50 447.71 664.72 450.60 661.10   C 453.05 658.03 470.01 654.90 473.45 654.43   A 0.46 0.45 -78.4 0 1 473.90 655.12   L 465.42 669.22   A 0.68 0.68 0.0 0 0 466.34 670.17   C 471.61 667.17 477.26 658.03 480.68 653.55   A 5.96 5.93 -80.1 0 1 483.61 651.48   Q 488.66 649.89 494.33 648.18   C 496.11 647.64 497.18 646.71 496.32 644.75   A 1.90 1.90 0.0 0 0 494.15 643.66   Q 480.77 646.71 467.87 650.78   Q 462.85 652.37 459.30 650.74   Q 447.13 645.16 434.42 641.35   A 0.26 0.26 0.0 0 0 434.19 641.80   Q 442.92 648.67 453.06 653.20   Q 453.81 653.54 453.03 653.80   C 447.44 655.72 436.03 659.26 430.39 657.37   C 426.15 655.95 413.36 651.11 409.72 652.29   Q 407.82 652.91 409.50 654.00   Q 415.20 657.71 421.77 660.08   Q 423.99 660.89 421.68 661.40   C 410.67 663.85 399.45 665.76 388.98 669.44   A 2.39 2.38 -85.7 0 0 387.64 670.60   C 386.35 673.04 388.55 674.14 390.54 673.75   Q 401.27 671.66 412.30 668.86   A 0.49 0.49 0.0 0 1 412.83 669.61   L 407.07 678.06   A 0.27 0.27 0.0 0 0 407.34 678.48   C 411.48 677.72 415.91 671.41 418.36 668.15   A 1.82 1.78 8.7 0 1 419.25 667.51   Q 430.89 663.82 442.93 661.80   Q 443.48 661.71 443.18 662.17"
       id="path146" />
    <path
       stroke="#489f63"
       vector-effect="non-scaling-stroke"
       d="   M 612.01 668.53   C 619.91 670.10 627.68 673.39 635.72 673.95   A 2.04 2.03 60.8 0 0 636.80 670.12   C 633.50 668.39 629.95 667.20 625.95 666.33   Q 614.30 663.80 602.76 660.89   A 0.37 0.37 0.0 0 1 602.72 660.18   C 607.03 658.56 612.08 656.44 615.93 653.71   A 1.06 1.06 0.0 0 0 615.06 651.82   Q 605.59 654.16 597.41 656.69   C 589.98 658.99 580.05 656.67 572.89 654.01   Q 572.28 653.78 572.83 653.45   C 577.83 650.44 585.60 647.01 589.64 643.01   A 0.38 0.38 0.0 0 0 589.28 642.37   Q 577.29 645.00 566.51 650.37   C 560.70 653.26 542.72 646.92 536.41 644.82   C 534.12 644.05 527.42 642.28 527.71 646.87   A 2.10 2.09 3.2 0 0 529.43 648.79   C 535.81 649.94 541.54 650.17 545.70 655.80   C 548.43 659.48 553.89 667.03 558.42 669.67   A 0.69 0.68 -0.7 0 0 559.35 668.72   L 550.82 654.90   A 0.60 0.60 0.0 0 1 551.49 654.00   L 571.52 659.40   A 4.78 4.77 79.2 0 1 574.11 661.16   C 577.87 666.23 583.61 673.62 589.15 676.75   A 0.74 0.73 87.9 0 0 590.12 675.70   L 581.33 662.42   A 0.56 0.56 0.0 0 1 581.91 661.56   Q 591.05 663.58 600.29 665.86   C 605.99 667.27 609.13 672.78 613.08 676.58   C 613.87 677.33 615.54 678.09 616.49 677.96   Q 617.70 677.81 617.00 676.81   L 611.59 669.17   Q 610.98 668.32 612.01 668.53"
       id="path148" />
    <path
       stroke="#79a29c"
       vector-effect="non-scaling-stroke"
       d="   M 670.1808 754.2235   A 1.95 1.95 0.0 0 0 668.2004 752.3043   L 655.9820 752.4963   A 1.95 1.95 0.0 0 0 654.0628 754.4767   L 654.0792 755.5165   A 1.95 1.95 0.0 0 0 656.0596 757.4357   L 668.2780 757.2437   A 1.95 1.95 0.0 0 0 670.1972 755.2633   L 670.1808 754.2235"
       id="path150" />
  </g>
  <path
     fill="#0e2251"
     d="   M 700.98 185.42   C 705.77 192.11 704.72 199.45 704.76 206.90   Q 704.76 207.82 705.68 207.80   L 724.08 207.48   Q 742.11 206.86 752.01 222.89   Q 755.33 229.54 755.31 236.75   Q 754.68 512.35 755.20 787.95   Q 755.22 798.89 753.75 803.77   C 749.74 817.14 737.89 824.49 724.00 824.45   Q 596.53 824.05 469.06 824.35   C 409.71 824.48 350.35 824.18 291.00 824.28   Q 289.52 824.29 284.85 823.10   Q 270.15 817.27 265.94 803.80   Q 264.49 799.14 264.49 789.06   Q 264.51 598.03 264.50 407.07   Q 264.49 370.64 264.22 334.20   Q 264.18 328.97 264.69 257.89   Q 264.72 253.47 264.47 245.61   Q 264.19 236.66 264.77 233.32   C 268.01 214.87 281.01 206.63 299.30 207.28   Q 305.03 207.48 307.84 207.49   Q 456.63 207.52 605.43 207.49   Q 605.92 207.49 605.90 207.00   C 605.31 193.38 605.36 181.41 620.58 176.04   Q 622.61 175.33 630.00 175.33   Q 654.69 175.35 679.38 175.49   C 689.63 175.54 695.68 176.99 700.98 185.42   Z   M 684.39 207.96   L 691.95 207.46   Q 692.42 207.43 692.40 206.96   C 692.06 197.90 692.64 189.32 683.74 184.11   Q 655.77 183.92 626.49 184.00   Q 619.46 184.01 616.09 189.94   C 613.73 194.10 614.70 202.41 614.78 207.27   A 0.49 0.49 0.0 0 0 615.27 207.75   L 629.02 207.75   A 1.94 1.94 0.0 0 1 630.96 209.68   Q 631.05 239.11 631.25 268.49   Q 631.29 274.92 632.67 278.27   C 637.83 290.79 649.73 288.64 661.14 288.75   Q 668.36 288.81 671.74 287.63   Q 682.31 283.92 682.73 271.24   Q 683.23 256.16 682.98 210.27   C 682.97 209.22 683.48 208.38 684.39 207.96   Z   M 272.73 410.49   C 272.57 420.64 273.04 432.09 273.02 440.93   C 272.82 555.46 273.26 670.01 272.74 784.54   Q 272.68 797.48 274.20 801.80   C 278.36 813.68 288.38 815.98 300.00 815.99   Q 404.46 816.05 509.06 815.95   Q 615.44 816.04 721.96 816.00   C 732.93 816.00 741.76 812.74 745.59 801.90   Q 747.00 797.91 747.00 789.81   C 746.98 632.01 746.98 474.21 746.99 316.41   Q 746.99 310.88 746.80 301.71   Q 746.64 294.07 746.66 287.01   Q 746.84 261.99 746.72 238.11   C 746.66 225.37 737.34 216.00 724.52 216.05   Q 716.51 216.08 706.87 216.25   L 692.37 216.11   Q 691.70 216.11 691.70 216.78   L 691.86 241.34   Q 691.86 241.97 692.48 242.07   C 712.61 245.34 726.77 263.03 726.74 283.25   Q 726.67 350.75 726.81 361.06   A 63.44 0.05 -89.9 0 1 726.79 421.35   C 726.68 529.24 726.72 637.18 726.74 745.09   Q 726.74 755.94 725.30 761.13   C 720.06 780.11 703.47 792.59 683.75 792.61   Q 530.59 792.76 377.43 792.45   C 366.24 792.43 352.80 793.05 340.48 792.99   C 315.00 793.89 294.74 775.48 294.74 750.00   Q 294.76 546.26 294.74 342.49   Q 294.75 315.20 294.75 287.87   Q 294.75 277.47 295.92 272.82   C 300.87 253.19 318.33 240.80 338.26 240.78   Q 409.12 240.73 480.00 240.77   L 621.58 240.42   A 0.67 0.66 0.0 0 0 622.25 239.76   L 622.25 216.72   Q 622.25 216.08 621.61 216.08   L 480.00 215.75   Q 389.62 215.67 299.23 215.86   Q 291.72 215.87 288.84 216.66   C 281.59 218.65 275.67 224.75 273.75 231.98   Q 272.96 234.94 273.01 243.08   Q 273.11 261.99 272.72 280.89   Q 272.72 281.01 272.77 281.10   Q 272.84 281.22 272.93 281.33   Q 273.09 281.52 273.09 281.77   L 272.73 410.49   Z   M 587.56 784.20   Q 634.51 784.40 681.06 784.11   Q 689.78 784.05 694.28 782.64   C 705.47 779.12 714.09 769.77 717.21 758.36   Q 718.30 754.35 718.27 746.53   Q 718.10 701.77 718.51 657.01   C 718.53 654.85 718.03 651.69 718.45 648.97   L 718.57 389.76   Q 718.28 337.16 718.29 284.55   C 718.30 267.80 708.33 255.29 692.37 250.25   Q 691.71 250.04 691.72 250.74   C 691.95 267.64 694.82 288.15 675.13 295.75   C 667.22 298.80 657.39 297.39 647.75 297.17   Q 641.77 297.04 636.43 295.03   Q 622.88 286.40 622.49 270.78   Q 622.22 260.17 622.23 249.77   A 0.52 0.52 0.0 0 0 621.71 249.25   Q 480.12 249.24 338.50 249.28   C 322.96 249.28 309.07 258.58 304.49 273.70   Q 303.25 277.79 303.25 285.93   Q 303.24 516.44 303.26 746.94   C 303.26 756.96 305.11 764.11 311.10 771.41   Q 321.84 784.48 339.25 784.46   Q 463.64 784.31 587.56 784.20   Z"
     id="path156" />
  <path
     fill="#d3dbf5"
     d="   M 724.08 207.48   L 705.68 207.80   Q 704.76 207.82 704.76 206.90   C 704.72 199.45 705.77 192.11 700.98 185.42   L 703.85 182.91   A 1.09 1.05 25.5 0 1 704.63 182.65   C 712.29 183.20 713.39 196.65 720.13 200.88   Q 722.61 202.44 724.78 204.96   Q 725.44 205.72 724.48 206.04   Q 722.97 206.54 724.08 207.48   Z"
     id="path158" />
  <path
     fill="#67c064"
     d="   M 683.74 184.11   Q 685.14 196.28 684.39 207.96   C 683.48 208.38 682.97 209.22 682.98 210.27   Q 683.23 256.16 682.73 271.24   Q 682.31 283.92 671.74 287.63   Q 668.36 288.81 661.14 288.75   C 649.73 288.64 637.83 290.79 632.67 278.27   Q 631.29 274.92 631.25 268.49   Q 631.05 239.11 630.96 209.68   A 1.94 1.94 0.0 0 0 629.02 207.75   L 615.27 207.75   A 0.49 0.49 0.0 0 1 614.78 207.27   C 614.70 202.41 613.73 194.10 616.09 189.94   Q 619.46 184.01 626.49 184.00   Q 655.77 183.92 683.74 184.11   Z   M 670.96 265.53   A 12.14 12.14 0.0 0 0 658.82 253.39   A 12.14 12.14 0.0 0 0 646.68 265.53   A 12.14 12.14 0.0 0 0 658.82 277.67   A 12.14 12.14 0.0 0 0 670.96 265.53   Z"
     id="path160" />
  <path
     fill="#64b170"
     d="   M 683.74 184.11   C 692.64 189.32 692.06 197.90 692.40 206.96   Q 692.42 207.43 691.95 207.46   L 684.39 207.96   Q 685.14 196.28 683.74 184.11   Z"
     id="path162" />
  <path
     fill="#67c064"
     d="   M 480.00 215.75   L 486.62 215.94   Q 487.16 215.96 487.49 216.39   Q 488.43 217.61 489.93 217.83   A 0.69 0.68 29.5 0 1 490.27 219.04   Q 487.25 221.55 483.49 222.58   Q 482.98 222.72 482.71 223.18   L 482.30 223.86   Q 482.25 223.94 482.35 223.96   L 482.78 224.01   Q 483.36 224.09 482.91 224.46   L 481.06 226.00   A 0.89 0.89 0.0 0 0 480.74 226.59   L 480.39 229.77   Q 480.27 230.81 479.47 231.47   Q 475.98 234.37 477.66 238.51   Q 477.84 238.94 478.31 238.96   Q 480.35 239.04 480.00 240.77   Q 409.12 240.73 338.26 240.78   C 318.33 240.80 300.87 253.19 295.92 272.82   Q 294.75 277.47 294.75 287.87   Q 294.75 315.20 294.74 342.49   C 293.21 345.41 292.77 349.10 291.89 351.71   C 284.43 373.67 280.35 389.02 273.96 414.16   Q 273.88 414.49 273.54 414.50   Q 273.40 414.50 273.25 414.50   A 0.28 0.27 3.6 0 1 272.97 414.19   Q 273.23 412.21 272.73 410.49   L 273.09 281.77   Q 273.09 281.52 272.93 281.33   Q 272.84 281.22 272.77 281.10   Q 272.72 281.01 272.72 280.89   Q 273.11 261.99 273.01 243.08   Q 272.96 234.94 273.75 231.98   C 275.67 224.75 281.59 218.65 288.84 216.66   Q 291.72 215.87 299.23 215.86   Q 389.62 215.67 480.00 215.75   Z"
     id="path164" />
  <path
     fill="#64b170"
     d="   M 480.00 215.75   L 621.61 216.08   Q 622.25 216.08 622.25 216.72   L 622.25 239.76   A 0.67 0.66 0.0 0 1 621.58 240.42   L 480.00 240.77   Q 480.35 239.04 478.31 238.96   Q 477.84 238.94 477.66 238.51   Q 475.98 234.37 479.47 231.47   Q 480.27 230.81 480.39 229.77   L 480.74 226.59   A 0.89 0.89 0.0 0 1 481.06 226.00   L 482.91 224.46   Q 483.36 224.09 482.78 224.01   L 482.35 223.96   Q 482.25 223.94 482.30 223.86   L 482.71 223.18   Q 482.98 222.72 483.49 222.58   Q 487.25 221.55 490.27 219.04   A 0.69 0.68 29.5 0 0 489.93 217.83   Q 488.43 217.61 487.49 216.39   Q 487.16 215.96 486.62 215.94   L 480.00 215.75   Z"
     id="path166" />
  <path
     fill="#356e78"
     d="   M 706.87 216.25   L 746.66 287.01   Q 746.64 294.07 746.80 301.71   Q 746.99 310.88 746.99 316.41   C 746.98 474.21 746.98 632.01 747.00 789.81   Q 747.00 797.91 745.59 801.90   C 741.76 812.74 732.93 816.00 721.96 816.00   Q 615.44 816.04 509.06 815.95   Q 493.40 813.99 477.72 812.58   C 442.87 809.45 404.03 802.69 352.00 795.01   Q 343.10 793.70 340.48 792.99   C 352.80 793.05 366.24 792.43 377.43 792.45   Q 530.59 792.76 683.75 792.61   C 703.47 792.59 720.06 780.11 725.30 761.13   Q 726.74 755.94 726.74 745.09   C 726.72 637.18 726.68 529.24 726.79 421.35   A 63.44 0.05 -89.9 0 0 726.81 361.06   Q 726.67 350.75 726.74 283.25   C 726.77 263.03 712.61 245.34 692.48 242.07   Q 691.86 241.97 691.86 241.34   L 691.70 216.78   Q 691.70 216.11 692.37 216.11   L 706.87 216.25   Z"
     id="path168" />
  <path
     fill="#64b170"
     d="   M 746.66 287.01   L 706.87 216.25   Q 716.51 216.08 724.52 216.05   C 737.34 216.00 746.66 225.37 746.72 238.11   Q 746.84 261.99 746.66 287.01   Z"
     id="path170" />
  <path
     fill="#d3dbf5"
     d="   M 284.85 823.10   Q 289.52 824.29 291.00 824.28   C 350.35 824.18 409.71 824.48 469.06 824.35   Q 596.53 824.05 724.00 824.45   C 737.89 824.49 749.74 817.14 753.75 803.77   Q 755.22 798.89 755.20 787.95   Q 754.68 512.35 755.31 236.75   Q 755.33 229.54 752.01 222.89   Q 752.37 222.61 752.78 222.52   Q 753.27 222.41 753.65 222.72   Q 765.29 232.12 771.94 241.10   C 778.43 249.87 778.23 258.52 778.23 271.33   Q 778.27 540.04 778.25 808.75   C 778.25 830.25 762.34 847.02 740.50 847.02   C 601.17 846.98 461.83 847.40 322.50 846.89   C 306.64 846.83 296.48 833.33 284.98 824.51   Q 284.61 824.22 284.71 823.75   L 284.85 823.10   Z"
     id="path172" />
  <path
     fill="#fef5e8"
     d="   M 636.43 295.03   Q 648.17 310.11 662.30 322.81   Q 620.18 322.92 578.81 322.75   C 574.10 322.74 574.28 328.47 578.00 328.47   Q 622.38 328.54 666.74 328.43   C 684.82 346.64 701.74 364.14 716.76 386.50   Q 718.42 388.97 718.57 389.76   L 718.45 648.97   Q 717.46 649.68 717.10 650.57   C 692.28 710.81 646.44 756.67 587.56 784.20   Q 463.64 784.31 339.25 784.46   Q 321.84 784.48 311.10 771.41   C 305.11 764.11 303.26 756.96 303.26 746.94   Q 303.24 516.44 303.25 285.93   Q 303.25 277.79 304.49 273.70   C 309.07 258.58 322.96 249.28 338.50 249.28   Q 480.12 249.24 621.71 249.25   A 0.52 0.52 0.0 0 1 622.23 249.77   Q 622.22 260.17 622.49 270.78   Q 622.88 286.40 636.43 295.03   Z   M 465.7510 278.6640   A 2.18 2.18 0.0 0 0 463.5748 276.4802   L 417.4949 276.3998   A 2.18 2.18 0.0 0 0 415.3111 278.5760   L 415.3090 279.7760   A 2.18 2.18 0.0 0 0 417.4852 281.9598   L 463.5651 282.0402   A 2.18 2.18 0.0 0 0 465.7489 279.8640   L 465.7510 278.6640   Z   M 446.54 627.70   C 405.14 627.63 371.95 653.39 346.67 684.94   Q 346.41 685.28 346.82 685.37   C 398.13 696.65 456.61 701.02 500.88 666.92   A 0.20 0.20 0.0 0 1 501.20 667.09   Q 499.60 693.64 497.78 720.26   C 496.49 739.06 523.59 740.48 526.92 725.78   Q 527.44 723.50 526.70 712.83   Q 525.14 690.18 523.35 667.51   A 0.42 0.42 0.0 0 1 524.03 667.14   C 568.06 701.46 626.75 696.28 677.47 685.18   Q 678.04 685.06 677.67 684.62   C 652.68 654.85 620.72 627.65 579.56 627.66   A 0.38 0.38 0.0 0 1 579.40 626.94   Q 654.57 589.80 684.27 511.12   Q 698.05 474.62 701.75 435.81   Q 701.80 435.35 701.36 435.52   C 645.98 457.08 590.62 487.85 558.79 540.28   A 0.25 0.24 70.4 0 1 558.35 540.07   C 564.30 523.26 567.47 506.30 568.39 488.27   C 572.10 415.93 551.20 346.86 515.03 284.45   Q 513.40 281.64 512.41 280.16   Q 512.09 279.68 511.80 280.18   C 479.60 335.11 456.80 396.99 455.51 461.25   C 454.95 489.42 456.83 513.82 465.39 539.83   A 0.14 0.14 0.0 0 1 465.13 539.95   C 435.33 488.79 377.12 456.58 323.76 435.97   Q 323.34 435.81 323.39 436.25   Q 327.60 480.82 343.02 517.97   Q 373.88 592.37 446.60 627.43   A 0.14 0.14 0.0 0 1 446.54 627.70   Z   M 619.2542 293.8635   A 1.36 1.36 0.0 0 0 617.8871 292.5106   L 610.4672 292.5495   A 1.36 1.36 0.0 0 0 609.1143 293.9166   L 609.1258 296.1165   A 1.36 1.36 0.0 0 0 610.4929 297.4694   L 617.9128 297.4305   A 1.36 1.36 0.0 0 0 619.2657 296.0634   L 619.2542 293.8635   Z   M 350.60 299.14   C 345.30 304.29 350.80 307.47 355.76 307.49   C 360.75 307.50 380.45 306.26 383.70 308.55   C 387.32 311.10 386.38 317.51 383.20 319.99   Q 381.53 321.30 377.99 321.28   Q 358.96 321.16 339.94 321.34   C 336.58 321.38 333.66 321.55 333.30 325.60   C 332.97 329.31 336.11 330.01 339.22 330.01   Q 387.80 330.00 436.38 330.00   C 443.39 330.00 442.66 321.06 436.50 321.18   Q 419.94 321.50 403.40 321.26   C 398.13 321.18 394.60 321.70 393.64 315.91   Q 393.03 312.24 394.31 308.94   A 1.24 1.21 1.4 0 1 395.06 308.24   Q 397.98 307.27 402.25 307.26   Q 424.63 307.24 447.01 307.25   C 453.09 307.25 452.99 298.83 445.42 298.79   C 422.97 298.66 400.52 298.75 378.07 298.49   Q 364.77 298.33 351.46 298.77   Q 350.95 298.79 350.60 299.14   Z   M 667.19 365.52   A 7.48 7.48 0.0 0 0 659.71 358.04   A 7.48 7.48 0.0 0 0 652.23 365.52   A 7.48 7.48 0.0 0 0 659.71 373.00   A 7.48 7.48 0.0 0 0 667.19 365.52   Z   M 392.45 364.61   A 2.35 2.35 0.0 0 0 390.10 362.26   L 339.58 362.26   A 2.35 2.35 0.0 0 0 337.23 364.61   L 337.23 365.41   A 2.35 2.35 0.0 0 0 339.58 367.76   L 390.10 367.76   A 2.35 2.35 0.0 0 0 392.45 365.41   L 392.45 364.61   Z   M 396.2292 387.8128   A 3.86 3.86 0.0 0 0 392.3625 383.9595   L 345.9425 384.0405   A 3.86 3.86 0.0 0 0 342.0893 387.9072   L 342.0908 388.7672   A 3.86 3.86 0.0 0 0 345.9575 392.6205   L 392.3775 392.5395   A 3.86 3.86 0.0 0 0 396.2307 388.6728   L 396.2292 387.8128   Z   M 697.7494 398.1652   A 4.01 4.01 0.0 0 0 693.7324 394.1622   L 604.5725 394.3178   A 4.01 4.01 0.0 0 0 600.5695 398.3348   L 600.5706 398.9548   A 4.01 4.01 0.0 0 0 604.5876 402.9578   L 693.7475 402.8022   A 4.01 4.01 0.0 0 0 697.7505 398.7852   L 697.7494 398.1652   Z   M 415.50 416.85   A 2.08 2.08 0.0 0 0 413.42 414.77   L 366.10 414.77   A 2.08 2.08 0.0 0 0 364.02 416.85   L 364.02 418.17   A 2.08 2.08 0.0 0 0 366.10 420.25   L 413.42 420.25   A 2.08 2.08 0.0 0 0 415.50 418.17   L 415.50 416.85   Z   M 646.99 423.10   A 4.10 4.10 0.0 0 0 642.89 419.00   L 610.21 419.00   A 4.10 4.10 0.0 0 0 606.11 423.10   L 606.11 423.70   A 4.10 4.10 0.0 0 0 610.21 427.80   L 642.89 427.80   A 4.10 4.10 0.0 0 0 646.99 423.70   L 646.99 423.10   Z   M 685.6384 605.9243   A 3.90 3.90 0.0 0 0 681.7248 602.0379   L 651.8850 602.1421   A 3.90 3.90 0.0 0 0 647.9986 606.0557   L 648.0016 606.9157   A 3.90 3.90 0.0 0 0 651.9152 610.8021   L 681.7550 610.6979   A 3.90 3.90 0.0 0 0 685.6414 606.7843   L 685.6384 605.9243   Z   M 358.92 606.51   A 3.99 3.99 0.0 0 0 354.93 602.52   L 328.73 602.52   A 3.99 3.99 0.0 0 0 324.74 606.51   L 324.74 607.27   A 3.99 3.99 0.0 0 0 328.73 611.26   L 354.93 611.26   A 3.99 3.99 0.0 0 0 358.92 607.27   L 358.92 606.51   Z   M 688.89 632.37   A 7.50 7.50 0.0 0 0 681.39 624.87   A 7.50 7.50 0.0 0 0 673.89 632.37   A 7.50 7.50 0.0 0 0 681.39 639.87   A 7.50 7.50 0.0 0 0 688.89 632.37   Z   M 354.64 634.42   A 7.54 7.54 0.0 0 0 347.10 626.88   A 7.54 7.54 0.0 0 0 339.56 634.42   A 7.54 7.54 0.0 0 0 347.10 641.96   A 7.54 7.54 0.0 0 0 354.64 634.42   Z   M 574.03 725.40   A 7.44 7.44 0.0 0 0 566.59 717.96   A 7.44 7.44 0.0 0 0 559.15 725.40   A 7.44 7.44 0.0 0 0 566.59 732.84   A 7.44 7.44 0.0 0 0 574.03 725.40   Z   M 441.67 726.29   A 4.04 4.04 0.0 0 0 437.63 722.25   L 325.13 722.25   A 4.04 4.04 0.0 0 0 321.09 726.29   L 321.09 726.77   A 4.04 4.04 0.0 0 0 325.13 730.81   L 437.63 730.81   A 4.04 4.04 0.0 0 0 441.67 726.77   L 441.67 726.29   Z   M 601.70 747.37   A 2.36 2.36 0.0 0 0 599.34 745.01   L 536.16 745.01   A 2.36 2.36 0.0 0 0 533.80 747.37   L 533.80 747.89   A 2.36 2.36 0.0 0 0 536.16 750.25   L 599.34 750.25   A 2.36 2.36 0.0 0 0 601.70 747.89   L 601.70 747.37   Z   M 422.4203 750.0334   A 4.11 4.11 0.0 0 0 418.3175 745.9162   L 330.9776 745.7638   A 4.11 4.11 0.0 0 0 326.8605 749.8666   L 326.8597 750.3066   A 4.11 4.11 0.0 0 0 330.9625 754.4238   L 418.3024 754.5762   A 4.11 4.11 0.0 0 0 422.4195 750.4734   L 422.4203 750.0334   Z"
     id="path174" />
  <path
     fill="#cac7d6"
     d="   M 718.57 389.76   Q 718.42 388.97 716.76 386.50   C 701.74 364.14 684.82 346.64 666.74 328.43   L 704.15 328.14   A 1.02 1.02 0.0 0 0 705.07 327.52   Q 706.14 324.99 704.25 323.20   Q 703.90 322.86 703.40 322.86   L 662.14 322.98   Q 662.22 322.89 662.30 322.81   Q 648.17 310.11 636.43 295.03   Q 641.77 297.04 647.75 297.17   C 657.39 297.39 667.22 298.80 675.13 295.75   C 694.82 288.15 691.95 267.64 691.72 250.74   Q 691.71 250.04 692.37 250.25   C 708.33 255.29 718.30 267.80 718.29 284.55   Q 718.28 337.16 718.57 389.76   Z"
     id="path176" />
  <circle
     fill="#0e2251"
     cx="658.82"
     cy="265.53"
     r="12.14"
     id="circle178" />
  <rect
     fill="#64b170"
     x="-25.22"
     y="-2.78"
     transform="translate(440.53,279.22) rotate(0.1)"
     width="50.44"
     height="5.56"
     rx="2.18"
     id="rect180" />
  <path
     fill="#0e2251"
     d="   M 446.54 627.70   A 0.14 0.14 0.0 0 0 446.60 627.43   Q 373.88 592.37 343.02 517.97   Q 327.60 480.82 323.39 436.25   Q 323.34 435.81 323.76 435.97   C 377.12 456.58 435.33 488.79 465.13 539.95   A 0.14 0.14 0.0 0 0 465.39 539.83   C 456.83 513.82 454.95 489.42 455.51 461.25   C 456.80 396.99 479.60 335.11 511.80 280.18   Q 512.09 279.68 512.41 280.16   Q 513.40 281.64 515.03 284.45   C 551.20 346.86 572.10 415.93 568.39 488.27   C 567.47 506.30 564.30 523.26 558.35 540.07   A 0.25 0.24 70.4 0 0 558.79 540.28   C 590.62 487.85 645.98 457.08 701.36 435.52   Q 701.80 435.35 701.75 435.81   Q 698.05 474.62 684.27 511.12   Q 654.57 589.80 579.40 626.94   A 0.38 0.38 0.0 0 0 579.56 627.66   C 620.72 627.65 652.68 654.85 677.67 684.62   Q 678.04 685.06 677.47 685.18   C 626.75 696.28 568.06 701.46 524.03 667.14   A 0.42 0.42 0.0 0 0 523.35 667.51   Q 525.14 690.18 526.70 712.83   Q 527.44 723.50 526.92 725.78   C 523.59 740.48 496.49 739.06 497.78 720.26   Q 499.60 693.64 501.20 667.09   A 0.20 0.20 0.0 0 0 500.88 666.92   C 456.61 701.02 398.13 696.65 346.82 685.37   Q 346.41 685.28 346.67 684.94   C 371.95 653.39 405.14 627.63 446.54 627.70   Z   M 466.55 503.70   Q 470.25 529.65 480.51 556.75   Q 492.01 587.11 502.58 622.98   Q 502.67 623.29 502.42 623.56   Q 502.20 623.80 502.06 623.51   C 486.14 590.86 466.65 554.99 444.12 525.49   C 414.59 490.01 376.15 468.17 334.35 449.92   Q 333.88 449.72 333.96 450.22   C 341.22 498.43 358.81 544.29 393.67 579.10   Q 419.31 604.60 451.81 619.99   C 464.23 625.88 476.78 628.35 488.32 636.43   Q 489.93 637.56 487.96 637.50   Q 466.63 636.84 444.31 637.07   C 411.08 637.41 385.43 656.37 363.38 679.22   Q 363.16 679.44 363.46 679.50   C 398.61 686.01 430.89 687.44 464.44 676.37   C 482.51 670.40 495.55 660.12 509.58 648.89   A 0.46 0.46 0.0 0 1 510.32 649.26   C 509.93 673.02 508.04 696.80 506.46 720.52   C 505.87 729.46 518.92 728.59 518.51 722.25   C 516.93 697.75 515.19 673.30 514.01 648.78   Q 513.98 648.16 514.49 648.53   C 521.28 653.56 528.74 659.88 534.73 663.87   C 571.49 688.36 618.55 687.92 660.22 679.16   Q 660.63 679.07 660.34 678.76   C 642.97 660.29 621.42 643.27 596.15 638.40   C 578.53 635.01 556.86 637.23 539.00 639.80   Q 537.68 639.99 535.93 639.64   Q 535.36 639.52 535.85 639.21   Q 548.83 630.98 558.91 626.63   C 597.12 610.14 630.08 585.93 653.67 551.75   C 673.88 521.59 685.71 485.82 690.91 450.24   A 0.49 0.49 0.0 0 0 690.23 449.72   C 660.92 462.31 631.74 477.96 608.14 497.39   Q 581.90 519.14 565.05 546.81   Q 547.72 575.26 529.29 611.56   C 527.50 615.08 525.36 618.44 523.30 621.75   A 0.31 0.31 0.0 0 1 522.74 621.50   C 528.12 603.64 533.72 586.69 540.21 568.41   C 550.52 539.40 558.92 510.88 559.76 480.75   C 561.50 418.05 544.51 357.92 515.18 302.78   L 512.45 297.72   A 0.47 0.47 0.0 0 0 511.62 297.73   Q 504.89 311.09 498.54 324.51   C 475.57 373.01 462.43 425.93 464.13 479.81   Q 464.49 491.36 466.55 503.70   Z"
     id="path182" />
  <rect
     fill="#64b170"
     x="-5.07"
     y="-2.46"
     transform="translate(614.19,294.99) rotate(-0.3)"
     width="10.14"
     height="4.92"
     rx="1.36"
     id="rect184" />
  <path
     fill="#7fd469"
     d="   M 515.18 302.78   L 513.92 304.71   Q 513.65 305.12 513.67 305.61   C 513.99 313.03 513.22 320.14 513.03 327.73   Q 512.92 331.97 512.31 336.15   C 510.42 338.51 510.86 340.78 510.80 343.68   Q 510.19 374.93 509.58 406.30   Q 509.56 407.14 508.92 406.59   L 490.99 391.06   A 0.78 0.78 0.0 0 0 489.87 392.14   L 502.05 407.15   Q 498.25 420.35 494.68 432.93   Q 494.43 433.82 492.47 435.64   Q 491.27 434.25 490.21 434.29   Q 489.50 434.31 489.68 435.00   Q 490.26 437.23 491.91 439.11   Q 481.77 472.14 466.55 503.70   Q 464.49 491.36 464.13 479.81   C 462.43 425.93 475.57 373.01 498.54 324.51   Q 504.89 311.09 511.62 297.73   A 0.47 0.47 0.0 0 1 512.45 297.72   L 515.18 302.78   Z"
     id="path186" />
  <path
     fill="#64b170"
     d="   M 355.76 307.49   C 350.80 307.47 345.30 304.29 350.60 299.14   Q 350.95 298.79 351.46 298.77   Q 364.77 298.33 378.07 298.49   C 400.52 298.75 422.97 298.66 445.42 298.79   C 452.99 298.83 453.09 307.25 447.01 307.25   Q 424.63 307.24 402.25 307.26   Q 397.98 307.27 395.06 308.24   A 1.24 1.21 1.4 0 0 394.31 308.94   Q 393.03 312.24 393.64 315.91   C 394.60 321.70 398.13 321.18 403.40 321.26   Q 419.94 321.50 436.50 321.18   C 442.66 321.06 443.39 330.00 436.38 330.00   Q 387.80 330.00 339.22 330.01   C 336.11 330.01 332.97 329.31 333.30 325.60   C 333.66 321.55 336.58 321.38 339.94 321.34   Q 358.96 321.16 377.99 321.28   Q 381.53 321.30 383.20 319.99   C 386.38 317.51 387.32 311.10 383.70 308.55   C 380.45 306.26 360.75 307.50 355.76 307.49   Z"
     id="path188" />
  <path
     fill="#67c064"
     d="   M 515.18 302.78   C 544.51 357.92 561.50 418.05 559.76 480.75   C 558.92 510.88 550.52 539.40 540.21 568.41   C 533.72 586.69 528.12 603.64 522.74 621.50   A 0.31 0.31 0.0 0 0 523.30 621.75   C 525.36 618.44 527.50 615.08 529.29 611.56   Q 547.72 575.26 565.05 546.81   Q 581.90 519.14 608.14 497.39   C 608.43 498.46 608.77 499.16 609.93 499.49   Q 615.97 501.18 621.84 503.80   Q 620.82 506.91 620.49 508.75   Q 618.35 520.84 616.29 532.94   C 615.99 534.70 614.99 537.77 614.04 538.79   Q 602.20 551.53 590.40 564.32   Q 590.07 564.68 590.08 564.20   Q 590.57 550.63 590.53 537.05   C 590.53 535.83 590.88 533.40 590.34 531.78   A 1.10 1.10 0.0 0 0 588.20 531.98   Q 585.58 550.97 584.09 569.06   C 583.70 573.78 572.32 583.34 568.62 586.71   Q 568.36 586.95 568.41 586.60   L 571.86 561.78   A 1.01 1.01 0.0 0 0 569.94 561.24   Q 569.03 563.33 568.54 565.26   Q 565.06 579.05 561.75 592.87   C 561.41 594.31 560.56 596.03 559.69 596.94   Q 542.28 615.16 525.29 633.80   A 1.89 1.89 0.0 0 0 525.50 636.54   Q 527.40 638.08 529.23 636.22   Q 545.64 619.53 561.79 602.42   A 1.48 1.46 17.9 0 1 562.64 601.99   C 574.82 600.40 588.06 599.71 599.87 596.45   A 0.69 0.69 0.0 0 0 599.89 595.12   Q 598.30 594.62 596.25 594.68   Q 583.51 595.07 569.98 595.31   Q 568.47 595.34 569.51 594.24   L 585.11 577.88   A 5.22 5.20 14.2 0 1 587.57 576.42   Q 609.33 570.62 631.01 564.27   Q 633.18 563.63 634.45 563.02   A 0.38 0.37 33.3 0 0 634.30 562.31   Q 631.18 562.16 628.05 562.61   Q 611.14 565.03 594.25 568.34   Q 593.59 568.47 594.05 567.99   Q 602.40 559.35 610.25 550.26   Q 612.42 547.75 615.25 547.02   Q 630.63 543.08 643.24 538.64   Q 642.64 539.80 642.74 540.90   Q 642.79 541.42 643.17 541.78   C 644.14 542.73 644.68 543.74 645.84 544.55   Q 648.15 546.17 649.15 548.87   Q 649.31 549.33 649.71 549.62   L 650.68 550.31   Q 651.06 550.58 651.09 551.05   Q 651.17 552.43 653.67 551.75   C 630.08 585.93 597.12 610.14 558.91 626.63   Q 548.83 630.98 535.85 639.21   Q 535.36 639.52 535.93 639.64   Q 537.68 639.99 539.00 639.80   C 556.86 637.23 578.53 635.01 596.15 638.40   C 621.42 643.27 642.97 660.29 660.34 678.76   Q 660.63 679.07 660.22 679.16   C 618.55 687.92 571.49 688.36 534.73 663.87   C 528.74 659.88 521.28 653.56 514.49 648.53   Q 513.98 648.16 514.01 648.78   C 515.19 673.30 516.93 697.75 518.51 722.25   C 518.92 728.59 505.87 729.46 506.46 720.52   C 508.04 696.80 509.93 673.02 510.32 649.26   A 0.46 0.46 0.0 0 0 509.58 648.89   C 495.55 660.12 482.51 670.40 464.44 676.37   C 430.89 687.44 398.61 686.01 363.46 679.50   Q 363.16 679.44 363.38 679.22   C 385.43 656.37 411.08 637.41 444.31 637.07   Q 466.63 636.84 487.96 637.50   Q 489.93 637.56 488.32 636.43   C 476.78 628.35 464.23 625.88 451.81 619.99   Q 419.31 604.60 393.67 579.10   L 394.14 577.04   Q 394.18 576.84 394.00 576.75   L 393.38 576.45   Q 393.12 576.33 393.12 576.04   Q 393.12 575.90 393.17 575.77   Q 393.26 575.57 393.54 575.47   Q 397.07 574.24 400.67 575.25   Q 401.17 575.39 401.68 575.27   Q 402.89 574.98 404.07 575.01   Q 404.56 575.03 404.96 574.74   Q 405.84 574.11 406.82 573.63   Q 407.30 573.40 407.49 573.14   Q 407.75 572.77 407.77 572.26   Q 407.77 572.14 408.20 571.45   Q 408.48 571.00 408.91 570.99   Q 409.33 570.99 409.62 570.70   L 410.81 569.55   Q 422.01 572.86 433.53 575.51   C 436.18 576.12 439.17 577.23 440.80 578.95   Q 448.34 586.91 455.81 594.64   A 0.55 0.55 0.0 0 1 455.41 595.57   Q 440.25 595.28 425.00 594.99   Q 424.25 594.97 423.93 595.29   A 0.75 0.75 0.0 0 0 424.23 596.54   Q 428.06 597.75 432.24 598.35   Q 446.30 600.38 460.41 601.99   Q 462.60 602.24 463.40 603.09   Q 479.59 620.33 495.66 636.83   A 2.19 2.18 -41.4 0 0 498.59 637.01   C 500.30 635.63 500.43 634.29 498.88 632.64   Q 482.29 614.82 465.40 597.29   C 464.25 596.10 463.41 594.66 463.07 593.19   Q 459.45 577.48 454.94 562.02   Q 454.68 561.11 454.24 560.61   A 0.51 0.51 0.0 0 0 453.35 560.95   Q 453.52 573.75 455.87 586.33   Q 455.99 587.01 455.49 586.54   Q 447.87 579.46 441.36 571.34   A 2.01 1.97 -69.2 0 1 440.94 570.38   L 436.02 538.68   L 441.29 526.67   Q 441.50 526.21 441.99 526.08   L 444.12 525.49   C 466.65 554.99 486.14 590.86 502.06 623.51   Q 502.20 623.80 502.42 623.56   Q 502.67 623.29 502.58 622.98   Q 492.01 587.11 480.51 556.75   Q 470.25 529.65 466.55 503.70   Q 481.77 472.14 491.91 439.11   L 509.46 457.47   Q 509.83 457.86 509.83 458.41   L 509.66 492.94   A 0.57 0.55 18.9 0 1 508.75 493.37   Q 500.22 486.93 491.39 480.38   Q 488.32 478.10 485.00 476.84   A 0.51 0.51 0.0 0 0 484.43 477.65   C 491.30 485.78 500.39 493.20 508.51 500.69   Q 509.76 501.85 509.76 503.55   L 509.73 541.75   Q 509.72 543.46 508.45 542.32   L 488.41 524.49   Q 487.13 523.35 487.14 525.06   Q 487.15 527.25 490.68 531.08   Q 499.86 541.03 509.39 550.82   Q 509.82 551.27 509.81 551.88   L 509.31 582.68   A 0.55 0.55 0.0 0 1 508.38 583.06   Q 500.43 575.20 491.37 568.67   Q 490.78 568.25 490.94 568.95   C 492.25 574.60 502.85 584.17 507.16 588.34   Q 509.14 590.25 509.23 591.75   Q 509.57 597.24 508.96 612.25   Q 508.83 615.50 509.85 619.32   Q 509.99 619.85 510.53 619.95   Q 512.47 620.33 514.15 619.54   A 1.12 1.11 -7.0 0 0 514.77 618.75   C 516.35 610.48 515.25 601.00 515.22 592.49   A 1.26 1.23 67.6 0 1 515.57 591.62   C 521.45 585.43 530.30 577.74 534.23 570.28   A 0.51 0.51 0.0 0 0 533.57 569.57   C 527.58 572.29 521.26 579.08 516.13 583.42   A 0.52 0.51 69.7 0 1 515.28 583.02   L 515.23 551.34   Q 515.23 550.88 515.57 550.55   Q 526.87 539.53 537.08 527.49   C 537.92 526.49 538.54 525.17 539.10 524.04   A 0.87 0.86 82.7 0 0 537.76 523.00   L 516.28 541.83   A 0.53 0.52 -20.8 0 1 515.41 541.44   L 515.18 502.62   A 2.01 1.99 68.3 0 1 515.80 501.17   L 540.13 477.91   A 0.95 0.95 0.0 0 0 539.19 476.31   Q 538.20 476.63 536.83 477.59   Q 526.15 485.05 516.13 493.07   A 0.45 0.44 70.5 0 1 515.41 492.72   L 515.18 457.80   A 0.97 0.96 67.1 0 1 515.45 457.13   C 522.87 449.47 529.84 441.99 536.48 433.66   A 0.77 0.77 0.0 0 0 535.38 432.59   L 515.98 449.01   A 0.40 0.40 0.0 0 1 515.32 448.71   L 515.09 415.02   A 2.92 2.89 67.6 0 1 515.95 412.93   C 522.58 406.27 529.74 399.01 534.75 390.97   A 0.60 0.60 0.0 0 0 534.02 390.10   Q 532.52 390.69 531.11 391.87   Q 523.56 398.17 516.48 404.62   A 0.61 0.61 0.0 0 1 515.46 404.18   Q 515.13 375.55 515.25 346.84   C 515.26 344.25 515.95 336.43 512.31 336.15   Q 512.92 331.97 513.03 327.73   C 513.22 320.14 513.99 313.03 513.67 305.61   Q 513.65 305.12 513.92 304.71   L 515.18 302.78   Z   M 443.18 662.17   L 433.66 676.92   Q 433.31 677.47 433.96 677.47   C 438.43 677.50 447.71 664.72 450.60 661.10   C 453.05 658.03 470.01 654.90 473.45 654.43   A 0.46 0.45 -78.4 0 1 473.90 655.12   L 465.42 669.22   A 0.68 0.68 0.0 0 0 466.34 670.17   C 471.61 667.17 477.26 658.03 480.68 653.55   A 5.96 5.93 -80.1 0 1 483.61 651.48   Q 488.66 649.89 494.33 648.18   C 496.11 647.64 497.18 646.71 496.32 644.75   A 1.90 1.90 0.0 0 0 494.15 643.66   Q 480.77 646.71 467.87 650.78   Q 462.85 652.37 459.30 650.74   Q 447.13 645.16 434.42 641.35   A 0.26 0.26 0.0 0 0 434.19 641.80   Q 442.92 648.67 453.06 653.20   Q 453.81 653.54 453.03 653.80   C 447.44 655.72 436.03 659.26 430.39 657.37   C 426.15 655.95 413.36 651.11 409.72 652.29   Q 407.82 652.91 409.50 654.00   Q 415.20 657.71 421.77 660.08   Q 423.99 660.89 421.68 661.40   C 410.67 663.85 399.45 665.76 388.98 669.44   A 2.39 2.38 -85.7 0 0 387.64 670.60   C 386.35 673.04 388.55 674.14 390.54 673.75   Q 401.27 671.66 412.30 668.86   A 0.49 0.49 0.0 0 1 412.83 669.61   L 407.07 678.06   A 0.27 0.27 0.0 0 0 407.34 678.48   C 411.48 677.72 415.91 671.41 418.36 668.15   A 1.82 1.78 8.7 0 1 419.25 667.51   Q 430.89 663.82 442.93 661.80   Q 443.48 661.71 443.18 662.17   Z   M 612.01 668.53   C 619.91 670.10 627.68 673.39 635.72 673.95   A 2.04 2.03 60.8 0 0 636.80 670.12   C 633.50 668.39 629.95 667.20 625.95 666.33   Q 614.30 663.80 602.76 660.89   A 0.37 0.37 0.0 0 1 602.72 660.18   C 607.03 658.56 612.08 656.44 615.93 653.71   A 1.06 1.06 0.0 0 0 615.06 651.82   Q 605.59 654.16 597.41 656.69   C 589.98 658.99 580.05 656.67 572.89 654.01   Q 572.28 653.78 572.83 653.45   C 577.83 650.44 585.60 647.01 589.64 643.01   A 0.38 0.38 0.0 0 0 589.28 642.37   Q 577.29 645.00 566.51 650.37   C 560.70 653.26 542.72 646.92 536.41 644.82   C 534.12 644.05 527.42 642.28 527.71 646.87   A 2.10 2.09 3.2 0 0 529.43 648.79   C 535.81 649.94 541.54 650.17 545.70 655.80   C 548.43 659.48 553.89 667.03 558.42 669.67   A 0.69 0.68 -0.7 0 0 559.35 668.72   L 550.82 654.90   A 0.60 0.60 0.0 0 1 551.49 654.00   L 571.52 659.40   A 4.78 4.77 79.2 0 1 574.11 661.16   C 577.87 666.23 583.61 673.62 589.15 676.75   A 0.74 0.73 87.9 0 0 590.12 675.70   L 581.33 662.42   A 0.56 0.56 0.0 0 1 581.91 661.56   Q 591.05 663.58 600.29 665.86   C 605.99 667.27 609.13 672.78 613.08 676.58   C 613.87 677.33 615.54 678.09 616.49 677.96   Q 617.70 677.81 617.00 676.81   L 611.59 669.17   Q 610.98 668.32 612.01 668.53   Z"
     id="path190" />
  <path
     fill="#64b170"
     d="   M 662.30 322.81   Q 662.22 322.89 662.14 322.98   L 665.33 326.16   A 0.60 0.60 0.0 0 1 665.36 326.98   L 664.78 327.65   A 0.36 0.36 0.0 0 0 665.01 328.24   L 666.74 328.43   Q 622.38 328.54 578.00 328.47   C 574.28 328.47 574.10 322.74 578.81 322.75   Q 620.18 322.92 662.30 322.81   Z"
     id="path192" />
  <path
     fill="#287d61"
     d="   M 666.74 328.43   L 665.01 328.24   A 0.36 0.36 0.0 0 1 664.78 327.65   L 665.36 326.98   A 0.60 0.60 0.0 0 0 665.33 326.16   L 662.14 322.98   L 703.40 322.86   Q 703.90 322.86 704.25 323.20   Q 706.14 324.99 705.07 327.52   A 1.02 1.02 0.0 0 1 704.15 328.14   L 666.74 328.43   Z"
     id="path194" />
  <path
     fill="#287d61"
     d="   M 512.31 336.15   C 515.95 336.43 515.26 344.25 515.25 346.84   Q 515.13 375.55 515.46 404.18   A 0.61 0.61 0.0 0 0 516.48 404.62   Q 523.56 398.17 531.11 391.87   Q 532.52 390.69 534.02 390.10   A 0.60 0.60 0.0 0 1 534.75 390.97   C 529.74 399.01 522.58 406.27 515.95 412.93   A 2.92 2.89 67.6 0 0 515.09 415.02   L 515.32 448.71   A 0.40 0.40 0.0 0 0 515.98 449.01   L 535.38 432.59   A 0.77 0.77 0.0 0 1 536.48 433.66   C 529.84 441.99 522.87 449.47 515.45 457.13   A 0.97 0.96 67.1 0 0 515.18 457.80   L 515.41 492.72   A 0.45 0.44 70.5 0 0 516.13 493.07   Q 526.15 485.05 536.83 477.59   Q 538.20 476.63 539.19 476.31   A 0.95 0.95 0.0 0 1 540.13 477.91   L 515.80 501.17   A 2.01 1.99 68.3 0 0 515.18 502.62   L 515.41 541.44   A 0.53 0.52 -20.8 0 0 516.28 541.83   L 537.76 523.00   A 0.87 0.86 82.7 0 1 539.10 524.04   C 538.54 525.17 537.92 526.49 537.08 527.49   Q 526.87 539.53 515.57 550.55   Q 515.23 550.88 515.23 551.34   L 515.28 583.02   A 0.52 0.51 69.7 0 0 516.13 583.42   C 521.26 579.08 527.58 572.29 533.57 569.57   A 0.51 0.51 0.0 0 1 534.23 570.28   C 530.30 577.74 521.45 585.43 515.57 591.62   A 1.26 1.23 67.6 0 0 515.22 592.49   C 515.25 601.00 516.35 610.48 514.77 618.75   A 1.12 1.11 -7.0 0 1 514.15 619.54   Q 512.47 620.33 510.53 619.95   Q 509.99 619.85 509.85 619.32   Q 508.83 615.50 508.96 612.25   Q 509.57 597.24 509.23 591.75   Q 509.14 590.25 507.16 588.34   C 502.85 584.17 492.25 574.60 490.94 568.95   Q 490.78 568.25 491.37 568.67   Q 500.43 575.20 508.38 583.06   A 0.55 0.55 0.0 0 0 509.31 582.68   L 509.81 551.88   Q 509.82 551.27 509.39 550.82   Q 499.86 541.03 490.68 531.08   Q 487.15 527.25 487.14 525.06   Q 487.13 523.35 488.41 524.49   L 508.45 542.32   Q 509.72 543.46 509.73 541.75   L 509.76 503.55   Q 509.76 501.85 508.51 500.69   C 500.39 493.20 491.30 485.78 484.43 477.65   A 0.51 0.51 0.0 0 1 485.00 476.84   Q 488.32 478.10 491.39 480.38   Q 500.22 486.93 508.75 493.37   A 0.57 0.55 18.9 0 0 509.66 492.94   L 509.83 458.41   Q 509.83 457.86 509.46 457.47   L 491.91 439.11   Q 490.26 437.23 489.68 435.00   Q 489.50 434.31 490.21 434.29   Q 491.27 434.25 492.47 435.64   L 508.33 449.56   A 0.80 0.79 20.8 0 0 509.65 448.97   L 509.79 415.54   A 1.06 1.05 23.3 0 0 509.48 414.77   L 502.05 407.15   L 489.87 392.14   A 0.78 0.78 0.0 0 1 490.99 391.06   L 508.92 406.59   Q 509.56 407.14 509.58 406.30   Q 510.19 374.93 510.80 343.68   C 510.86 340.78 510.42 338.51 512.31 336.15   Z"
     id="path196" />
  <path
     fill="#64b170"
     d="   M 294.74 342.49   Q 294.76 546.26 294.74 750.00   C 294.74 775.48 315.00 793.89 340.48 792.99   Q 343.10 793.70 352.00 795.01   C 404.03 802.69 442.87 809.45 477.72 812.58   Q 493.40 813.99 509.06 815.95   Q 404.46 816.05 300.00 815.99   C 288.38 815.98 278.36 813.68 274.20 801.80   Q 272.68 797.48 272.74 784.54   C 273.26 670.01 272.82 555.46 273.02 440.93   C 273.04 432.09 272.57 420.64 272.73 410.49   Q 273.23 412.21 272.97 414.19   A 0.28 0.27 3.6 0 0 273.25 414.50   Q 273.40 414.50 273.54 414.50   Q 273.88 414.49 273.96 414.16   C 280.35 389.02 284.43 373.67 291.89 351.71   C 292.77 349.10 293.21 345.41 294.74 342.49   Z"
     id="path198" />
  <circle
     fill="#64b170"
     cx="659.71"
     cy="365.52"
     r="7.48"
     id="circle200" />
  <rect
     fill="#64b170"
     x="337.23"
     y="362.26"
     width="55.22"
     height="5.50"
     rx="2.35"
     id="rect202" />
  <rect
     fill="#64b170"
     x="-27.07"
     y="-4.29"
     transform="translate(369.16,388.29) rotate(-0.1)"
     width="54.14"
     height="8.58"
     rx="3.86"
     id="rect204" />
  <rect
     fill="#287d61"
     x="-48.59"
     y="-4.32"
     transform="translate(649.16,398.56) rotate(-0.1)"
     width="97.18"
     height="8.64"
     rx="4.01"
     id="rect206" />
  <path
     fill="#67c064"
     d="   M 502.05 407.15   L 509.48 414.77   A 1.06 1.05 23.3 0 1 509.79 415.54   L 509.65 448.97   A 0.80 0.79 20.8 0 1 508.33 449.56   L 492.47 435.64   Q 494.43 433.82 494.68 432.93   Q 498.25 420.35 502.05 407.15   Z"
     id="path208" />
  <rect
     fill="#64b170"
     x="364.02"
     y="414.77"
     width="51.48"
     height="5.48"
     rx="2.08"
     id="rect210" />
  <rect
     fill="#287d61"
     x="606.11"
     y="419.00"
     width="40.88"
     height="8.80"
     rx="4.10"
     id="rect212" />
  <path
     fill="#7fd469"
     d="   M 444.12 525.49   L 441.99 526.08   Q 441.50 526.21 441.29 526.67   L 436.02 538.68   L 435.45 536.90   Q 435.21 536.16 434.87 536.86   Q 433.68 539.32 433.73 543.00   Q 433.87 552.72 434.11 562.62   A 0.32 0.32 0.0 0 1 433.56 562.86   Q 421.69 551.41 410.60 538.90   C 409.42 537.57 408.59 534.94 408.24 533.19   C 406.51 524.36 404.94 513.96 401.49 505.67   A 0.44 0.44 0.0 0 0 400.64 505.81   Q 399.91 516.44 401.73 526.94   Q 401.88 527.81 401.27 527.17   C 388.74 513.93 377.12 499.52 365.00 485.75   Q 361.77 482.08 357.99 479.00   A 0.49 0.49 0.0 0 0 357.23 479.58   Q 359.55 484.77 363.26 489.45   Q 371.77 500.19 380.52 510.76   A 0.34 0.34 0.0 0 1 380.20 511.31   C 376.48 510.63 371.69 509.18 367.92 509.88   A 0.61 0.61 0.0 0 0 367.75 511.02   Q 376.21 515.31 384.64 518.91   Q 388.91 520.73 389.98 522.02   Q 397.55 531.07 405.15 539.88   A 0.26 0.25 75.0 0 1 404.91 540.30   Q 391.49 537.68 378.50 535.02   Q 377.17 534.74 375.36 535.12   Q 374.65 535.27 375.26 535.68   Q 376.85 536.72 378.66 537.39   Q 393.35 542.88 408.45 547.12   C 411.01 547.84 412.96 548.83 414.62 550.64   Q 422.91 559.70 431.34 568.41   A 0.27 0.27 0.0 0 1 431.09 568.86   Q 412.95 564.84 394.50 562.17   Q 386.26 560.98 393.96 564.14   Q 400.10 566.66 410.81 569.55   L 409.62 570.70   Q 409.33 570.99 408.91 570.99   Q 408.48 571.00 408.20 571.45   Q 407.77 572.14 407.77 572.26   Q 407.75 572.77 407.49 573.14   Q 407.30 573.40 406.82 573.63   Q 405.84 574.11 404.96 574.74   Q 404.56 575.03 404.07 575.01   Q 402.89 574.98 401.68 575.27   Q 401.17 575.39 400.67 575.25   Q 397.07 574.24 393.54 575.47   Q 393.26 575.57 393.17 575.77   Q 393.12 575.90 393.12 576.04   Q 393.12 576.33 393.38 576.45   L 394.00 576.75   Q 394.18 576.84 394.14 577.04   L 393.67 579.10   C 358.81 544.29 341.22 498.43 333.96 450.22   Q 333.88 449.72 334.35 449.92   C 376.15 468.17 414.59 490.01 444.12 525.49   Z"
     id="path214" />
  <path
     fill="#7fd469"
     d="   M 653.67 551.75   Q 651.17 552.43 651.09 551.05   Q 651.06 550.58 650.68 550.31   L 649.71 549.62   Q 649.31 549.33 649.15 548.87   Q 648.15 546.17 645.84 544.55   C 644.68 543.74 644.14 542.73 643.17 541.78   Q 642.79 541.42 642.74 540.90   Q 642.64 539.80 643.24 538.64   L 650.38 536.12   A 0.57 0.57 0.0 0 0 650.23 535.01   Q 647.91 534.87 645.27 535.35   Q 633.01 537.57 620.81 539.72   A 0.30 0.30 0.0 0 1 620.53 539.23   Q 627.25 531.37 633.98 523.49   C 636.20 520.89 637.84 519.00 641.31 517.94   Q 650.03 515.27 658.06 511.09   A 0.72 0.72 0.0 0 0 657.64 509.74   L 644.47 511.39   A 0.21 0.21 0.0 0 1 644.28 511.04   Q 656.78 496.25 667.77 480.29   A 0.90 0.90 0.0 0 0 666.41 479.12   Q 662.55 482.80 659.90 485.89   Q 642.45 506.19 624.01 527.20   Q 623.00 528.36 623.10 526.82   C 623.56 519.81 625.15 509.90 623.15 503.03   Q 622.96 502.38 622.42 502.79   Q 622.11 503.02 621.84 503.80   Q 615.97 501.18 609.93 499.49   C 608.77 499.16 608.43 498.46 608.14 497.39   C 631.74 477.96 660.92 462.31 690.23 449.72   A 0.49 0.49 0.0 0 1 690.91 450.24   C 685.71 485.82 673.88 521.59 653.67 551.75   Z"
     id="path216" />
  <path
     fill="#287d61"
     d="   M 436.02 538.68   L 440.94 570.38   A 2.01 1.97 -69.2 0 0 441.36 571.34   Q 447.87 579.46 455.49 586.54   Q 455.99 587.01 455.87 586.33   Q 453.52 573.75 453.35 560.95   A 0.51 0.51 0.0 0 1 454.24 560.61   Q 454.68 561.11 454.94 562.02   Q 459.45 577.48 463.07 593.19   C 463.41 594.66 464.25 596.10 465.40 597.29   Q 482.29 614.82 498.88 632.64   C 500.43 634.29 500.30 635.63 498.59 637.01   A 2.19 2.18 -41.4 0 1 495.66 636.83   Q 479.59 620.33 463.40 603.09   Q 462.60 602.24 460.41 601.99   Q 446.30 600.38 432.24 598.35   Q 428.06 597.75 424.23 596.54   A 0.75 0.75 0.0 0 1 423.93 595.29   Q 424.25 594.97 425.00 594.99   Q 440.25 595.28 455.41 595.57   A 0.55 0.55 0.0 0 0 455.81 594.64   Q 448.34 586.91 440.80 578.95   C 439.17 577.23 436.18 576.12 433.53 575.51   Q 422.01 572.86 410.81 569.55   Q 400.10 566.66 393.96 564.14   Q 386.26 560.98 394.50 562.17   Q 412.95 564.84 431.09 568.86   A 0.27 0.27 0.0 0 0 431.34 568.41   Q 422.91 559.70 414.62 550.64   C 412.96 548.83 411.01 547.84 408.45 547.12   Q 393.35 542.88 378.66 537.39   Q 376.85 536.72 375.26 535.68   Q 374.65 535.27 375.36 535.12   Q 377.17 534.74 378.50 535.02   Q 391.49 537.68 404.91 540.30   A 0.26 0.25 75.0 0 0 405.15 539.88   Q 397.55 531.07 389.98 522.02   Q 388.91 520.73 384.64 518.91   Q 376.21 515.31 367.75 511.02   A 0.61 0.61 0.0 0 1 367.92 509.88   C 371.69 509.18 376.48 510.63 380.20 511.31   A 0.34 0.34 0.0 0 0 380.52 510.76   Q 371.77 500.19 363.26 489.45   Q 359.55 484.77 357.23 479.58   A 0.49 0.49 0.0 0 1 357.99 479.00   Q 361.77 482.08 365.00 485.75   C 377.12 499.52 388.74 513.93 401.27 527.17   Q 401.88 527.81 401.73 526.94   Q 399.91 516.44 400.64 505.81   A 0.44 0.44 0.0 0 1 401.49 505.67   C 404.94 513.96 406.51 524.36 408.24 533.19   C 408.59 534.94 409.42 537.57 410.60 538.90   Q 421.69 551.41 433.56 562.86   A 0.32 0.32 0.0 0 0 434.11 562.62   Q 433.87 552.72 433.73 543.00   Q 433.68 539.32 434.87 536.86   Q 435.21 536.16 435.45 536.90   L 436.02 538.68   Z"
     id="path218" />
  <path
     fill="#287d61"
     d="   M 643.24 538.64   Q 630.63 543.08 615.25 547.02   Q 612.42 547.75 610.25 550.26   Q 602.40 559.35 594.05 567.99   Q 593.59 568.47 594.25 568.34   Q 611.14 565.03 628.05 562.61   Q 631.18 562.16 634.30 562.31   A 0.38 0.37 33.3 0 1 634.45 563.02   Q 633.18 563.63 631.01 564.27   Q 609.33 570.62 587.57 576.42   A 5.22 5.20 14.2 0 0 585.11 577.88   L 569.51 594.24   Q 568.47 595.34 569.98 595.31   Q 583.51 595.07 596.25 594.68   Q 598.30 594.62 599.89 595.12   A 0.69 0.69 0.0 0 1 599.87 596.45   C 588.06 599.71 574.82 600.40 562.64 601.99   A 1.48 1.46 17.9 0 0 561.79 602.42   Q 545.64 619.53 529.23 636.22   Q 527.40 638.08 525.50 636.54   A 1.89 1.89 0.0 0 1 525.29 633.80   Q 542.28 615.16 559.69 596.94   C 560.56 596.03 561.41 594.31 561.75 592.87   Q 565.06 579.05 568.54 565.26   Q 569.03 563.33 569.94 561.24   A 1.01 1.01 0.0 0 1 571.86 561.78   L 568.41 586.60   Q 568.36 586.95 568.62 586.71   C 572.32 583.34 583.70 573.78 584.09 569.06   Q 585.58 550.97 588.20 531.98   A 1.10 1.10 0.0 0 1 590.34 531.78   C 590.88 533.40 590.53 535.83 590.53 537.05   Q 590.57 550.63 590.08 564.20   Q 590.07 564.68 590.40 564.32   Q 602.20 551.53 614.04 538.79   C 614.99 537.77 615.99 534.70 616.29 532.94   Q 618.35 520.84 620.49 508.75   Q 620.82 506.91 621.84 503.80   Q 622.11 503.02 622.42 502.79   Q 622.96 502.38 623.15 503.03   C 625.15 509.90 623.56 519.81 623.10 526.82   Q 623.00 528.36 624.01 527.20   Q 642.45 506.19 659.90 485.89   Q 662.55 482.80 666.41 479.12   A 0.90 0.90 0.0 0 1 667.77 480.29   Q 656.78 496.25 644.28 511.04   A 0.21 0.21 0.0 0 0 644.47 511.39   L 657.64 509.74   A 0.72 0.72 0.0 0 1 658.06 511.09   Q 650.03 515.27 641.31 517.94   C 637.84 519.00 636.20 520.89 633.98 523.49   Q 627.25 531.37 620.53 539.23   A 0.30 0.30 0.0 0 0 620.81 539.72   Q 633.01 537.57 645.27 535.35   Q 647.91 534.87 650.23 535.01   A 0.57 0.57 0.0 0 1 650.38 536.12   L 643.24 538.64   Z"
     id="path220" />
  <rect
     fill="#64b170"
     x="-18.82"
     y="-4.33"
     transform="translate(666.82,606.42) rotate(-0.2)"
     width="37.64"
     height="8.66"
     rx="3.90"
     id="rect222" />
  <rect
     fill="#64b170"
     x="324.74"
     y="602.52"
     width="34.18"
     height="8.74"
     rx="3.99"
     id="rect224" />
  <circle
     fill="#64b170"
     cx="681.39"
     cy="632.37"
     r="7.50"
     id="circle226" />
  <circle
     fill="#64b170"
     cx="347.10"
     cy="634.42"
     r="7.54"
     id="circle228" />
  <path
     fill="#287d61"
     d="   M 442.93 661.80   Q 430.89 663.82 419.25 667.51   A 1.82 1.78 8.7 0 0 418.36 668.15   C 415.91 671.41 411.48 677.72 407.34 678.48   A 0.27 0.27 0.0 0 1 407.07 678.06   L 412.83 669.61   A 0.49 0.49 0.0 0 0 412.30 668.86   Q 401.27 671.66 390.54 673.75   C 388.55 674.14 386.35 673.04 387.64 670.60   A 2.39 2.38 -85.7 0 1 388.98 669.44   C 399.45 665.76 410.67 663.85 421.68 661.40   Q 423.99 660.89 421.77 660.08   Q 415.20 657.71 409.50 654.00   Q 407.82 652.91 409.72 652.29   C 413.36 651.11 426.15 655.95 430.39 657.37   C 436.03 659.26 447.44 655.72 453.03 653.80   Q 453.81 653.54 453.06 653.20   Q 442.92 648.67 434.19 641.80   A 0.26 0.26 0.0 0 1 434.42 641.35   Q 447.13 645.16 459.30 650.74   Q 462.85 652.37 467.87 650.78   Q 480.77 646.71 494.15 643.66   A 1.90 1.90 0.0 0 1 496.32 644.75   C 497.18 646.71 496.11 647.64 494.33 648.18   Q 488.66 649.89 483.61 651.48   A 5.96 5.93 -80.1 0 0 480.68 653.55   C 477.26 658.03 471.61 667.17 466.34 670.17   A 0.68 0.68 0.0 0 1 465.42 669.22   L 473.90 655.12   A 0.46 0.45 -78.4 0 0 473.45 654.43   C 470.01 654.90 453.05 658.03 450.60 661.10   C 447.71 664.72 438.43 677.50 433.96 677.47   Q 433.31 677.47 433.66 676.92   L 443.18 662.17   Q 443.48 661.71 442.93 661.80   Z"
     id="path230" />
  <path
     fill="#287d61"
     d="   M 611.59 669.17   L 617.00 676.81   Q 617.70 677.81 616.49 677.96   C 615.54 678.09 613.87 677.33 613.08 676.58   C 609.13 672.78 605.99 667.27 600.29 665.86   Q 591.05 663.58 581.91 661.56   A 0.56 0.56 0.0 0 0 581.33 662.42   L 590.12 675.70   A 0.74 0.73 87.9 0 1 589.15 676.75   C 583.61 673.62 577.87 666.23 574.11 661.16   A 4.78 4.77 79.2 0 0 571.52 659.40   L 551.49 654.00   A 0.60 0.60 0.0 0 0 550.82 654.90   L 559.35 668.72   A 0.69 0.68 -0.7 0 1 558.42 669.67   C 553.89 667.03 548.43 659.48 545.70 655.80   C 541.54 650.17 535.81 649.94 529.43 648.79   A 2.10 2.09 3.2 0 1 527.71 646.87   C 527.42 642.28 534.12 644.05 536.41 644.82   C 542.72 646.92 560.70 653.26 566.51 650.37   Q 577.29 645.00 589.28 642.37   A 0.38 0.38 0.0 0 1 589.64 643.01   C 585.60 647.01 577.83 650.44 572.83 653.45   Q 572.28 653.78 572.89 654.01   C 580.05 656.67 589.98 658.99 597.41 656.69   Q 605.59 654.16 615.06 651.82   A 1.06 1.06 0.0 0 1 615.93 653.71   C 612.08 656.44 607.03 658.56 602.72 660.18   A 0.37 0.37 0.0 0 0 602.76 660.89   Q 614.30 663.80 625.95 666.33   C 629.95 667.20 633.50 668.39 636.80 670.12   A 2.04 2.03 60.8 0 1 635.72 673.95   C 627.68 673.39 619.91 670.10 612.01 668.53   Q 610.98 668.32 611.59 669.17   Z"
     id="path232" />
  <path
     fill="#cac7d6"
     d="   M 718.45 648.97   C 718.03 651.69 718.53 654.85 718.51 657.01   Q 718.10 701.77 718.27 746.53   Q 718.30 754.35 717.21 758.36   C 714.09 769.77 705.47 779.12 694.28 782.64   Q 689.78 784.05 681.06 784.11   Q 634.51 784.40 587.56 784.20   C 646.44 756.67 692.28 710.81 717.10 650.57   Q 717.46 649.68 718.45 648.97   Z   M 670.1808 754.2235   A 1.95 1.95 0.0 0 0 668.2004 752.3043   L 655.9820 752.4963   A 1.95 1.95 0.0 0 0 654.0628 754.4767   L 654.0792 755.5165   A 1.95 1.95 0.0 0 0 656.0596 757.4357   L 668.2780 757.2437   A 1.95 1.95 0.0 0 0 670.1972 755.2633   L 670.1808 754.2235   Z"
     id="path234" />
  <circle
     fill="#64b170"
     cx="566.59"
     cy="725.40"
     r="7.44"
     id="circle236" />
  <rect
     fill="#287d61"
     x="321.09"
     y="722.25"
     width="120.58"
     height="8.56"
     rx="4.04"
     id="rect238" />
  <rect
     fill="#287d61"
     x="533.80"
     y="745.01"
     width="67.90"
     height="5.24"
     rx="2.36"
     id="rect240" />
  <rect
     fill="#287d61"
     x="-47.78"
     y="-4.33"
     transform="translate(374.64,750.17) rotate(0.1)"
     width="95.56"
     height="8.66"
     rx="4.11"
     id="rect242" />
  <rect
     fill="#287d61"
     x="-8.06"
     y="-2.47"
     transform="translate(662.13,754.87) rotate(-0.9)"
     width="16.12"
     height="4.94"
     rx="1.95"
     id="rect244" />
</svg>
