<?xml version="1.0" encoding="UTF-8" standalone="no"?>
<svg
   xmlns:dc="http://purl.org/dc/elements/1.1/"
   xmlns:cc="http://creativecommons.org/ns#"
   xmlns:rdf="http://www.w3.org/1999/02/22-rdf-syntax-ns#"
   xmlns:svg="http://www.w3.org/2000/svg"
   xmlns="http://www.w3.org/2000/svg"
   xmlns:sodipodi="http://sodipodi.sourceforge.net/DTD/sodipodi-0.dtd"
   xmlns:inkscape="http://www.inkscape.org/namespaces/inkscape"
   version="1.1"
   viewBox="0.00 0.00 1024.00 1024.00"
   id="svg294"
   sodipodi:docname="certificate-waiting.svg"
   inkscape:export-filename="C:\Users\keega\OneDrive\Cannlytics\assets\images\ai\midjourney-icons\certificate-waiting.png"
   inkscape:export-xdpi="96"
   inkscape:export-ydpi="96"
   inkscape:version="1.0.1 (3bc2e813f5, 2020-09-07)">
  <metadata
     id="metadata300">
    <rdf:RDF>
      <cc:Work
         rdf:about="">
        <dc:format>image/svg+xml</dc:format>
        <dc:type
           rdf:resource="http://purl.org/dc/dcmitype/StillImage" />
        <dc:title></dc:title>
      </cc:Work>
    </rdf:RDF>
  </metadata>
  <defs
     id="defs298" />
  <sodipodi:namedview
     pagecolor="#ffffff"
     bordercolor="#666666"
     borderopacity="1"
     objecttolerance="10"
     gridtolerance="10"
     guidetolerance="10"
     inkscape:pageopacity="0"
     inkscape:pageshadow="2"
     inkscape:window-width="1920"
     inkscape:window-height="1094"
     id="namedview296"
     showgrid="false"
     inkscape:zoom="0.73535156"
     inkscape:cx="512"
     inkscape:cy="457.60425"
     inkscape:window-x="-11"
     inkscape:window-y="-11"
     inkscape:window-maximized="1"
     inkscape:current-layer="svg294" />
  <g
     stroke-width="2.00"
     fill="none"
     stroke-linecap="butt"
     id="g182">
    <path
       stroke="#e8ebfa"
       vector-effect="non-scaling-stroke"
       d="   M 286.57 822.98   Q 285.58 827.48 285.52 832.32   Q 285.45 837.99 287.49 841.28   C 290.73 846.51 295.17 847.20 301.46 847.21   Q 532.35 847.38 763.25 847.14   C 772.01 847.13 774.75 841.84 774.75 833.85   Q 774.75 646.00 774.75 458.15   A 1.13 1.13 0.0 0 1 775.17 457.27   C 787.34 447.74 787.56 431.40 775.14 421.83   Q 774.75 421.53 774.75 421.03   Q 774.75 333.08 774.74 245.14   Q 774.74 237.50 773.36 234.71   C 769.86 227.63 761.22 228.61 754.21 230.02"
       id="path2" />
    <path
       stroke="#8b96a8"
       vector-effect="non-scaling-stroke"
       d="   M 754.21 230.02   C 754.30 218.51 757.25 206.50 741.15 206.73   Q 733.35 206.84 725.31 206.71   A 0.78 0.78 0.0 0 1 724.60 206.22   C 701.70 149.02 623.14 148.58 600.92 206.23   Q 600.75 206.68 600.27 206.68   C 492.56 206.94 384.84 206.58 277.12 206.80   C 262.36 206.83 264.50 215.11 264.50 226.48   Q 264.50 519.61 264.50 812.74   C 264.50 821.06 268.97 822.79 276.74 822.73   Q 281.95 822.70 286.57 822.98"
       id="path4" />
    <path
       stroke="#7382a3"
       vector-effect="non-scaling-stroke"
       d="   M 754.21 230.02   C 754.35 423.86 754.08 617.71 754.30 811.56   C 754.31 819.39 750.75 823.29 742.49 823.03   Q 731.03 822.67 698.75 822.74   Q 508.16 823.13 317.56 823.11   Q 302.61 823.10 286.57 822.98"
       id="path6" />
    <path
       stroke="#275366"
       vector-effect="non-scaling-stroke"
       d="   M 613.88 257.52   C 625.45 275.87 644.74 286.81 666.33 285.51   C 692.87 283.92 714.68 265.02 719.49 238.79   C 726.01 203.24 698.25 171.34 662.49 171.29   C 618.52 171.23 589.87 219.46 613.88 257.52"
       id="path8" />
    <path
       stroke="#234a62"
       vector-effect="non-scaling-stroke"
       d="   M 745.01 473.29   L 745.16 431.76   A 0.24 0.23 -36.3 0 0 744.70 431.69   Q 740.49 445.46 726.84 449.49   A 0.28 0.28 0.0 0 0 726.64 449.76   Q 725.93 543.72 726.53 637.73   C 726.58 644.29 725.16 648.73 719.13 651.25   C 716.41 652.38 712.92 652.00 709.92 652.00   Q 708.91 652.00 708.92 653.00   C 709.35 693.71 708.73 733.93 709.10 774.39   C 709.18 782.66 708.98 790.69 698.32 790.57   C 659.28 790.14 620.28 790.52 581.25 790.46   Q 488.03 790.30 394.81 790.50   C 366.86 790.55 338.97 790.05 311.02 790.67"
       id="path10" />
    <path
       stroke="#31686a"
       vector-effect="non-scaling-stroke"
       d="   M 311.02 790.67   C 302.82 791.15 293.85 791.19 293.83 781.00   Q 293.64 703.78 293.87 626.56   C 293.97 593.56 294.22 562.53 293.82 527.44   C 293.48 496.96 294.24 453.00 293.86 405.50   C 293.46 355.25 293.79 304.96 294.04 254.70   C 294.07 247.75 296.41 243.82 303.81 243.81   Q 451.23 243.60 598.63 243.91   Q 599.18 243.91 599.05 243.38   Q 595.87 229.81 598.10 216.05   Q 598.21 215.40 597.55 215.40   C 486.55 215.79 381.71 215.89 273.80 215.71   Q 273.26 215.71 273.26 216.25   L 273.21 813.48   Q 273.21 814.00 273.73 814.00   L 744.49 814.00   A 0.75 0.75 0.0 0 0 745.24 813.25   L 745.01 473.29"
       id="path12" />
    <path
       stroke="#3d857a"
       vector-effect="non-scaling-stroke"
       d="   M 311.02 790.67   C 310.66 800.67 311.18 804.61 322.50 804.61   C 452.98 804.64 583.46 804.51 713.94 804.49   C 722.87 804.49 725.33 798.26 725.28 790.25   Q 724.97 733.47 725.50 676.69   Q 725.55 671.47 725.47 666.13   Q 725.46 665.55 726.04 665.54   C 730.88 665.43 736.33 665.65 737.06 659.30   C 737.62 654.42 737.51 650.73 737.52 646.39   Q 737.74 582.86 737.92 519.32   C 737.94 509.93 737.51 492.43 738.06 478.92   A 1.45 1.41 67.7 0 1 738.42 478.02   Q 741.07 475.07 745.01 473.29"
       id="path14" />
    <path
       stroke="#234a62"
       vector-effect="non-scaling-stroke"
       d="   M 728.79 229.35   Q 727.79 244.42 722.61 256.17   A 1.38 1.38 0.0 0 0 723.03 257.82   Q 728.54 262.01 728.45 269.00   Q 728.24 285.25 728.22 302.74"
       id="path16" />
    <path
       stroke="#31686a"
       vector-effect="non-scaling-stroke"
       d="   M 728.22 302.74   L 727.93 395.49   Q 727.93 396.02 728.42 396.24   Q 740.24 401.38 744.88 413.45   A 0.10 0.10 0.0 0 0 745.08 413.41   L 745.08 283.61"
       id="path18" />
    <path
       stroke="#234a62"
       vector-effect="non-scaling-stroke"
       d="   M 745.08 283.61   Q 745.72 270.37 744.76 257.03"
       id="path20" />
    <path
       stroke="#31686a"
       vector-effect="non-scaling-stroke"
       d="   M 744.76 257.03   L 745.19 216.84   A 1.24 1.24 0.0 0 0 743.97 215.59   L 728.30 215.46   Q 727.74 215.45 727.79 216.01   L 728.79 229.35"
       id="path22" />
    <path
       stroke="#3d857a"
       vector-effect="non-scaling-stroke"
       d="   M 744.76 257.03   Q 740.16 240.14 728.79 229.35"
       id="path24" />
    <path
       stroke="#3d857a"
       vector-effect="non-scaling-stroke"
       d="   M 745.08 283.61   Q 737.85 296.01 728.22 302.74"
       id="path26" />
    <path
       stroke="#68768f"
       vector-effect="non-scaling-stroke"
       d="   M 717.89 469.58   L 717.95 462.61"
       id="path28" />
    <path
       stroke="#8b919d"
       vector-effect="non-scaling-stroke"
       d="   M 717.95 462.61   L 717.98 443.08"
       id="path30" />
    <path
       stroke="#234a62"
       vector-effect="non-scaling-stroke"
       d="   M 717.98 443.08   C 721.60 442.19 725.37 441.82 728.43 439.98   Q 737.51 434.55 738.20 422.42"
       id="path32" />
    <path
       stroke="#275366"
       vector-effect="non-scaling-stroke"
       d="   M 738.20 422.42   Q 736.52 405.14 718.24 401.95"
       id="path34" />
    <path
       stroke="#8b919d"
       vector-effect="non-scaling-stroke"
       d="   M 718.24 401.95   L 718.24 388.57   A 4.85 4.83 -0.9 0 0 713.24 383.74   L 703.29 384.08   A 2.70 2.70 0.0 0 1 700.50 381.38   L 700.50 311.68"
       id="path36" />
    <path
       stroke="#68768f"
       vector-effect="non-scaling-stroke"
       d="   M 700.50 311.68   L 700.60 282.80   Q 700.60 282.26 700.14 282.55   C 674.65 298.71 643.10 296.73 619.92 277.06"
       id="path38" />
    <path
       stroke="#8b919d"
       vector-effect="non-scaling-stroke"
       d="   M 619.92 277.06   Q 608.93 267.19 602.38 252.91   Q 602.19 252.50 601.74 252.50   L 392.42 252.50   A 1.63 1.54 56.7 0 1 391.71 252.33   Q 391.44 252.20 391.24 252.20   Q 347.22 252.65 303.16 252.47   Q 302.51 252.47 302.51 253.11   L 302.52 781.69   A 0.67 0.67 0.0 0 0 303.19 782.36   C 407.19 781.82 511.19 782.61 615.18 782.06   C 643.25 781.91 671.33 782.42 699.15 782.17   Q 700.77 782.16 700.77 780.54   L 700.69 644.95   Q 700.69 644.37 701.24 644.20   C 705.19 642.96 709.73 643.89 713.24 643.77   C 720.56 643.52 717.98 634.78 717.99 630.17   Q 718.09 550.08 717.89 469.58"
       id="path40" />
    <path
       stroke="#dcdadb"
       vector-effect="non-scaling-stroke"
       d="   M 619.92 277.06   Q 623.10 284.36 628.78 289.74   Q 658.82 318.14 700.50 311.68"
       id="path42" />
    <path
       stroke="#9cb8b2"
       vector-effect="non-scaling-stroke"
       d="   M 718.24 401.95   L 718.23 421.83"
       id="path44" />
    <path
       stroke="#97aeae"
       vector-effect="non-scaling-stroke"
       d="   M 718.23 421.83   L 717.98 443.08"
       id="path46" />
    <path
       stroke="#dcdadb"
       vector-effect="non-scaling-stroke"
       d="   M 717.95 462.61   C 713.95 458.89 709.23 459.51 704.12 460.65   Q 700.52 461.46 697.90 463.81"
       id="path48" />
    <path
       stroke="#8b919d"
       vector-effect="non-scaling-stroke"
       d="   M 697.90 463.81   Q 699.67 457.51 700.89 451.23   C 702.77 441.49 692.78 442.39 686.99 444.23   Q 668.59 450.10 653.57 462.25   Q 653.17 462.57 652.67 462.45   C 650.29 461.85 648.12 461.59 645.81 462.84   Q 633.79 469.31 624.64 479.49   Q 624.30 479.87 623.96 479.49   Q 620.79 476.01 616.95 478.46   C 605.92 485.48 594.25 498.21 585.98 508.70   Q 585.66 509.11 585.20 508.89   L 581.33 507.07"
       id="path50" />
    <path
       stroke="#dcdadb"
       vector-effect="non-scaling-stroke"
       d="   M 581.33 507.07   Q 585.39 498.82 585.22 488.45   C 585.09 480.79 580.79 479.93 574.21 480.97   A 0.33 0.33 0.0 0 1 573.95 480.38   C 576.26 478.50 579.16 476.78 579.75 473.26   Q 582.04 459.54 581.23 445.70   C 580.97 441.32 579.76 438.32 575.46 437.17   Q 574.96 437.03 575.03 436.52   C 576.04 429.04 577.44 406.64 570.53 401.81   Q 570.10 401.51 570.15 400.98   Q 571.38 388.59 567.93 376.70   C 566.89 373.11 565.13 371.40 561.47 371.02   A 0.68 0.67 0.5 0 1 560.87 370.41   Q 560.08 362.29 556.51 355.00   C 555.18 352.29 553.00 352.42 552.33 348.81   Q 548.90 330.25 539.30 314.15   C 536.57 309.59 533.02 306.64 527.74 308.68"
       id="path52" />
    <path
       stroke="#8b919d"
       vector-effect="non-scaling-stroke"
       d="   M 527.74 308.68   C 525.55 303.24 518.59 285.51 513.64 283.99   Q 508.01 282.25 504.79 288.07   Q 491.31 312.47 485.67 339.84   Q 485.57 340.36 485.06 340.51   Q 479.97 342.09 478.43 348.44   Q 474.16 365.97 473.42 378.30   Q 473.39 378.77 472.92 378.81   Q 468.11 379.18 467.21 384.00   Q 463.96 401.39 465.51 419.25   A 0.72 0.72 0.0 0 1 464.68 420.02   C 458.68 419.02 457.47 423.18 457.46 428.21   C 457.43 440.51 459.56 451.50 462.07 463.20   A 0.48 0.48 0.0 0 1 461.59 463.78   C 454.41 463.64 453.85 468.53 454.58 474.43   Q 456.55 490.31 463.07 505.05   Q 463.29 505.53 462.85 505.83   Q 458.97 508.46 460.28 513.74   Q 464.05 529.00 468.29 542.23   Q 470.25 548.36 467.00 542.81   Q 457.74 527.03 444.30 510.71   Q 440.50 506.11 435.78 508.71   Q 435.34 508.95 435.04 508.55   Q 423.71 493.27 405.95 479.54   Q 401.30 475.95 397.06 478.86   A 0.70 0.69 -39.2 0 1 396.16 478.77   Q 386.25 468.42 375.73 462.50   Q 372.77 460.84 369.07 462.49   A 0.92 0.89 50.4 0 1 368.17 462.39   C 357.24 454.50 347.29 448.28 333.94 444.08   C 328.40 442.34 319.34 441.83 321.20 451.05   Q 324.66 468.24 330.57 481.94   Q 330.76 482.40 330.57 482.85   C 327.37 490.46 338.64 506.54 343.91 512.75   Q 344.25 513.14 343.92 513.53   Q 340.75 517.28 343.50 522.01   Q 350.84 534.61 361.13 544.53   A 0.91 0.91 0.0 0 1 361.06 545.90   Q 356.89 549.18 360.30 553.95   Q 363.51 558.43 370.81 566.18"
       id="path54" />
    <path
       stroke="#dcdadb"
       vector-effect="non-scaling-stroke"
       d="   M 370.81 566.18   Q 369.77 566.43 368.76 565.77   Q 368.27 565.44 368.23 566.03   C 367.82 571.36 376.56 578.25 379.51 581.00"
       id="path56" />
    <path
       stroke="#8b919d"
       vector-effect="non-scaling-stroke"
       d="   M 379.51 581.00   C 381.38 586.80 393.14 594.29 398.88 597.53"
       id="path58" />
    <path
       stroke="#dcdadb"
       vector-effect="non-scaling-stroke"
       d="   M 398.88 597.53   Q 394.46 598.71 393.44 603.21   A 1.25 1.23 -55.5 0 0 393.61 604.17   Q 395.28 606.74 398.57 609.43   Q 412.67 620.96 427.57 627.45   A 1.87 1.84 -37.0 0 0 428.55 627.58   Q 431.57 627.15 434.19 628.55"
       id="path60" />
    <path
       stroke="#8b919d"
       vector-effect="non-scaling-stroke"
       d="   M 434.19 628.55   Q 421.04 629.21 409.45 632.19   C 403.10 633.82 404.81 638.46 407.61 642.32   Q 408.00 642.86 407.34 642.92   Q 394.68 644.05 383.12 649.02   C 378.44 651.03 375.27 651.97 374.83 656.88   Q 374.79 657.39 375.10 657.80   Q 375.54 658.37 375.40 658.93   Q 375.26 659.47 374.43 659.83   Q 361.73 665.33 351.67 674.72   C 340.14 685.47 360.88 689.79 367.08 691.79"
       id="path62" />
    <path
       stroke="#dcdadb"
       vector-effect="non-scaling-stroke"
       d="   M 367.08 691.79   Q 362.62 693.78 362.14 697.59   C 361.26 704.50 379.46 709.66 384.52 711.10"
       id="path64" />
    <path
       stroke="#8b919d"
       vector-effect="non-scaling-stroke"
       d="   M 384.52 711.10   Q 369.19 711.34 354.48 711.27   C 349.87 711.25 350.41 716.05 353.75 716.03   Q 371.07 715.89 388.09 716.09"
       id="path66" />
    <path
       stroke="#dcdadb"
       vector-effect="non-scaling-stroke"
       d="   M 388.09 716.09   C 395.77 724.31 419.03 720.55 428.20 717.41   Q 437.44 714.24 446.60 710.78   Q 447.10 710.59 447.58 710.83   C 452.63 713.35 458.82 712.31 463.71 710.73   Q 482.64 704.59 500.26 693.19"
       id="path68" />
    <path
       stroke="#8b919d"
       vector-effect="non-scaling-stroke"
       d="   M 500.26 693.19   Q 500.25 713.70 500.24 735.27   C 500.24 743.83 508.20 747.81 515.85 745.94"
       id="path70" />
    <path
       stroke="#dcdadb"
       vector-effect="non-scaling-stroke"
       d="   M 515.85 745.94   C 515.62 749.67 515.25 754.16 516.74 757.47   C 522.30 769.85 539.65 766.08 539.72 751.75   Q 539.87 721.78 539.61 692.11   A 0.44 0.44 0.0 0 1 540.27 691.72   C 555.68 700.89 571.41 707.94 589.01 711.49   C 595.17 712.73 600.93 716.00 607.36 716.00   A 1.70 1.70 0.0 0 0 608.28 715.73   Q 611.52 713.69 614.66 714.97"
       id="path72" />
    <path
       stroke="#aed4a6"
       vector-effect="non-scaling-stroke"
       d="   M 614.66 714.97   C 613.02 717.95 616.07 718.68 618.28 718.79   C 628.25 719.27 638.28 719.15 648.12 719.91   Q 662.66 721.03 667.25 720.55   Q 669.77 720.28 669.07 717.64   A 0.75 0.75 0.0 0 0 668.49 717.10   C 661.62 715.75 654.41 716.27 647.31 715.69"
       id="path74" />
    <path
       stroke="#dcdadb"
       vector-effect="non-scaling-stroke"
       d="   M 647.31 715.69   Q 662.10 713.90 666.23 713.76   Q 670.87 713.60 670.84 709.60   A 1.74 1.74 0.0 0 1 672.14 707.90   Q 678.94 706.13 685.22 702.98   Q 685.78 702.70 686.04 702.14   C 688.08 697.89 684.94 696.43 681.39 694.11   Q 675.76 690.42 669.54 686.79"
       id="path76" />
    <path
       stroke="#8b919d"
       vector-effect="non-scaling-stroke"
       d="   M 669.54 686.79   C 676.58 682.88 674.63 678.37 669.65 674.09   Q 659.20 665.11 646.59 659.26   Q 646.08 659.02 646.24 658.48   C 647.28 654.91 645.60 653.07 642.49 651.36   Q 629.80 644.38 615.23 642.99   A 0.61 0.61 0.0 0 1 614.97 641.87   C 619.19 639.29 617.69 633.99 613.73 631.99"
       id="path78" />
    <path
       stroke="#dcdadb"
       vector-effect="non-scaling-stroke"
       d="   M 613.73 631.99   Q 622.57 628.36 631.10 624.96   C 633.58 623.98 637.84 622.50 636.94 619.78   A 1.81 1.80 -21.6 0 1 637.90 617.57   Q 649.50 612.20 659.59 603.88   C 664.29 600.00 661.12 596.93 657.76 594.39   Q 657.29 594.03 657.78 593.70   C 664.95 588.81 670.77 583.08 676.64 576.75   C 680.07 573.05 683.14 567.64 677.24 564.85   A 0.63 0.62 -52.7 0 1 677.10 563.81   Q 688.13 554.28 695.26 541.27   Q 698.48 535.40 693.41 532.17   Q 692.96 531.88 693.31 531.47   Q 702.91 520.34 708.36 506.63   Q 710.19 502.02 707.15 498.47   A 0.60 0.59 -41.2 0 1 707.21 497.64   Q 709.29 495.76 709.78 494.51   Q 712.81 486.77 717.89 469.58"
       id="path80" />
    <path
       stroke="#347176"
       vector-effect="non-scaling-stroke"
       d="   M 738.20 422.42   L 718.23 421.83"
       id="path82" />
    <path
       stroke="#68768f"
       vector-effect="non-scaling-stroke"
       d="   M 388.09 716.09   Q 391.29 716.36 391.66 713.60   Q 391.90 711.80 390.09 711.63   L 384.52 711.10"
       id="path84" />
    <path
       stroke="#68768f"
       vector-effect="non-scaling-stroke"
       d="   M 527.74 308.68   Q 533.88 324.21 536.95 340.57   Q 537.05 341.11 537.58 341.24   Q 542.46 342.47 543.85 348.33   Q 548.00 365.82 548.62 378.48   Q 548.64 378.98 549.14 379.00   Q 554.17 379.20 555.10 383.75   Q 558.33 399.62 556.68 419.12   A 0.55 0.55 0.0 0 0 557.30 419.71   C 565.59 418.60 564.75 428.56 564.41 433.69   Q 563.38 449.00 559.95 462.80   Q 559.82 463.33 560.36 463.43   C 563.70 464.09 567.40 464.29 568.00 468.76   C 569.37 478.99 563.24 496.74 559.56 505.38   Q 559.38 505.81 559.74 506.11   Q 563.16 508.88 562.08 513.52   Q 558.38 529.40 552.95 544.78   Q 552.81 545.16 553.04 545.49   Q 553.39 546.01 553.69 545.46   Q 565.11 524.68 581.33 507.07"
       id="path86" />
    <path
       stroke="#68768f"
       vector-effect="non-scaling-stroke"
       d="   M 697.90 463.81   Q 695.78 470.59 693.22 477.39   C 692.68 478.83 691.48 480.68 690.92 482.48   A 1.21 1.20 -51.8 0 0 691.03 483.43   Q 692.74 486.32 691.98 488.47   Q 687.78 500.43 677.48 512.86   A 0.68 0.67 -46.7 0 0 677.50 513.75   Q 680.86 517.32 678.13 521.89   Q 670.27 535.02 660.69 544.83   Q 660.28 545.25 660.65 545.70   C 662.84 548.35 664.46 550.38 662.15 553.69   Q 652.88 566.96 639.48 576.28   Q 638.96 576.64 639.40 577.09   C 642.23 579.94 641.97 582.59 639.06 585.36   C 629.80 594.17 618.28 601.01 606.60 606.04   Q 606.15 606.23 606.29 606.69   C 607.80 611.62 604.74 613.09 600.66 615.87   Q 590.39 622.86 579.14 628.06   A 0.29 0.29 0.0 0 0 579.26 628.61   Q 596.95 628.54 613.73 631.99"
       id="path88" />
    <path
       stroke="#68768f"
       vector-effect="non-scaling-stroke"
       d="   M 669.54 686.79   Q 656.58 692.37 641.39 693.37   A 0.89 0.89 0.0 0 0 640.56 694.11   C 638.57 704.78 611.10 698.11 604.62 695.71   Q 604.11 695.52 603.74 695.93   C 598.63 701.63 589.63 697.37 583.93 694.16   Q 583.48 693.90 582.99 694.10   Q 577.42 696.34 571.18 693.58   C 553.66 685.83 539.71 677.60 524.33 668.44   Q 523.81 668.13 523.81 668.74   Q 523.66 701.60 523.61 734.43   Q 523.60 743.02 515.85 745.94"
       id="path90" />
    <path
       stroke="#68768f"
       vector-effect="non-scaling-stroke"
       d="   M 500.26 693.19   L 500.24 669.05   A 0.39 0.38 75.5 0 0 499.67 668.71   C 482.26 678.45 465.24 688.60 446.45 695.45   C 443.11 696.67 441.78 695.01 438.70 694.24   Q 438.19 694.11 437.71 694.36   C 431.87 697.36 422.51 702.09 416.96 696.20   A 0.86 0.83 59.1 0 0 416.09 695.97   C 409.10 698.24 387.74 702.29 382.41 697.71   Q 382.00 697.36 381.88 696.85   L 381.41 694.84   Q 381.28 694.28 380.72 694.19   L 367.08 691.79"
       id="path92" />
    <path
       stroke="#68768f"
       vector-effect="non-scaling-stroke"
       d="   M 434.19 628.55   L 443.35 628.14   A 0.16 0.16 0.0 0 0 443.41 627.84   C 437.72 625.12 415.51 614.37 415.28 609.51   Q 415.26 609.10 415.39 608.71   L 416.05 606.89   Q 416.25 606.32 415.71 606.05   L 398.88 597.53"
       id="path94" />
    <path
       stroke="#68768f"
       vector-effect="non-scaling-stroke"
       d="   M 379.51 581.00   L 382.71 576.09   Q 382.98 575.68 382.56 575.41   Q 376.16 571.39 370.81 566.18"
       id="path96" />
    <path
       stroke="#8bb998"
       vector-effect="non-scaling-stroke"
       d="   M 647.31 715.69   L 614.66 714.97"
       id="path98" />
    <path
       stroke="#275366"
       vector-effect="non-scaling-stroke"
       d="   M 707.67 308.74   L 707.60 374.83   Q 707.60 375.25 708.02 375.25   L 713.53 375.25   A 0.72 0.71 90.0 0 0 714.24 374.53   L 714.26 307.80"
       id="path100" />
    <path
       stroke="#234a62"
       vector-effect="non-scaling-stroke"
       d="   M 714.26 307.80   L 714.58 269.39   A 0.22 0.21 67.7 0 0 714.21 269.23   L 707.11 276.79   A 1.09 1.07 61.0 0 0 706.84 277.76   C 707.17 279.32 707.58 280.90 707.55 282.52   Q 707.33 295.66 707.67 308.74"
       id="path102" />
    <path
       stroke="#347176"
       vector-effect="non-scaling-stroke"
       d="   M 714.26 307.80   L 707.67 308.74"
       id="path104" />
    <path
       stroke="#275366"
       vector-effect="non-scaling-stroke"
       d="   M 632.10 262.92   C 646.04 275.02 664.74 278.68 681.62 270.88   C 703.83 260.61 715.87 236.39 707.47 212.61   C 697.49 184.34 663.87 172.62 638.22 187.74   C 610.55 204.06 608.55 242.48 632.10 262.92"
       id="path106" />
    <path
       stroke="#4e855d"
       vector-effect="non-scaling-stroke"
       d="   M 701.33 227.84   A 38.51 38.51 0.0 0 0 662.82 189.33   A 38.51 38.51 0.0 0 0 624.31 227.84   A 38.51 38.51 0.0 0 0 662.82 266.35   A 38.51 38.51 0.0 0 0 701.33 227.84"
       id="path108" />
    <path
       stroke="#8b919d"
       vector-effect="non-scaling-stroke"
       d="   M 454.4242 290.4135   A 6.11 4.28 -2.5 0 0 448.1333 286.4041   A 6.11 4.28 -2.5 0 0 442.2158 290.9465   A 6.11 4.28 -2.5 0 0 448.5067 294.9559   A 6.11 4.28 -2.5 0 0 454.4242 290.4135"
       id="path110" />
    <path
       stroke="#8b919d"
       vector-effect="non-scaling-stroke"
       d="   M 434.37 290.60   A 3.82 3.82 0.0 0 0 430.55 286.78   L 350.39 286.78   A 3.82 3.82 0.0 0 0 346.57 290.60   L 346.57 290.72   A 3.82 3.82 0.0 0 0 350.39 294.54   L 430.55 294.54   A 3.82 3.82 0.0 0 0 434.37 290.72   L 434.37 290.60"
       id="path112" />
    <path
       stroke="#8b919d"
       vector-effect="non-scaling-stroke"
       d="   M 434.21 326.21   A 3.94 3.94 0.0 0 0 430.27 322.27   L 350.29 322.27   A 3.94 3.94 0.0 0 0 346.35 326.21   L 346.35 326.31   A 3.94 3.94 0.0 0 0 350.29 330.25   L 430.27 330.25   A 3.94 3.94 0.0 0 0 434.21 326.31   L 434.21 326.21"
       id="path114" />
    <path
       stroke="#8b919d"
       vector-effect="non-scaling-stroke"
       d="   M 462.6509 326.1908   A 3.74 3.74 0.0 0 0 458.9371 322.4248   L 446.1375 322.3354   A 3.74 3.74 0.0 0 0 442.3714 326.0492   L 442.3691 326.3892   A 3.74 3.74 0.0 0 0 446.0829 330.1552   L 458.8825 330.2446   A 3.74 3.74 0.0 0 0 462.6486 326.5308   L 462.6509 326.1908"
       id="path116" />
    <path
       stroke="#c2eaa9"
       vector-effect="non-scaling-stroke"
       d="   M 632.3694 345.3144   A 4.46 4.46 0.0 0 0 627.8939 340.8700   L 587.7741 341.0101   A 4.46 4.46 0.0 0 0 583.3297 345.4856   L 583.3306 345.7456   A 4.46 4.46 0.0 0 0 587.8061 350.1900   L 627.9259 350.0499   A 4.46 4.46 0.0 0 0 632.3703 345.5744   L 632.3694 345.3144"
       id="path118" />
    <path
       stroke="#8b919d"
       vector-effect="non-scaling-stroke"
       d="   M 437.62 373.73   A 3.91 3.91 0.0 0 0 433.71 369.82   L 350.21 369.82   A 3.91 3.91 0.0 0 0 346.30 373.73   L 346.30 373.83   A 3.91 3.91 0.0 0 0 350.21 377.74   L 433.71 377.74   A 3.91 3.91 0.0 0 0 437.62 373.83   L 437.62 373.73"
       id="path120" />
    <path
       stroke="#8b919d"
       vector-effect="non-scaling-stroke"
       d="   M 665.95 393.28   A 1.92 1.92 0.0 0 0 664.03 391.36   L 616.39 391.36   A 1.92 1.92 0.0 0 0 614.47 393.28   L 614.47 394.08   A 1.92 1.92 0.0 0 0 616.39 396.00   L 664.03 396.00   A 1.92 1.92 0.0 0 0 665.95 394.08   L 665.95 393.28"
       id="path122" />
    <path
       stroke="#8b919d"
       vector-effect="non-scaling-stroke"
       d="   M 611.04 393.35   A 1.85 1.85 0.0 0 0 609.19 391.50   L 594.11 391.50   A 1.85 1.85 0.0 0 0 592.26 393.35   L 592.26 394.13   A 1.85 1.85 0.0 0 0 594.11 395.98   L 609.19 395.98   A 1.85 1.85 0.0 0 0 611.04 394.13   L 611.04 393.35"
       id="path124" />
    <path
       stroke="#c2eaa9"
       vector-effect="non-scaling-stroke"
       d="   M 418.1723 419.8339   A 6.05 4.72 -2.9 0 0 411.8912 415.4260   A 6.05 4.72 -2.9 0 0 406.0877 420.4461   A 6.05 4.72 -2.9 0 0 412.3688 424.8540   A 6.05 4.72 -2.9 0 0 418.1723 419.8339"
       id="path126" />
    <path
       stroke="#c2eaa9"
       vector-effect="non-scaling-stroke"
       d="   M 396.9798 420.2203   A 4.50 4.50 0.0 0 0 392.4719 415.7282   L 344.5320 415.8118   A 4.50 4.50 0.0 0 0 340.0399 420.3197   L 340.0402 420.5197   A 4.50 4.50 0.0 0 0 344.5481 425.0118   L 392.4880 424.9282   A 4.50 4.50 0.0 0 0 396.9801 420.4203   L 396.9798 420.2203"
       id="path128" />
    <path
       stroke="#8b919d"
       vector-effect="non-scaling-stroke"
       d="   M 640.4115 425.2119   A 2.00 2.00 0.0 0 0 638.4220 423.2015   L 607.3025 423.0386   A 2.00 2.00 0.0 0 0 605.2920 425.0281   L 605.2885 425.7081   A 2.00 2.00 0.0 0 0 607.2780 427.7185   L 638.3975 427.8814   A 2.00 2.00 0.0 0 0 640.4080 425.8919   L 640.4115 425.2119"
       id="path130" />
    <path
       stroke="#8b919d"
       vector-effect="non-scaling-stroke"
       d="   M 704.40 581.93   A 3.29 3.29 0.0 0 0 701.11 578.64   A 3.29 3.29 0.0 0 0 697.82 581.93   A 3.29 3.29 0.0 0 0 701.11 585.22   A 3.29 3.29 0.0 0 0 704.40 581.93"
       id="path132" />
    <path
       stroke="#8b919d"
       vector-effect="non-scaling-stroke"
       d="   M 704.4332 594.6183   A 3.28 3.00 -3.7 0 0 700.9664 591.8363   A 3.28 3.00 -3.7 0 0 697.8868 595.0417   A 3.28 3.00 -3.7 0 0 701.3536 597.8237   A 3.28 3.00 -3.7 0 0 704.4332 594.6183"
       id="path134" />
    <path
       stroke="#8b919d"
       vector-effect="non-scaling-stroke"
       d="   M 704.41 608.05   A 3.28 3.28 0.0 0 0 701.13 604.77   A 3.28 3.28 0.0 0 0 697.85 608.05   A 3.28 3.28 0.0 0 0 701.13 611.33   A 3.28 3.28 0.0 0 0 704.41 608.05"
       id="path136" />
    <path
       stroke="#8b919d"
       vector-effect="non-scaling-stroke"
       d="   M 407.9121 739.3727   A 1.67 1.67 0.0 0 0 406.2479 737.6969   L 356.4882 737.5232   A 1.67 1.67 0.0 0 0 354.8124 739.1873   L 354.8079 740.4873   A 1.67 1.67 0.0 0 0 356.4721 742.1631   L 406.2318 742.3368   A 1.67 1.67 0.0 0 0 407.9076 740.6727   L 407.9121 739.3727"
       id="path138" />
    <path
       stroke="#8b919d"
       vector-effect="non-scaling-stroke"
       d="   M 425.7389 739.7135   A 2.15 2.15 0.0 0 0 423.5814 737.5710   L 412.7015 737.6090   A 2.15 2.15 0.0 0 0 410.5590 739.7665   L 410.5611 740.3465   A 2.15 2.15 0.0 0 0 412.7186 742.4890   L 423.5985 742.4510   A 2.15 2.15 0.0 0 0 425.7410 740.2935   L 425.7389 739.7135"
       id="path140" />
    <path
       stroke="#4e855d"
       vector-effect="non-scaling-stroke"
       d="   M 534.71 586.99   Q 541.71 554.75 552.00 521.67   C 552.73 519.31 553.00 516.43 553.82 513.89   A 0.74 0.74 0.0 0 0 552.93 512.94   L 548.73 513.97   A 0.67 0.67 0.0 0 1 547.95 513.06   C 553.77 499.54 558.85 486.44 560.43 471.63   Q 560.50 470.91 559.80 471.04   L 549.63 472.82   A 0.39 0.39 0.0 0 1 549.19 472.34   C 552.96 457.88 556.65 443.99 556.82 429.09   Q 556.85 427.22 555.08 427.83   L 548.57 430.10   A 0.47 0.47 0.0 0 1 547.95 429.64   C 548.54 415.43 550.30 402.64 547.82 388.33   A 0.63 0.63 0.0 0 0 546.64 388.15   L 541.78 397.48   A 0.33 0.33 0.0 0 1 541.17 397.39   Q 540.64 394.64 540.71 392.49   Q 541.40 371.68 536.35 351.21   A 0.68 0.67 -35.0 0 0 535.13 351.00   L 531.54 356.37   A 0.20 0.20 0.0 0 1 531.17 356.28   Q 527.76 322.73 511.85 293.00   A 0.60 0.60 0.0 0 0 510.79 293.00   Q 494.87 322.99 491.14 356.79   A 0.23 0.23 0.0 0 1 490.72 356.89   L 486.81 351.14   A 0.61 0.61 0.0 0 0 485.71 351.34   Q 482.09 365.70 481.35 380.42   C 481.17 384.14 481.40 391.33 480.89 396.83   A 0.32 0.31 -56.4 0 1 480.30 396.95   L 475.60 387.97   A 0.57 0.57 0.0 0 0 474.54 388.13   C 471.92 402.13 472.91 415.70 473.79 429.96   A 0.63 0.62 -81.6 0 1 472.95 430.59   L 466.22 428.03   A 0.97 0.97 0.0 0 0 464.90 428.98   C 465.55 444.23 468.93 457.68 472.69 472.23   A 0.47 0.47 0.0 0 1 472.14 472.81   L 462.54 470.99   Q 461.88 470.87 461.94 471.54   C 463.20 486.02 468.69 499.55 474.27 512.85   A 0.53 0.52 -8.4 0 1 473.73 513.57   L 469.36 513.16   Q 468.89 513.11 468.87 513.58   Q 468.80 515.07 469.15 516.53   C 472.22 529.21 477.27 545.38 479.62 554.15   Q 484.14 571.03 487.64 588.09   A 0.17 0.17 0.0 0 1 487.33 588.21   C 471.65 564.29 456.58 539.83 439.45 516.92   A 0.34 0.34 0.0 0 0 438.86 517.00   L 436.02 523.72   A 0.51 0.51 0.0 0 1 435.08 523.71   Q 433.94 520.89 432.06 518.19   Q 419.52 500.10 402.46 486.24   A 0.43 0.43 0.0 0 0 401.76 486.54   L 401.00 497.03   A 0.52 0.52 0.0 0 1 400.03 497.26   Q 390.13 480.62 373.79 470.25   A 0.47 0.46 -64.6 0 0 373.10 470.50   L 371.87 474.31   A 0.86 0.86 0.0 0 1 370.47 474.67   Q 354.43 459.51 333.44 451.85   Q 331.54 451.16 329.58 451.07   Q 328.97 451.04 329.08 451.63   Q 332.57 470.25 342.03 486.58   Q 342.37 487.17 341.71 487.31   L 339.20 487.87   Q 338.22 488.09 338.57 489.03   Q 344.47 504.95 358.05 514.96   A 0.52 0.52 0.0 0 1 357.92 515.86   L 351.34 518.27   A 0.63 0.62 65.3 0 0 351.01 519.17   Q 360.88 536.07 376.73 547.46   A 0.59 0.59 0.0 0 1 376.52 548.52   L 368.18 550.55   A 0.62 0.62 0.0 0 0 367.85 551.56   C 376.95 562.25 387.20 569.92 398.58 578.02   A 0.48 0.48 0.0 0 1 398.43 578.87   L 390.23 581.13   A 0.51 0.50 -33.0 0 0 390.04 582.01   C 402.24 591.83 415.16 597.76 429.43 604.08   A 0.36 0.35 -49.9 0 1 429.48 604.70   L 425.08 607.69   A 0.91 0.90 -45.9 0 0 425.10 609.21   C 442.60 620.19 461.64 627.79 480.80 635.62   A 0.21 0.21 0.0 0 1 480.72 636.02   C 458.56 635.94 435.19 634.94 414.17 638.62   A 0.26 0.26 0.0 0 0 414.02 639.05   Q 418.82 644.41 424.69 648.55   A 0.28 0.28 0.0 0 1 424.54 649.06   C 411.68 649.41 398.97 650.54 386.90 655.40   C 385.84 655.83 384.85 656.80 383.73 657.29   A 0.60 0.60 0.0 0 0 383.60 658.31   L 388.88 662.41   Q 389.38 662.79 388.77 662.95   Q 371.40 667.36 358.10 679.28   Q 356.75 680.49 358.45 681.11   Q 374.40 686.95 391.44 686.99   A 0.36 0.35 23.1 0 1 391.69 687.60   L 389.22 689.97   A 0.97 0.96 25.2 0 0 389.82 691.63   C 400.82 692.43 411.23 689.72 421.54 685.91   A 1.24 1.23 -7.8 0 1 423.20 687.16   L 422.94 690.43   A 0.80 0.80 0.0 0 0 423.90 691.28   C 430.16 689.99 436.93 686.35 442.77 683.79   A 0.86 0.86 0.0 0 1 443.97 684.48   L 444.32 687.59   Q 444.39 688.18 444.94 687.96   C 466.52 679.44 485.58 667.73 505.10 655.82   A 1.64 1.64 0.0 0 1 507.52 656.74   Q 507.95 658.13 507.97 660.50   Q 508.15 697.29 507.83 734.08   C 507.78 739.19 514.61 739.84 515.91 735.71   C 516.89 732.62 515.99 724.65 515.99 721.10   Q 516.00 689.23 516.00 657.85   Q 516.00 655.24 518.44 656.18   Q 520.44 656.95 522.52 658.22   C 539.75 668.76 557.43 680.18 576.38 687.42   A 0.47 0.47 0.0 0 0 577.01 687.06   L 577.53 683.83   A 0.51 0.51 0.0 0 1 578.23 683.45   L 596.33 691.18   A 1.20 1.20 0.0 0 0 598.00 690.08   L 598.00 686.02   A 0.55 0.55 0.0 0 1 598.72 685.50   C 610.34 689.39 619.21 692.73 631.90 692.24   Q 632.86 692.21 632.29 691.43   L 629.50 687.68   A 0.44 0.44 0.0 0 1 629.85 686.97   Q 647.32 686.82 663.80 681.08   A 0.80 0.79 55.9 0 0 664.06 679.73   Q 650.41 667.73 632.81 662.97   A 0.35 0.35 0.0 0 1 632.71 662.35   L 637.55 659.06   A 0.81 0.81 0.0 0 0 637.50 657.68   C 626.06 651.12 611.47 648.87 598.54 649.04   A 0.41 0.41 0.0 0 1 598.26 648.33   L 608.30 639.38   Q 608.97 638.78 608.08 638.62   Q 598.37 636.90 588.50 636.53   Q 566.04 635.69 540.78 636.14   A 0.07 0.07 0.0 0 1 540.75 636.00   C 560.21 628.06 579.02 620.44 596.80 609.47   A 0.78 0.78 0.0 0 0 596.84 608.17   L 592.32 604.95   Q 591.73 604.52 592.40 604.23   C 606.65 597.96 616.99 593.01 628.84 584.36   Q 630.44 583.19 631.28 581.74   Q 631.55 581.29 631.05 581.13   L 624.54 579.10   Q 622.95 578.60 624.35 577.70   Q 640.94 567.06 653.91 552.25   A 0.94 0.94 0.0 0 0 653.45 550.72   L 644.98 548.39   A 0.51 0.50 35.2 0 1 644.82 547.49   Q 660.97 536.24 670.72 519.05   A 0.40 0.39 -64.8 0 0 670.52 518.48   L 663.59 515.90   Q 662.44 515.47 663.42 514.74   Q 677.22 504.57 683.58 488.55   Q 683.74 488.15 683.31 488.08   L 680.91 487.74   A 1.26 1.26 0.0 0 1 680.01 485.85   Q 689.41 469.78 692.87 451.43   Q 693.00 450.74 692.31 450.87   C 677.89 453.43 661.23 464.98 651.31 474.56   Q 650.77 475.09 650.44 474.40   L 648.65 470.67   A 0.82 0.81 -28.6 0 0 647.49 470.33   Q 631.18 480.37 621.84 497.04   A 0.58 0.58 0.0 0 1 620.75 496.75   Q 620.77 491.43 619.23 486.40   Q 619.05 485.81 618.58 486.22   C 606.48 496.68 593.80 509.64 586.61 524.07   A 0.39 0.38 -44.8 0 1 585.92 524.07   L 582.79 517.51   A 0.59 0.59 0.0 0 0 581.78 517.41   C 565.04 539.56 550.56 563.96 535.71 587.40   Q 534.05 590.01 534.71 586.99"
       id="path142" />
    <path
       stroke="#4e855d"
       vector-effect="non-scaling-stroke"
       d="   M 513.97 616.74   Q 514.03 501.04 513.99 385.31   Q 513.99 383.43 513.39 378.52"
       id="path144" />
    <path
       stroke="#71c966"
       vector-effect="non-scaling-stroke"
       d="   M 513.39 378.52   Q 513.84 369.43 512.63 360.44   Q 512.57 360.00 512.27 359.68   Q 509.70 356.91 506.20 358.55   A 1.22 1.21 -7.0 0 0 505.52 359.41   C 505.22 360.83 504.77 362.25 504.68 363.63   C 503.80 378.03 503.75 392.33 503.70 406.75   Q 503.37 510.13 503.75 613.50   C 503.76 616.95 505.23 623.32 509.34 623.59   C 512.96 623.83 514.23 619.70 513.97 616.74"
       id="path146" />
    <path
       stroke="#39705a"
       vector-effect="non-scaling-stroke"
       d="   M 513.39 378.52   Q 511.03 377.73 509.39 378.57   A 0.90 0.89 -12.6 0 0 508.90 379.33   Q 508.74 384.80 508.73 390.25   Q 508.51 498.36 508.49 606.47   C 508.49 608.91 507.94 612.66 508.58 616.01   A 0.95 0.94 -84.9 0 0 509.16 616.71   Q 511.17 617.50 513.97 616.74"
       id="path148" />
    <path
       stroke="#4e855d"
       vector-effect="non-scaling-stroke"
       d="   M 550.73 608.42   Q 595.09 564.80 637.41 515.91   Q 638.29 514.90 638.69 513.84   Q 638.89 513.35 638.57 512.92   Q 637.40 511.33 635.51 510.67"
       id="path150" />
    <path
       stroke="#71c966"
       vector-effect="non-scaling-stroke"
       d="   M 635.51 510.67   Q 634.96 509.03 632.75 509.23   A 1.48 1.45 19.9 0 0 631.89 509.62   Q 624.90 516.16 618.61 523.37   C 596.15 549.16 572.45 573.77 548.27 597.95   C 541.38 604.84 536.04 612.32 530.27 620.00   Q 527.07 624.24 531.14 626.47   A 3.04 3.02 -46.5 0 0 534.20 626.38   C 540.97 622.10 548.53 616.97 550.73 608.42"
       id="path152" />
    <path
       stroke="#39705a"
       vector-effect="non-scaling-stroke"
       d="   M 635.51 510.67   C 634.04 512.06 632.35 513.21 631.05 514.67   C 605.24 543.85 578.99 572.55 551.12 599.79   C 545.74 605.05 541.24 610.76 536.51 616.45   A 1.41 1.41 0.0 0 0 537.55 618.76   C 544.49 619.00 545.74 610.45 550.73 608.42"
       id="path154" />
    <path
       stroke="#71c966"
       vector-effect="non-scaling-stroke"
       d="   M 468.48 605.02   Q 472.21 615.37 480.71 620.34   C 483.39 621.90 488.13 629.10 491.39 626.28   C 494.35 623.73 491.96 620.12 489.56 617.65   C 484.95 612.90 481.53 606.57 477.71 603.03   Q 450.24 577.61 424.69 550.24   Q 424.32 549.83 423.84 550.10   L 422.99 550.56"
       id="path156" />
    <path
       stroke="#4e855d"
       vector-effect="non-scaling-stroke"
       d="   M 422.99 550.56   Q 414.75 540.60 405.29 531.65"
       id="path158" />
    <path
       stroke="#68c175"
       vector-effect="non-scaling-stroke"
       d="   M 405.29 531.65   Q 406.07 530.49 405.44 529.81   C 403.05 527.23 394.38 514.89 389.80 513.76"
       id="path160" />
    <path
       stroke="#4e855d"
       vector-effect="non-scaling-stroke"
       d="   M 389.80 513.76   Q 388.26 511.22 385.62 510.11   Q 385.10 509.89 384.70 510.28   L 382.33 512.59   A 0.83 0.83 0.0 0 0 382.22 513.66   Q 383.87 516.03 386.83 519.42   Q 424.81 562.93 464.46 601.04   Q 466.82 603.31 468.48 605.02"
       id="path162" />
    <path
       stroke="#31686a"
       vector-effect="non-scaling-stroke"
       d="   M 389.80 513.76   Q 396.64 523.52 405.29 531.65"
       id="path164" />
    <path
       stroke="#39705a"
       vector-effect="non-scaling-stroke"
       d="   M 422.99 550.56   Q 426.16 554.33 429.59 557.91   Q 450.89 580.15 473.31 601.26   C 478.04 605.72 481.85 610.50 485.87 615.41   Q 486.63 616.34 485.96 617.32   C 483.75 620.56 481.49 619.13 479.46 616.74   Q 474.49 610.87 468.48 605.02"
       id="path166" />
    <path
       stroke="#4e855d"
       vector-effect="non-scaling-stroke"
       d="   M 408.23 669.31   Q 411.34 669.17 414.31 668.57   Q 454.94 660.39 495.07 650.99"
       id="path168" />
    <path
       stroke="#71c966"
       vector-effect="non-scaling-stroke"
       d="   M 495.07 650.99   Q 497.90 649.42 498.22 647.37   C 499.43 639.75 484.52 643.48 480.84 644.42   C 454.20 651.23 427.99 655.26 400.50 662.24   Q 397.26 663.06 395.38 664.13   A 0.91 0.91 0.0 0 0 394.92 664.92   C 394.82 672.59 403.01 670.62 408.23 669.31"
       id="path170" />
    <path
       stroke="#39705a"
       vector-effect="non-scaling-stroke"
       d="   M 495.07 650.99   L 493.64 647.61   Q 493.02 646.12 491.44 646.47   L 409.20 664.49   Q 407.53 664.85 407.80 666.55   L 408.23 669.31"
       id="path172" />
    <path
       stroke="#4e855d"
       vector-effect="non-scaling-stroke"
       d="   M 529.76 650.77   Q 578.48 662.57 608.48 669.06   Q 610.83 669.56 613.97 668.94"
       id="path174" />
    <path
       stroke="#71c966"
       vector-effect="non-scaling-stroke"
       d="   M 613.97 668.94   Q 619.40 670.13 624.09 669.30   C 626.09 668.95 627.25 666.68 625.86 664.98   C 623.33 661.86 604.99 658.39 599.11 657.30   Q 570.56 652.00 542.48 644.59   C 537.39 643.25 524.38 640.00 525.26 648.60   A 1.00 0.99 13.7 0 0 525.71 649.33   Q 527.29 650.36 529.76 650.77"
       id="path176" />
    <path
       stroke="#39705a"
       vector-effect="non-scaling-stroke"
       d="   M 613.97 668.94   C 615.56 664.65 608.59 663.53 605.67 662.89   Q 572.39 655.52 539.22 647.61   C 535.56 646.73 529.03 644.03 529.76 650.77"
       id="path178" />
    <path
       stroke="#68768f"
       vector-effect="non-scaling-stroke"
       d="   M 429.4265 712.7186   A 1.26 1.26 0.0 0 0 428.1621 711.4630   L 395.4823 711.5771   A 1.26 1.26 0.0 0 0 394.2267 712.8414   L 394.2335 714.7814   A 1.26 1.26 0.0 0 0 395.4979 716.0370   L 428.1777 715.9229   A 1.26 1.26 0.0 0 0 429.4333 714.6586   L 429.4265 712.7186"
       id="path180" />
  </g>
  <path
     fill="#162c51"
     d="   M 754.21 230.02   C 754.35 423.86 754.08 617.71 754.30 811.56   C 754.31 819.39 750.75 823.29 742.49 823.03   Q 731.03 822.67 698.75 822.74   Q 508.16 823.13 317.56 823.11   Q 302.61 823.10 286.57 822.98   Q 281.95 822.70 276.74 822.73   C 268.97 822.79 264.50 821.06 264.50 812.74   Q 264.50 519.61 264.50 226.48   C 264.50 215.11 262.36 206.83 277.12 206.80   C 384.84 206.58 492.56 206.94 600.27 206.68   Q 600.75 206.68 600.92 206.23   C 623.14 148.58 701.70 149.02 724.60 206.22   A 0.78 0.78 0.0 0 0 725.31 206.71   Q 733.35 206.84 741.15 206.73   C 757.25 206.50 754.30 218.51 754.21 230.02   Z   M 613.88 257.52   C 625.45 275.87 644.74 286.81 666.33 285.51   C 692.87 283.92 714.68 265.02 719.49 238.79   C 726.01 203.24 698.25 171.34 662.49 171.29   C 618.52 171.23 589.87 219.46 613.88 257.52   Z   M 745.01 473.29   L 745.16 431.76   A 0.24 0.23 -36.3 0 0 744.70 431.69   Q 740.49 445.46 726.84 449.49   A 0.28 0.28 0.0 0 0 726.64 449.76   Q 725.93 543.72 726.53 637.73   C 726.58 644.29 725.16 648.73 719.13 651.25   C 716.41 652.38 712.92 652.00 709.92 652.00   Q 708.91 652.00 708.92 653.00   C 709.35 693.71 708.73 733.93 709.10 774.39   C 709.18 782.66 708.98 790.69 698.32 790.57   C 659.28 790.14 620.28 790.52 581.25 790.46   Q 488.03 790.30 394.81 790.50   C 366.86 790.55 338.97 790.05 311.02 790.67   C 302.82 791.15 293.85 791.19 293.83 781.00   Q 293.64 703.78 293.87 626.56   C 293.97 593.56 294.22 562.53 293.82 527.44   C 293.48 496.96 294.24 453.00 293.86 405.50   C 293.46 355.25 293.79 304.96 294.04 254.70   C 294.07 247.75 296.41 243.82 303.81 243.81   Q 451.23 243.60 598.63 243.91   Q 599.18 243.91 599.05 243.38   Q 595.87 229.81 598.10 216.05   Q 598.21 215.40 597.55 215.40   C 486.55 215.79 381.71 215.89 273.80 215.71   Q 273.26 215.71 273.26 216.25   L 273.21 813.48   Q 273.21 814.00 273.73 814.00   L 744.49 814.00   A 0.75 0.75 0.0 0 0 745.24 813.25   L 745.01 473.29   Z   M 728.79 229.35   Q 727.79 244.42 722.61 256.17   A 1.38 1.38 0.0 0 0 723.03 257.82   Q 728.54 262.01 728.45 269.00   Q 728.24 285.25 728.22 302.74   L 727.93 395.49   Q 727.93 396.02 728.42 396.24   Q 740.24 401.38 744.88 413.45   A 0.10 0.10 0.0 0 0 745.08 413.41   L 745.08 283.61   Q 745.72 270.37 744.76 257.03   L 745.19 216.84   A 1.24 1.24 0.0 0 0 743.97 215.59   L 728.30 215.46   Q 727.74 215.45 727.79 216.01   L 728.79 229.35   Z   M 717.89 469.58   L 717.95 462.61   L 717.98 443.08   C 721.60 442.19 725.37 441.82 728.43 439.98   Q 737.51 434.55 738.20 422.42   Q 736.52 405.14 718.24 401.95   L 718.24 388.57   A 4.85 4.83 -0.9 0 0 713.24 383.74   L 703.29 384.08   A 2.70 2.70 0.0 0 1 700.50 381.38   L 700.50 311.68   L 700.60 282.80   Q 700.60 282.26 700.14 282.55   C 674.65 298.71 643.10 296.73 619.92 277.06   Q 608.93 267.19 602.38 252.91   Q 602.19 252.50 601.74 252.50   L 392.42 252.50   A 1.63 1.54 56.7 0 1 391.71 252.33   Q 391.44 252.20 391.24 252.20   Q 347.22 252.65 303.16 252.47   Q 302.51 252.47 302.51 253.11   L 302.52 781.69   A 0.67 0.67 0.0 0 0 303.19 782.36   C 407.19 781.82 511.19 782.61 615.18 782.06   C 643.25 781.91 671.33 782.42 699.15 782.17   Q 700.77 782.16 700.77 780.54   L 700.69 644.95   Q 700.69 644.37 701.24 644.20   C 705.19 642.96 709.73 643.89 713.24 643.77   C 720.56 643.52 717.98 634.78 717.99 630.17   Q 718.09 550.08 717.89 469.58   Z   M 707.67 308.74   L 707.60 374.83   Q 707.60 375.25 708.02 375.25   L 713.53 375.25   A 0.72 0.71 90.0 0 0 714.24 374.53   L 714.26 307.80   L 714.58 269.39   A 0.22 0.21 67.7 0 0 714.21 269.23   L 707.11 276.79   A 1.09 1.07 61.0 0 0 706.84 277.76   C 707.17 279.32 707.58 280.90 707.55 282.52   Q 707.33 295.66 707.67 308.74   Z"
     id="path186" />
  <path
     fill="#387a7a"
     d="   M 666.33 285.51   C 644.74 286.81 625.45 275.87 613.88 257.52   C 589.87 219.46 618.52 171.23 662.49 171.29   C 698.25 171.34 726.01 203.24 719.49 238.79   C 714.68 265.02 692.87 283.92 666.33 285.51   Z   M 632.10 262.92   C 646.04 275.02 664.74 278.68 681.62 270.88   C 703.83 260.61 715.87 236.39 707.47 212.61   C 697.49 184.34 663.87 172.62 638.22 187.74   C 610.55 204.06 608.55 242.48 632.10 262.92   Z"
     id="path188" />
  <path
     fill="#162c51"
     d="   M 632.10 262.92   C 608.55 242.48 610.55 204.06 638.22 187.74   C 663.87 172.62 697.49 184.34 707.47 212.61   C 715.87 236.39 703.83 260.61 681.62 270.88   C 664.74 278.68 646.04 275.02 632.10 262.92   Z   M 701.33 227.84   A 38.51 38.51 0.0 0 0 662.82 189.33   A 38.51 38.51 0.0 0 0 624.31 227.84   A 38.51 38.51 0.0 0 0 662.82 266.35   A 38.51 38.51 0.0 0 0 701.33 227.84   Z"
     id="path190" />
  <circle
     fill="#85de68"
     cx="662.82"
     cy="227.84"
     r="38.51"
     id="circle192"
     style="fill:#ffbf49;fill-opacity:1" />
  <path
     fill="#4ba382"
     d="   M 311.02 790.67   C 310.66 800.67 311.18 804.61 322.50 804.61   C 452.98 804.64 583.46 804.51 713.94 804.49   C 722.87 804.49 725.33 798.26 725.28 790.25   Q 724.97 733.47 725.50 676.69   Q 725.55 671.47 725.47 666.13   Q 725.46 665.55 726.04 665.54   C 730.88 665.43 736.33 665.65 737.06 659.30   C 737.62 654.42 737.51 650.73 737.52 646.39   Q 737.74 582.86 737.92 519.32   C 737.94 509.93 737.51 492.43 738.06 478.92   A 1.45 1.41 67.7 0 1 738.42 478.02   Q 741.07 475.07 745.01 473.29   L 745.24 813.25   A 0.75 0.75 0.0 0 1 744.49 814.00   L 273.73 814.00   Q 273.21 814.00 273.21 813.48   L 273.26 216.25   Q 273.26 215.71 273.80 215.71   C 381.71 215.89 486.55 215.79 597.55 215.40   Q 598.21 215.40 598.10 216.05   Q 595.87 229.81 599.05 243.38   Q 599.18 243.91 598.63 243.91   Q 451.23 243.60 303.81 243.81   C 296.41 243.82 294.07 247.75 294.04 254.70   C 293.79 304.96 293.46 355.25 293.86 405.50   C 294.24 453.00 293.48 496.96 293.82 527.44   C 294.22 562.53 293.97 593.56 293.87 626.56   Q 293.64 703.78 293.83 781.00   C 293.85 791.19 302.82 791.15 311.02 790.67   Z"
     id="path194" />
  <path
     fill="#4ba382"
     d="   M 744.76 257.03   Q 740.16 240.14 728.79 229.35   L 727.79 216.01   Q 727.74 215.45 728.30 215.46   L 743.97 215.59   A 1.24 1.24 0.0 0 1 745.19 216.84   L 744.76 257.03   Z"
     id="path196" />
  <path
     fill="#d0d7f5"
     d="   M 286.57 822.98   Q 302.61 823.10 317.56 823.11   Q 508.16 823.13 698.75 822.74   Q 731.03 822.67 742.49 823.03   C 750.75 823.29 754.31 819.39 754.30 811.56   C 754.08 617.71 754.35 423.86 754.21 230.02   C 761.22 228.61 769.86 227.63 773.36 234.71   Q 774.74 237.50 774.74 245.14   Q 774.75 333.08 774.75 421.03   Q 774.75 421.53 775.14 421.83   C 787.56 431.40 787.34 447.74 775.17 457.27   A 1.13 1.13 0.0 0 0 774.75 458.15   Q 774.75 646.00 774.75 833.85   C 774.75 841.84 772.01 847.13 763.25 847.14   Q 532.35 847.38 301.46 847.21   C 295.17 847.20 290.73 846.51 287.49 841.28   Q 285.45 837.99 285.52 832.32   Q 285.58 827.48 286.57 822.98   Z"
     id="path198" />
  <path
     fill="#2f6772"
     d="   M 728.79 229.35   Q 740.16 240.14 744.76 257.03   Q 745.72 270.37 745.08 283.61   Q 737.85 296.01 728.22 302.74   Q 728.24 285.25 728.45 269.00   Q 728.54 262.01 723.03 257.82   A 1.38 1.38 0.0 0 1 722.61 256.17   Q 727.79 244.42 728.79 229.35   Z"
     id="path200" />
  <path
     fill="#fff5e9"
     d="   M 619.92 277.06   Q 623.10 284.36 628.78 289.74   Q 658.82 318.14 700.50 311.68   L 700.50 381.38   A 2.70 2.70 0.0 0 0 703.29 384.08   L 713.24 383.74   A 4.85 4.83 -0.9 0 1 718.24 388.57   L 718.24 401.95   L 718.23 421.83   L 717.98 443.08   L 717.95 462.61   C 713.95 458.89 709.23 459.51 704.12 460.65   Q 700.52 461.46 697.90 463.81   Q 699.67 457.51 700.89 451.23   C 702.77 441.49 692.78 442.39 686.99 444.23   Q 668.59 450.10 653.57 462.25   Q 653.17 462.57 652.67 462.45   C 650.29 461.85 648.12 461.59 645.81 462.84   Q 633.79 469.31 624.64 479.49   Q 624.30 479.87 623.96 479.49   Q 620.79 476.01 616.95 478.46   C 605.92 485.48 594.25 498.21 585.98 508.70   Q 585.66 509.11 585.20 508.89   L 581.33 507.07   Q 585.39 498.82 585.22 488.45   C 585.09 480.79 580.79 479.93 574.21 480.97   A 0.33 0.33 0.0 0 1 573.95 480.38   C 576.26 478.50 579.16 476.78 579.75 473.26   Q 582.04 459.54 581.23 445.70   C 580.97 441.32 579.76 438.32 575.46 437.17   Q 574.96 437.03 575.03 436.52   C 576.04 429.04 577.44 406.64 570.53 401.81   Q 570.10 401.51 570.15 400.98   Q 571.38 388.59 567.93 376.70   C 566.89 373.11 565.13 371.40 561.47 371.02   A 0.68 0.67 0.5 0 1 560.87 370.41   Q 560.08 362.29 556.51 355.00   C 555.18 352.29 553.00 352.42 552.33 348.81   Q 548.90 330.25 539.30 314.15   C 536.57 309.59 533.02 306.64 527.74 308.68   C 525.55 303.24 518.59 285.51 513.64 283.99   Q 508.01 282.25 504.79 288.07   Q 491.31 312.47 485.67 339.84   Q 485.57 340.36 485.06 340.51   Q 479.97 342.09 478.43 348.44   Q 474.16 365.97 473.42 378.30   Q 473.39 378.77 472.92 378.81   Q 468.11 379.18 467.21 384.00   Q 463.96 401.39 465.51 419.25   A 0.72 0.72 0.0 0 1 464.68 420.02   C 458.68 419.02 457.47 423.18 457.46 428.21   C 457.43 440.51 459.56 451.50 462.07 463.20   A 0.48 0.48 0.0 0 1 461.59 463.78   C 454.41 463.64 453.85 468.53 454.58 474.43   Q 456.55 490.31 463.07 505.05   Q 463.29 505.53 462.85 505.83   Q 458.97 508.46 460.28 513.74   Q 464.05 529.00 468.29 542.23   Q 470.25 548.36 467.00 542.81   Q 457.74 527.03 444.30 510.71   Q 440.50 506.11 435.78 508.71   Q 435.34 508.95 435.04 508.55   Q 423.71 493.27 405.95 479.54   Q 401.30 475.95 397.06 478.86   A 0.70 0.69 -39.2 0 1 396.16 478.77   Q 386.25 468.42 375.73 462.50   Q 372.77 460.84 369.07 462.49   A 0.92 0.89 50.4 0 1 368.17 462.39   C 357.24 454.50 347.29 448.28 333.94 444.08   C 328.40 442.34 319.34 441.83 321.20 451.05   Q 324.66 468.24 330.57 481.94   Q 330.76 482.40 330.57 482.85   C 327.37 490.46 338.64 506.54 343.91 512.75   Q 344.25 513.14 343.92 513.53   Q 340.75 517.28 343.50 522.01   Q 350.84 534.61 361.13 544.53   A 0.91 0.91 0.0 0 1 361.06 545.90   Q 356.89 549.18 360.30 553.95   Q 363.51 558.43 370.81 566.18   Q 369.77 566.43 368.76 565.77   Q 368.27 565.44 368.23 566.03   C 367.82 571.36 376.56 578.25 379.51 581.00   C 381.38 586.80 393.14 594.29 398.88 597.53   Q 394.46 598.71 393.44 603.21   A 1.25 1.23 -55.5 0 0 393.61 604.17   Q 395.28 606.74 398.57 609.43   Q 412.67 620.96 427.57 627.45   A 1.87 1.84 -37.0 0 0 428.55 627.58   Q 431.57 627.15 434.19 628.55   Q 421.04 629.21 409.45 632.19   C 403.10 633.82 404.81 638.46 407.61 642.32   Q 408.00 642.86 407.34 642.92   Q 394.68 644.05 383.12 649.02   C 378.44 651.03 375.27 651.97 374.83 656.88   Q 374.79 657.39 375.10 657.80   Q 375.54 658.37 375.40 658.93   Q 375.26 659.47 374.43 659.83   Q 361.73 665.33 351.67 674.72   C 340.14 685.47 360.88 689.79 367.08 691.79   Q 362.62 693.78 362.14 697.59   C 361.26 704.50 379.46 709.66 384.52 711.10   Q 369.19 711.34 354.48 711.27   C 349.87 711.25 350.41 716.05 353.75 716.03   Q 371.07 715.89 388.09 716.09   C 395.77 724.31 419.03 720.55 428.20 717.41   Q 437.44 714.24 446.60 710.78   Q 447.10 710.59 447.58 710.83   C 452.63 713.35 458.82 712.31 463.71 710.73   Q 482.64 704.59 500.26 693.19   Q 500.25 713.70 500.24 735.27   C 500.24 743.83 508.20 747.81 515.85 745.94   C 515.62 749.67 515.25 754.16 516.74 757.47   C 522.30 769.85 539.65 766.08 539.72 751.75   Q 539.87 721.78 539.61 692.11   A 0.44 0.44 0.0 0 1 540.27 691.72   C 555.68 700.89 571.41 707.94 589.01 711.49   C 595.17 712.73 600.93 716.00 607.36 716.00   A 1.70 1.70 0.0 0 0 608.28 715.73   Q 611.52 713.69 614.66 714.97   C 613.02 717.95 616.07 718.68 618.28 718.79   C 628.25 719.27 638.28 719.15 648.12 719.91   Q 662.66 721.03 667.25 720.55   Q 669.77 720.28 669.07 717.64   A 0.75 0.75 0.0 0 0 668.49 717.10   C 661.62 715.75 654.41 716.27 647.31 715.69   Q 662.10 713.90 666.23 713.76   Q 670.87 713.60 670.84 709.60   A 1.74 1.74 0.0 0 1 672.14 707.90   Q 678.94 706.13 685.22 702.98   Q 685.78 702.70 686.04 702.14   C 688.08 697.89 684.94 696.43 681.39 694.11   Q 675.76 690.42 669.54 686.79   C 676.58 682.88 674.63 678.37 669.65 674.09   Q 659.20 665.11 646.59 659.26   Q 646.08 659.02 646.24 658.48   C 647.28 654.91 645.60 653.07 642.49 651.36   Q 629.80 644.38 615.23 642.99   A 0.61 0.61 0.0 0 1 614.97 641.87   C 619.19 639.29 617.69 633.99 613.73 631.99   Q 622.57 628.36 631.10 624.96   C 633.58 623.98 637.84 622.50 636.94 619.78   A 1.81 1.80 -21.6 0 1 637.90 617.57   Q 649.50 612.20 659.59 603.88   C 664.29 600.00 661.12 596.93 657.76 594.39   Q 657.29 594.03 657.78 593.70   C 664.95 588.81 670.77 583.08 676.64 576.75   C 680.07 573.05 683.14 567.64 677.24 564.85   A 0.63 0.62 -52.7 0 1 677.10 563.81   Q 688.13 554.28 695.26 541.27   Q 698.48 535.40 693.41 532.17   Q 692.96 531.88 693.31 531.47   Q 702.91 520.34 708.36 506.63   Q 710.19 502.02 707.15 498.47   A 0.60 0.59 -41.2 0 1 707.21 497.64   Q 709.29 495.76 709.78 494.51   Q 712.81 486.77 717.89 469.58   Q 718.09 550.08 717.99 630.17   C 717.98 634.78 720.56 643.52 713.24 643.77   C 709.73 643.89 705.19 642.96 701.24 644.20   Q 700.69 644.37 700.69 644.95   L 700.77 780.54   Q 700.77 782.16 699.15 782.17   C 671.33 782.42 643.25 781.91 615.18 782.06   C 511.19 782.61 407.19 781.82 303.19 782.36   A 0.67 0.67 0.0 0 1 302.52 781.69   L 302.51 253.11   Q 302.51 252.47 303.16 252.47   Q 347.22 252.65 391.24 252.20   Q 391.44 252.20 391.71 252.33   A 1.63 1.54 56.7 0 0 392.42 252.50   L 601.74 252.50   Q 602.19 252.50 602.38 252.91   Q 608.93 267.19 619.92 277.06   Z   M 454.4242 290.4135   A 6.11 4.28 -2.5 0 0 448.1333 286.4041   A 6.11 4.28 -2.5 0 0 442.2158 290.9465   A 6.11 4.28 -2.5 0 0 448.5067 294.9559   A 6.11 4.28 -2.5 0 0 454.4242 290.4135   Z   M 434.37 290.60   A 3.82 3.82 0.0 0 0 430.55 286.78   L 350.39 286.78   A 3.82 3.82 0.0 0 0 346.57 290.60   L 346.57 290.72   A 3.82 3.82 0.0 0 0 350.39 294.54   L 430.55 294.54   A 3.82 3.82 0.0 0 0 434.37 290.72   L 434.37 290.60   Z   M 434.21 326.21   A 3.94 3.94 0.0 0 0 430.27 322.27   L 350.29 322.27   A 3.94 3.94 0.0 0 0 346.35 326.21   L 346.35 326.31   A 3.94 3.94 0.0 0 0 350.29 330.25   L 430.27 330.25   A 3.94 3.94 0.0 0 0 434.21 326.31   L 434.21 326.21   Z   M 462.6509 326.1908   A 3.74 3.74 0.0 0 0 458.9371 322.4248   L 446.1375 322.3354   A 3.74 3.74 0.0 0 0 442.3714 326.0492   L 442.3691 326.3892   A 3.74 3.74 0.0 0 0 446.0829 330.1552   L 458.8825 330.2446   A 3.74 3.74 0.0 0 0 462.6486 326.5308   L 462.6509 326.1908   Z   M 632.3694 345.3144   A 4.46 4.46 0.0 0 0 627.8939 340.8700   L 587.7741 341.0101   A 4.46 4.46 0.0 0 0 583.3297 345.4856   L 583.3306 345.7456   A 4.46 4.46 0.0 0 0 587.8061 350.1900   L 627.9259 350.0499   A 4.46 4.46 0.0 0 0 632.3703 345.5744   L 632.3694 345.3144   Z   M 437.62 373.73   A 3.91 3.91 0.0 0 0 433.71 369.82   L 350.21 369.82   A 3.91 3.91 0.0 0 0 346.30 373.73   L 346.30 373.83   A 3.91 3.91 0.0 0 0 350.21 377.74   L 433.71 377.74   A 3.91 3.91 0.0 0 0 437.62 373.83   L 437.62 373.73   Z   M 665.95 393.28   A 1.92 1.92 0.0 0 0 664.03 391.36   L 616.39 391.36   A 1.92 1.92 0.0 0 0 614.47 393.28   L 614.47 394.08   A 1.92 1.92 0.0 0 0 616.39 396.00   L 664.03 396.00   A 1.92 1.92 0.0 0 0 665.95 394.08   L 665.95 393.28   Z   M 611.04 393.35   A 1.85 1.85 0.0 0 0 609.19 391.50   L 594.11 391.50   A 1.85 1.85 0.0 0 0 592.26 393.35   L 592.26 394.13   A 1.85 1.85 0.0 0 0 594.11 395.98   L 609.19 395.98   A 1.85 1.85 0.0 0 0 611.04 394.13   L 611.04 393.35   Z   M 418.1723 419.8339   A 6.05 4.72 -2.9 0 0 411.8912 415.4260   A 6.05 4.72 -2.9 0 0 406.0877 420.4461   A 6.05 4.72 -2.9 0 0 412.3688 424.8540   A 6.05 4.72 -2.9 0 0 418.1723 419.8339   Z   M 396.9798 420.2203   A 4.50 4.50 0.0 0 0 392.4719 415.7282   L 344.5320 415.8118   A 4.50 4.50 0.0 0 0 340.0399 420.3197   L 340.0402 420.5197   A 4.50 4.50 0.0 0 0 344.5481 425.0118   L 392.4880 424.9282   A 4.50 4.50 0.0 0 0 396.9801 420.4203   L 396.9798 420.2203   Z   M 640.4115 425.2119   A 2.00 2.00 0.0 0 0 638.4220 423.2015   L 607.3025 423.0386   A 2.00 2.00 0.0 0 0 605.2920 425.0281   L 605.2885 425.7081   A 2.00 2.00 0.0 0 0 607.2780 427.7185   L 638.3975 427.8814   A 2.00 2.00 0.0 0 0 640.4080 425.8919   L 640.4115 425.2119   Z   M 704.40 581.93   A 3.29 3.29 0.0 0 0 701.11 578.64   A 3.29 3.29 0.0 0 0 697.82 581.93   A 3.29 3.29 0.0 0 0 701.11 585.22   A 3.29 3.29 0.0 0 0 704.40 581.93   Z   M 704.4332 594.6183   A 3.28 3.00 -3.7 0 0 700.9664 591.8363   A 3.28 3.00 -3.7 0 0 697.8868 595.0417   A 3.28 3.00 -3.7 0 0 701.3536 597.8237   A 3.28 3.00 -3.7 0 0 704.4332 594.6183   Z   M 704.41 608.05   A 3.28 3.28 0.0 0 0 701.13 604.77   A 3.28 3.28 0.0 0 0 697.85 608.05   A 3.28 3.28 0.0 0 0 701.13 611.33   A 3.28 3.28 0.0 0 0 704.41 608.05   Z   M 407.9121 739.3727   A 1.67 1.67 0.0 0 0 406.2479 737.6969   L 356.4882 737.5232   A 1.67 1.67 0.0 0 0 354.8124 739.1873   L 354.8079 740.4873   A 1.67 1.67 0.0 0 0 356.4721 742.1631   L 406.2318 742.3368   A 1.67 1.67 0.0 0 0 407.9076 740.6727   L 407.9121 739.3727   Z   M 425.7389 739.7135   A 2.15 2.15 0.0 0 0 423.5814 737.5710   L 412.7015 737.6090   A 2.15 2.15 0.0 0 0 410.5590 739.7665   L 410.5611 740.3465   A 2.15 2.15 0.0 0 0 412.7186 742.4890   L 423.5985 742.4510   A 2.15 2.15 0.0 0 0 425.7410 740.2935   L 425.7389 739.7135   Z"
     id="path202" />
  <path
     fill="#2f6772"
     d="   M 714.26 307.80   L 707.67 308.74   Q 707.33 295.66 707.55 282.52   C 707.58 280.90 707.17 279.32 706.84 277.76   A 1.09 1.07 61.0 0 1 707.11 276.79   L 714.21 269.23   A 0.22 0.21 67.7 0 1 714.58 269.39   L 714.26 307.80   Z"
     id="path204" />
  <path
     fill="#b9bfcd"
     d="   M 619.92 277.06   C 643.10 296.73 674.65 298.71 700.14 282.55   Q 700.60 282.26 700.60 282.80   L 700.50 311.68   Q 658.82 318.14 628.78 289.74   Q 623.10 284.36 619.92 277.06   Z"
     id="path206" />
  <path
     fill="#162c51"
     d="   M 527.74 308.68   Q 533.88 324.21 536.95 340.57   Q 537.05 341.11 537.58 341.24   Q 542.46 342.47 543.85 348.33   Q 548.00 365.82 548.62 378.48   Q 548.64 378.98 549.14 379.00   Q 554.17 379.20 555.10 383.75   Q 558.33 399.62 556.68 419.12   A 0.55 0.55 0.0 0 0 557.30 419.71   C 565.59 418.60 564.75 428.56 564.41 433.69   Q 563.38 449.00 559.95 462.80   Q 559.82 463.33 560.36 463.43   C 563.70 464.09 567.40 464.29 568.00 468.76   C 569.37 478.99 563.24 496.74 559.56 505.38   Q 559.38 505.81 559.74 506.11   Q 563.16 508.88 562.08 513.52   Q 558.38 529.40 552.95 544.78   Q 552.81 545.16 553.04 545.49   Q 553.39 546.01 553.69 545.46   Q 565.11 524.68 581.33 507.07   L 585.20 508.89   Q 585.66 509.11 585.98 508.70   C 594.25 498.21 605.92 485.48 616.95 478.46   Q 620.79 476.01 623.96 479.49   Q 624.30 479.87 624.64 479.49   Q 633.79 469.31 645.81 462.84   C 648.12 461.59 650.29 461.85 652.67 462.45   Q 653.17 462.57 653.57 462.25   Q 668.59 450.10 686.99 444.23   C 692.78 442.39 702.77 441.49 700.89 451.23   Q 699.67 457.51 697.90 463.81   Q 695.78 470.59 693.22 477.39   C 692.68 478.83 691.48 480.68 690.92 482.48   A 1.21 1.20 -51.8 0 0 691.03 483.43   Q 692.74 486.32 691.98 488.47   Q 687.78 500.43 677.48 512.86   A 0.68 0.67 -46.7 0 0 677.50 513.75   Q 680.86 517.32 678.13 521.89   Q 670.27 535.02 660.69 544.83   Q 660.28 545.25 660.65 545.70   C 662.84 548.35 664.46 550.38 662.15 553.69   Q 652.88 566.96 639.48 576.28   Q 638.96 576.64 639.40 577.09   C 642.23 579.94 641.97 582.59 639.06 585.36   C 629.80 594.17 618.28 601.01 606.60 606.04   Q 606.15 606.23 606.29 606.69   C 607.80 611.62 604.74 613.09 600.66 615.87   Q 590.39 622.86 579.14 628.06   A 0.29 0.29 0.0 0 0 579.26 628.61   Q 596.95 628.54 613.73 631.99   C 617.69 633.99 619.19 639.29 614.97 641.87   A 0.61 0.61 0.0 0 0 615.23 642.99   Q 629.80 644.38 642.49 651.36   C 645.60 653.07 647.28 654.91 646.24 658.48   Q 646.08 659.02 646.59 659.26   Q 659.20 665.11 669.65 674.09   C 674.63 678.37 676.58 682.88 669.54 686.79   Q 656.58 692.37 641.39 693.37   A 0.89 0.89 0.0 0 0 640.56 694.11   C 638.57 704.78 611.10 698.11 604.62 695.71   Q 604.11 695.52 603.74 695.93   C 598.63 701.63 589.63 697.37 583.93 694.16   Q 583.48 693.90 582.99 694.10   Q 577.42 696.34 571.18 693.58   C 553.66 685.83 539.71 677.60 524.33 668.44   Q 523.81 668.13 523.81 668.74   Q 523.66 701.60 523.61 734.43   Q 523.60 743.02 515.85 745.94   C 508.20 747.81 500.24 743.83 500.24 735.27   Q 500.25 713.70 500.26 693.19   L 500.24 669.05   A 0.39 0.38 75.5 0 0 499.67 668.71   C 482.26 678.45 465.24 688.60 446.45 695.45   C 443.11 696.67 441.78 695.01 438.70 694.24   Q 438.19 694.11 437.71 694.36   C 431.87 697.36 422.51 702.09 416.96 696.20   A 0.86 0.83 59.1 0 0 416.09 695.97   C 409.10 698.24 387.74 702.29 382.41 697.71   Q 382.00 697.36 381.88 696.85   L 381.41 694.84   Q 381.28 694.28 380.72 694.19   L 367.08 691.79   C 360.88 689.79 340.14 685.47 351.67 674.72   Q 361.73 665.33 374.43 659.83   Q 375.26 659.47 375.40 658.93   Q 375.54 658.37 375.10 657.80   Q 374.79 657.39 374.83 656.88   C 375.27 651.97 378.44 651.03 383.12 649.02   Q 394.68 644.05 407.34 642.92   Q 408.00 642.86 407.61 642.32   C 404.81 638.46 403.10 633.82 409.45 632.19   Q 421.04 629.21 434.19 628.55   L 443.35 628.14   A 0.16 0.16 0.0 0 0 443.41 627.84   C 437.72 625.12 415.51 614.37 415.28 609.51   Q 415.26 609.10 415.39 608.71   L 416.05 606.89   Q 416.25 606.32 415.71 606.05   L 398.88 597.53   C 393.14 594.29 381.38 586.80 379.51 581.00   L 382.71 576.09   Q 382.98 575.68 382.56 575.41   Q 376.16 571.39 370.81 566.18   Q 363.51 558.43 360.30 553.95   Q 356.89 549.18 361.06 545.90   A 0.91 0.91 0.0 0 0 361.13 544.53   Q 350.84 534.61 343.50 522.01   Q 340.75 517.28 343.92 513.53   Q 344.25 513.14 343.91 512.75   C 338.64 506.54 327.37 490.46 330.57 482.85   Q 330.76 482.40 330.57 481.94   Q 324.66 468.24 321.20 451.05   C 319.34 441.83 328.40 442.34 333.94 444.08   C 347.29 448.28 357.24 454.50 368.17 462.39   A 0.92 0.89 50.4 0 0 369.07 462.49   Q 372.77 460.84 375.73 462.50   Q 386.25 468.42 396.16 478.77   A 0.70 0.69 -39.2 0 0 397.06 478.86   Q 401.30 475.95 405.95 479.54   Q 423.71 493.27 435.04 508.55   Q 435.34 508.95 435.78 508.71   Q 440.50 506.11 444.30 510.71   Q 457.74 527.03 467.00 542.81   Q 470.25 548.36 468.29 542.23   Q 464.05 529.00 460.28 513.74   Q 458.97 508.46 462.85 505.83   Q 463.29 505.53 463.07 505.05   Q 456.55 490.31 454.58 474.43   C 453.85 468.53 454.41 463.64 461.59 463.78   A 0.48 0.48 0.0 0 0 462.07 463.20   C 459.56 451.50 457.43 440.51 457.46 428.21   C 457.47 423.18 458.68 419.02 464.68 420.02   A 0.72 0.72 0.0 0 0 465.51 419.25   Q 463.96 401.39 467.21 384.00   Q 468.11 379.18 472.92 378.81   Q 473.39 378.77 473.42 378.30   Q 474.16 365.97 478.43 348.44   Q 479.97 342.09 485.06 340.51   Q 485.57 340.36 485.67 339.84   Q 491.31 312.47 504.79 288.07   Q 508.01 282.25 513.64 283.99   C 518.59 285.51 525.55 303.24 527.74 308.68   Z   M 534.71 586.99   Q 541.71 554.75 552.00 521.67   C 552.73 519.31 553.00 516.43 553.82 513.89   A 0.74 0.74 0.0 0 0 552.93 512.94   L 548.73 513.97   A 0.67 0.67 0.0 0 1 547.95 513.06   C 553.77 499.54 558.85 486.44 560.43 471.63   Q 560.50 470.91 559.80 471.04   L 549.63 472.82   A 0.39 0.39 0.0 0 1 549.19 472.34   C 552.96 457.88 556.65 443.99 556.82 429.09   Q 556.85 427.22 555.08 427.83   L 548.57 430.10   A 0.47 0.47 0.0 0 1 547.95 429.64   C 548.54 415.43 550.30 402.64 547.82 388.33   A 0.63 0.63 0.0 0 0 546.64 388.15   L 541.78 397.48   A 0.33 0.33 0.0 0 1 541.17 397.39   Q 540.64 394.64 540.71 392.49   Q 541.40 371.68 536.35 351.21   A 0.68 0.67 -35.0 0 0 535.13 351.00   L 531.54 356.37   A 0.20 0.20 0.0 0 1 531.17 356.28   Q 527.76 322.73 511.85 293.00   A 0.60 0.60 0.0 0 0 510.79 293.00   Q 494.87 322.99 491.14 356.79   A 0.23 0.23 0.0 0 1 490.72 356.89   L 486.81 351.14   A 0.61 0.61 0.0 0 0 485.71 351.34   Q 482.09 365.70 481.35 380.42   C 481.17 384.14 481.40 391.33 480.89 396.83   A 0.32 0.31 -56.4 0 1 480.30 396.95   L 475.60 387.97   A 0.57 0.57 0.0 0 0 474.54 388.13   C 471.92 402.13 472.91 415.70 473.79 429.96   A 0.63 0.62 -81.6 0 1 472.95 430.59   L 466.22 428.03   A 0.97 0.97 0.0 0 0 464.90 428.98   C 465.55 444.23 468.93 457.68 472.69 472.23   A 0.47 0.47 0.0 0 1 472.14 472.81   L 462.54 470.99   Q 461.88 470.87 461.94 471.54   C 463.20 486.02 468.69 499.55 474.27 512.85   A 0.53 0.52 -8.4 0 1 473.73 513.57   L 469.36 513.16   Q 468.89 513.11 468.87 513.58   Q 468.80 515.07 469.15 516.53   C 472.22 529.21 477.27 545.38 479.62 554.15   Q 484.14 571.03 487.64 588.09   A 0.17 0.17 0.0 0 1 487.33 588.21   C 471.65 564.29 456.58 539.83 439.45 516.92   A 0.34 0.34 0.0 0 0 438.86 517.00   L 436.02 523.72   A 0.51 0.51 0.0 0 1 435.08 523.71   Q 433.94 520.89 432.06 518.19   Q 419.52 500.10 402.46 486.24   A 0.43 0.43 0.0 0 0 401.76 486.54   L 401.00 497.03   A 0.52 0.52 0.0 0 1 400.03 497.26   Q 390.13 480.62 373.79 470.25   A 0.47 0.46 -64.6 0 0 373.10 470.50   L 371.87 474.31   A 0.86 0.86 0.0 0 1 370.47 474.67   Q 354.43 459.51 333.44 451.85   Q 331.54 451.16 329.58 451.07   Q 328.97 451.04 329.08 451.63   Q 332.57 470.25 342.03 486.58   Q 342.37 487.17 341.71 487.31   L 339.20 487.87   Q 338.22 488.09 338.57 489.03   Q 344.47 504.95 358.05 514.96   A 0.52 0.52 0.0 0 1 357.92 515.86   L 351.34 518.27   A 0.63 0.62 65.3 0 0 351.01 519.17   Q 360.88 536.07 376.73 547.46   A 0.59 0.59 0.0 0 1 376.52 548.52   L 368.18 550.55   A 0.62 0.62 0.0 0 0 367.85 551.56   C 376.95 562.25 387.20 569.92 398.58 578.02   A 0.48 0.48 0.0 0 1 398.43 578.87   L 390.23 581.13   A 0.51 0.50 -33.0 0 0 390.04 582.01   C 402.24 591.83 415.16 597.76 429.43 604.08   A 0.36 0.35 -49.9 0 1 429.48 604.70   L 425.08 607.69   A 0.91 0.90 -45.9 0 0 425.10 609.21   C 442.60 620.19 461.64 627.79 480.80 635.62   A 0.21 0.21 0.0 0 1 480.72 636.02   C 458.56 635.94 435.19 634.94 414.17 638.62   A 0.26 0.26 0.0 0 0 414.02 639.05   Q 418.82 644.41 424.69 648.55   A 0.28 0.28 0.0 0 1 424.54 649.06   C 411.68 649.41 398.97 650.54 386.90 655.40   C 385.84 655.83 384.85 656.80 383.73 657.29   A 0.60 0.60 0.0 0 0 383.60 658.31   L 388.88 662.41   Q 389.38 662.79 388.77 662.95   Q 371.40 667.36 358.10 679.28   Q 356.75 680.49 358.45 681.11   Q 374.40 686.95 391.44 686.99   A 0.36 0.35 23.1 0 1 391.69 687.60   L 389.22 689.97   A 0.97 0.96 25.2 0 0 389.82 691.63   C 400.82 692.43 411.23 689.72 421.54 685.91   A 1.24 1.23 -7.8 0 1 423.20 687.16   L 422.94 690.43   A 0.80 0.80 0.0 0 0 423.90 691.28   C 430.16 689.99 436.93 686.35 442.77 683.79   A 0.86 0.86 0.0 0 1 443.97 684.48   L 444.32 687.59   Q 444.39 688.18 444.94 687.96   C 466.52 679.44 485.58 667.73 505.10 655.82   A 1.64 1.64 0.0 0 1 507.52 656.74   Q 507.95 658.13 507.97 660.50   Q 508.15 697.29 507.83 734.08   C 507.78 739.19 514.61 739.84 515.91 735.71   C 516.89 732.62 515.99 724.65 515.99 721.10   Q 516.00 689.23 516.00 657.85   Q 516.00 655.24 518.44 656.18   Q 520.44 656.95 522.52 658.22   C 539.75 668.76 557.43 680.18 576.38 687.42   A 0.47 0.47 0.0 0 0 577.01 687.06   L 577.53 683.83   A 0.51 0.51 0.0 0 1 578.23 683.45   L 596.33 691.18   A 1.20 1.20 0.0 0 0 598.00 690.08   L 598.00 686.02   A 0.55 0.55 0.0 0 1 598.72 685.50   C 610.34 689.39 619.21 692.73 631.90 692.24   Q 632.86 692.21 632.29 691.43   L 629.50 687.68   A 0.44 0.44 0.0 0 1 629.85 686.97   Q 647.32 686.82 663.80 681.08   A 0.80 0.79 55.9 0 0 664.06 679.73   Q 650.41 667.73 632.81 662.97   A 0.35 0.35 0.0 0 1 632.71 662.35   L 637.55 659.06   A 0.81 0.81 0.0 0 0 637.50 657.68   C 626.06 651.12 611.47 648.87 598.54 649.04   A 0.41 0.41 0.0 0 1 598.26 648.33   L 608.30 639.38   Q 608.97 638.78 608.08 638.62   Q 598.37 636.90 588.50 636.53   Q 566.04 635.69 540.78 636.14   A 0.07 0.07 0.0 0 1 540.75 636.00   C 560.21 628.06 579.02 620.44 596.80 609.47   A 0.78 0.78 0.0 0 0 596.84 608.17   L 592.32 604.95   Q 591.73 604.52 592.40 604.23   C 606.65 597.96 616.99 593.01 628.84 584.36   Q 630.44 583.19 631.28 581.74   Q 631.55 581.29 631.05 581.13   L 624.54 579.10   Q 622.95 578.60 624.35 577.70   Q 640.94 567.06 653.91 552.25   A 0.94 0.94 0.0 0 0 653.45 550.72   L 644.98 548.39   A 0.51 0.50 35.2 0 1 644.82 547.49   Q 660.97 536.24 670.72 519.05   A 0.40 0.39 -64.8 0 0 670.52 518.48   L 663.59 515.90   Q 662.44 515.47 663.42 514.74   Q 677.22 504.57 683.58 488.55   Q 683.74 488.15 683.31 488.08   L 680.91 487.74   A 1.26 1.26 0.0 0 1 680.01 485.85   Q 689.41 469.78 692.87 451.43   Q 693.00 450.74 692.31 450.87   C 677.89 453.43 661.23 464.98 651.31 474.56   Q 650.77 475.09 650.44 474.40   L 648.65 470.67   A 0.82 0.81 -28.6 0 0 647.49 470.33   Q 631.18 480.37 621.84 497.04   A 0.58 0.58 0.0 0 1 620.75 496.75   Q 620.77 491.43 619.23 486.40   Q 619.05 485.81 618.58 486.22   C 606.48 496.68 593.80 509.64 586.61 524.07   A 0.39 0.38 -44.8 0 1 585.92 524.07   L 582.79 517.51   A 0.59 0.59 0.0 0 0 581.78 517.41   C 565.04 539.56 550.56 563.96 535.71 587.40   Q 534.05 590.01 534.71 586.99   Z"
     id="path208" />
  <path
     fill="#4ba382"
     d="   M 745.08 283.61   L 745.08 413.41   A 0.10 0.10 0.0 0 1 744.88 413.45   Q 740.24 401.38 728.42 396.24   Q 727.93 396.02 727.93 395.49   L 728.22 302.74   Q 737.85 296.01 745.08 283.61   Z"
     id="path210" />
  <ellipse
     fill="#162c51"
     cx="0.00"
     cy="0.00"
     transform="translate(448.32,290.68) rotate(-2.5)"
     rx="6.11"
     ry="4.28"
     id="ellipse212" />
  <rect
     fill="#162c51"
     x="346.57"
     y="286.78"
     width="87.80"
     height="7.76"
     rx="3.82"
     id="rect214" />
  <path
     fill="#85de68"
     d="   M 534.71 586.99   Q 534.05 590.01 535.71 587.40   C 550.56 563.96 565.04 539.56 581.78 517.41   A 0.59 0.59 0.0 0 1 582.79 517.51   L 585.92 524.07   A 0.39 0.38 -44.8 0 0 586.61 524.07   C 593.80 509.64 606.48 496.68 618.58 486.22   Q 619.05 485.81 619.23 486.40   Q 620.77 491.43 620.75 496.75   A 0.58 0.58 0.0 0 0 621.84 497.04   Q 631.18 480.37 647.49 470.33   A 0.82 0.81 -28.6 0 1 648.65 470.67   L 650.44 474.40   Q 650.77 475.09 651.31 474.56   C 661.23 464.98 677.89 453.43 692.31 450.87   Q 693.00 450.74 692.87 451.43   Q 689.41 469.78 680.01 485.85   A 1.26 1.26 0.0 0 0 680.91 487.74   L 683.31 488.08   Q 683.74 488.15 683.58 488.55   Q 677.22 504.57 663.42 514.74   Q 662.44 515.47 663.59 515.90   L 670.52 518.48   A 0.40 0.39 -64.8 0 1 670.72 519.05   Q 660.97 536.24 644.82 547.49   A 0.51 0.50 35.2 0 0 644.98 548.39   L 653.45 550.72   A 0.94 0.94 0.0 0 1 653.91 552.25   Q 640.94 567.06 624.35 577.70   Q 622.95 578.60 624.54 579.10   L 631.05 581.13   Q 631.55 581.29 631.28 581.74   Q 630.44 583.19 628.84 584.36   C 616.99 593.01 606.65 597.96 592.40 604.23   Q 591.73 604.52 592.32 604.95   L 596.84 608.17   A 0.78 0.78 0.0 0 1 596.80 609.47   C 579.02 620.44 560.21 628.06 540.75 636.00   A 0.07 0.07 0.0 0 0 540.78 636.14   Q 566.04 635.69 588.50 636.53   Q 598.37 636.90 608.08 638.62   Q 608.97 638.78 608.30 639.38   L 598.26 648.33   A 0.41 0.41 0.0 0 0 598.54 649.04   C 611.47 648.87 626.06 651.12 637.50 657.68   A 0.81 0.81 0.0 0 1 637.55 659.06   L 632.71 662.35   A 0.35 0.35 0.0 0 0 632.81 662.97   Q 650.41 667.73 664.06 679.73   A 0.80 0.79 55.9 0 1 663.80 681.08   Q 647.32 686.82 629.85 686.97   A 0.44 0.44 0.0 0 0 629.50 687.68   L 632.29 691.43   Q 632.86 692.21 631.90 692.24   C 619.21 692.73 610.34 689.39 598.72 685.50   A 0.55 0.55 0.0 0 0 598.00 686.02   L 598.00 690.08   A 1.20 1.20 0.0 0 1 596.33 691.18   L 578.23 683.45   A 0.51 0.51 0.0 0 0 577.53 683.83   L 577.01 687.06   A 0.47 0.47 0.0 0 1 576.38 687.42   C 557.43 680.18 539.75 668.76 522.52 658.22   Q 520.44 656.95 518.44 656.18   Q 516.00 655.24 516.00 657.85   Q 516.00 689.23 515.99 721.10   C 515.99 724.65 516.89 732.62 515.91 735.71   C 514.61 739.84 507.78 739.19 507.83 734.08   Q 508.15 697.29 507.97 660.50   Q 507.95 658.13 507.52 656.74   A 1.64 1.64 0.0 0 0 505.10 655.82   C 485.58 667.73 466.52 679.44 444.94 687.96   Q 444.39 688.18 444.32 687.59   L 443.97 684.48   A 0.86 0.86 0.0 0 0 442.77 683.79   C 436.93 686.35 430.16 689.99 423.90 691.28   A 0.80 0.80 0.0 0 1 422.94 690.43   L 423.20 687.16   A 1.24 1.23 -7.8 0 0 421.54 685.91   C 411.23 689.72 400.82 692.43 389.82 691.63   A 0.97 0.96 25.2 0 1 389.22 689.97   L 391.69 687.60   A 0.36 0.35 23.1 0 0 391.44 686.99   Q 374.40 686.95 358.45 681.11   Q 356.75 680.49 358.10 679.28   Q 371.40 667.36 388.77 662.95   Q 389.38 662.79 388.88 662.41   L 383.60 658.31   A 0.60 0.60 0.0 0 1 383.73 657.29   C 384.85 656.80 385.84 655.83 386.90 655.40   C 398.97 650.54 411.68 649.41 424.54 649.06   A 0.28 0.28 0.0 0 0 424.69 648.55   Q 418.82 644.41 414.02 639.05   A 0.26 0.26 0.0 0 1 414.17 638.62   C 435.19 634.94 458.56 635.94 480.72 636.02   A 0.21 0.21 0.0 0 0 480.80 635.62   C 461.64 627.79 442.60 620.19 425.10 609.21   A 0.91 0.90 -45.9 0 1 425.08 607.69   L 429.48 604.70   A 0.36 0.35 -49.9 0 0 429.43 604.08   C 415.16 597.76 402.24 591.83 390.04 582.01   A 0.51 0.50 -33.0 0 1 390.23 581.13   L 398.43 578.87   A 0.48 0.48 0.0 0 0 398.58 578.02   C 387.20 569.92 376.95 562.25 367.85 551.56   A 0.62 0.62 0.0 0 1 368.18 550.55   L 376.52 548.52   A 0.59 0.59 0.0 0 0 376.73 547.46   Q 360.88 536.07 351.01 519.17   A 0.63 0.62 65.3 0 1 351.34 518.27   L 357.92 515.86   A 0.52 0.52 0.0 0 0 358.05 514.96   Q 344.47 504.95 338.57 489.03   Q 338.22 488.09 339.20 487.87   L 341.71 487.31   Q 342.37 487.17 342.03 486.58   Q 332.57 470.25 329.08 451.63   Q 328.97 451.04 329.58 451.07   Q 331.54 451.16 333.44 451.85   Q 354.43 459.51 370.47 474.67   A 0.86 0.86 0.0 0 0 371.87 474.31   L 373.10 470.50   A 0.47 0.46 -64.6 0 1 373.79 470.25   Q 390.13 480.62 400.03 497.26   A 0.52 0.52 0.0 0 0 401.00 497.03   L 401.76 486.54   A 0.43 0.43 0.0 0 1 402.46 486.24   Q 419.52 500.10 432.06 518.19   Q 433.94 520.89 435.08 523.71   A 0.51 0.51 0.0 0 0 436.02 523.72   L 438.86 517.00   A 0.34 0.34 0.0 0 1 439.45 516.92   C 456.58 539.83 471.65 564.29 487.33 588.21   A 0.17 0.17 0.0 0 0 487.64 588.09   Q 484.14 571.03 479.62 554.15   C 477.27 545.38 472.22 529.21 469.15 516.53   Q 468.80 515.07 468.87 513.58   Q 468.89 513.11 469.36 513.16   L 473.73 513.57   A 0.53 0.52 -8.4 0 0 474.27 512.85   C 468.69 499.55 463.20 486.02 461.94 471.54   Q 461.88 470.87 462.54 470.99   L 472.14 472.81   A 0.47 0.47 0.0 0 0 472.69 472.23   C 468.93 457.68 465.55 444.23 464.90 428.98   A 0.97 0.97 0.0 0 1 466.22 428.03   L 472.95 430.59   A 0.63 0.62 -81.6 0 0 473.79 429.96   C 472.91 415.70 471.92 402.13 474.54 388.13   A 0.57 0.57 0.0 0 1 475.60 387.97   L 480.30 396.95   A 0.32 0.31 -56.4 0 0 480.89 396.83   C 481.40 391.33 481.17 384.14 481.35 380.42   Q 482.09 365.70 485.71 351.34   A 0.61 0.61 0.0 0 1 486.81 351.14   L 490.72 356.89   A 0.23 0.23 0.0 0 0 491.14 356.79   Q 494.87 322.99 510.79 293.00   A 0.60 0.60 0.0 0 1 511.85 293.00   Q 527.76 322.73 531.17 356.28   A 0.20 0.20 0.0 0 0 531.54 356.37   L 535.13 351.00   A 0.68 0.67 -35.0 0 1 536.35 351.21   Q 541.40 371.68 540.71 392.49   Q 540.64 394.64 541.17 397.39   A 0.33 0.33 0.0 0 0 541.78 397.48   L 546.64 388.15   A 0.63 0.63 0.0 0 1 547.82 388.33   C 550.30 402.64 548.54 415.43 547.95 429.64   A 0.47 0.47 0.0 0 0 548.57 430.10   L 555.08 427.83   Q 556.85 427.22 556.82 429.09   C 556.65 443.99 552.96 457.88 549.19 472.34   A 0.39 0.39 0.0 0 0 549.63 472.82   L 559.80 471.04   Q 560.50 470.91 560.43 471.63   C 558.85 486.44 553.77 499.54 547.95 513.06   A 0.67 0.67 0.0 0 0 548.73 513.97   L 552.93 512.94   A 0.74 0.74 0.0 0 1 553.82 513.89   C 553.00 516.43 552.73 519.31 552.00 521.67   Q 541.71 554.75 534.71 586.99   Z   M 513.97 616.74   Q 514.03 501.04 513.99 385.31   Q 513.99 383.43 513.39 378.52   Q 513.84 369.43 512.63 360.44   Q 512.57 360.00 512.27 359.68   Q 509.70 356.91 506.20 358.55   A 1.22 1.21 -7.0 0 0 505.52 359.41   C 505.22 360.83 504.77 362.25 504.68 363.63   C 503.80 378.03 503.75 392.33 503.70 406.75   Q 503.37 510.13 503.75 613.50   C 503.76 616.95 505.23 623.32 509.34 623.59   C 512.96 623.83 514.23 619.70 513.97 616.74   Z   M 550.73 608.42   Q 595.09 564.80 637.41 515.91   Q 638.29 514.90 638.69 513.84   Q 638.89 513.35 638.57 512.92   Q 637.40 511.33 635.51 510.67   Q 634.96 509.03 632.75 509.23   A 1.48 1.45 19.9 0 0 631.89 509.62   Q 624.90 516.16 618.61 523.37   C 596.15 549.16 572.45 573.77 548.27 597.95   C 541.38 604.84 536.04 612.32 530.27 620.00   Q 527.07 624.24 531.14 626.47   A 3.04 3.02 -46.5 0 0 534.20 626.38   C 540.97 622.10 548.53 616.97 550.73 608.42   Z   M 468.48 605.02   Q 472.21 615.37 480.71 620.34   C 483.39 621.90 488.13 629.10 491.39 626.28   C 494.35 623.73 491.96 620.12 489.56 617.65   C 484.95 612.90 481.53 606.57 477.71 603.03   Q 450.24 577.61 424.69 550.24   Q 424.32 549.83 423.84 550.10   L 422.99 550.56   Q 414.75 540.60 405.29 531.65   Q 406.07 530.49 405.44 529.81   C 403.05 527.23 394.38 514.89 389.80 513.76   Q 388.26 511.22 385.62 510.11   Q 385.10 509.89 384.70 510.28   L 382.33 512.59   A 0.83 0.83 0.0 0 0 382.22 513.66   Q 383.87 516.03 386.83 519.42   Q 424.81 562.93 464.46 601.04   Q 466.82 603.31 468.48 605.02   Z   M 408.23 669.31   Q 411.34 669.17 414.31 668.57   Q 454.94 660.39 495.07 650.99   Q 497.90 649.42 498.22 647.37   C 499.43 639.75 484.52 643.48 480.84 644.42   C 454.20 651.23 427.99 655.26 400.50 662.24   Q 397.26 663.06 395.38 664.13   A 0.91 0.91 0.0 0 0 394.92 664.92   C 394.82 672.59 403.01 670.62 408.23 669.31   Z   M 529.76 650.77   Q 578.48 662.57 608.48 669.06   Q 610.83 669.56 613.97 668.94   Q 619.40 670.13 624.09 669.30   C 626.09 668.95 627.25 666.68 625.86 664.98   C 623.33 661.86 604.99 658.39 599.11 657.30   Q 570.56 652.00 542.48 644.59   C 537.39 643.25 524.38 640.00 525.26 648.60   A 1.00 0.99 13.7 0 0 525.71 649.33   Q 527.29 650.36 529.76 650.77   Z"
     id="path216" />
  <path
     fill="#387a7a"
     d="   M 714.26 307.80   L 714.24 374.53   A 0.72 0.71 90.0 0 1 713.53 375.25   L 708.02 375.25   Q 707.60 375.25 707.60 374.83   L 707.67 308.74   L 714.26 307.80   Z"
     id="path218" />
  <path
     fill="#b9bfcd"
     d="   M 581.33 507.07   Q 565.11 524.68 553.69 545.46   Q 553.39 546.01 553.04 545.49   Q 552.81 545.16 552.95 544.78   Q 558.38 529.40 562.08 513.52   Q 563.16 508.88 559.74 506.11   Q 559.38 505.81 559.56 505.38   C 563.24 496.74 569.37 478.99 568.00 468.76   C 567.40 464.29 563.70 464.09 560.36 463.43   Q 559.82 463.33 559.95 462.80   Q 563.38 449.00 564.41 433.69   C 564.75 428.56 565.59 418.60 557.30 419.71   A 0.55 0.55 0.0 0 1 556.68 419.12   Q 558.33 399.62 555.10 383.75   Q 554.17 379.20 549.14 379.00   Q 548.64 378.98 548.62 378.48   Q 548.00 365.82 543.85 348.33   Q 542.46 342.47 537.58 341.24   Q 537.05 341.11 536.95 340.57   Q 533.88 324.21 527.74 308.68   C 533.02 306.64 536.57 309.59 539.30 314.15   Q 548.90 330.25 552.33 348.81   C 553.00 352.42 555.18 352.29 556.51 355.00   Q 560.08 362.29 560.87 370.41   A 0.68 0.67 0.5 0 0 561.47 371.02   C 565.13 371.40 566.89 373.11 567.93 376.70   Q 571.38 388.59 570.15 400.98   Q 570.10 401.51 570.53 401.81   C 577.44 406.64 576.04 429.04 575.03 436.52   Q 574.96 437.03 575.46 437.17   C 579.76 438.32 580.97 441.32 581.23 445.70   Q 582.04 459.54 579.75 473.26   C 579.16 476.78 576.26 478.50 573.95 480.38   A 0.33 0.33 0.0 0 0 574.21 480.97   C 580.79 479.93 585.09 480.79 585.22 488.45   Q 585.39 498.82 581.33 507.07   Z"
     id="path220" />
  <rect
     fill="#162c51"
     x="346.35"
     y="322.27"
     width="87.86"
     height="7.98"
     rx="3.94"
     id="rect222" />
  <rect
     fill="#162c51"
     x="-10.14"
     y="-3.91"
     transform="translate(452.51,326.29) rotate(0.4)"
     width="20.28"
     height="7.82"
     rx="3.74"
     id="rect224" />
  <rect
     fill="#85de68"
     x="-24.52"
     y="-4.59"
     transform="translate(607.85,345.53) rotate(-0.2)"
     width="49.04"
     height="9.18"
     rx="4.46"
     id="rect226" />
  <path
     fill="#5cb363"
     d="   M 513.39 378.52   Q 511.03 377.73 509.39 378.57   A 0.90 0.89 -12.6 0 0 508.90 379.33   Q 508.74 384.80 508.73 390.25   Q 508.51 498.36 508.49 606.47   C 508.49 608.91 507.94 612.66 508.58 616.01   A 0.95 0.94 -84.9 0 0 509.16 616.71   Q 511.17 617.50 513.97 616.74   C 514.23 619.70 512.96 623.83 509.34 623.59   C 505.23 623.32 503.76 616.95 503.75 613.50   Q 503.37 510.13 503.70 406.75   C 503.75 392.33 503.80 378.03 504.68 363.63   C 504.77 362.25 505.22 360.83 505.52 359.41   A 1.22 1.21 -7.0 0 1 506.20 358.55   Q 509.70 356.91 512.27 359.68   Q 512.57 360.00 512.63 360.44   Q 513.84 369.43 513.39 378.52   Z"
     id="path228" />
  <rect
     fill="#162c51"
     x="346.30"
     y="369.82"
     width="91.32"
     height="7.92"
     rx="3.91"
     id="rect230" />
  <path
     fill="#162c51"
     d="   M 513.39 378.52   Q 513.99 383.43 513.99 385.31   Q 514.03 501.04 513.97 616.74   Q 511.17 617.50 509.16 616.71   A 0.95 0.94 -84.9 0 1 508.58 616.01   C 507.94 612.66 508.49 608.91 508.49 606.47   Q 508.51 498.36 508.73 390.25   Q 508.74 384.80 508.90 379.33   A 0.90 0.89 -12.6 0 1 509.39 378.57   Q 511.03 377.73 513.39 378.52   Z"
     id="path232" />
  <rect
     fill="#162c51"
     x="614.47"
     y="391.36"
     width="51.48"
     height="4.64"
     rx="1.92"
     id="rect234" />
  <rect
     fill="#162c51"
     x="592.26"
     y="391.50"
     width="18.78"
     height="4.48"
     rx="1.85"
     id="rect236" />
  <path
     fill="#387a7a"
     d="   M 718.24 401.95   Q 736.52 405.14 738.20 422.42   L 718.23 421.83   L 718.24 401.95   Z"
     id="path238" />
  <ellipse
     fill="#85de68"
     cx="0.00"
     cy="0.00"
     transform="translate(412.13,420.14) rotate(-2.9)"
     rx="6.05"
     ry="4.72"
     id="ellipse240" />
  <rect
     fill="#85de68"
     x="-28.47"
     y="-4.60"
     transform="translate(368.51,420.37) rotate(-0.1)"
     width="56.94"
     height="9.20"
     rx="4.50"
     id="rect242" />
  <path
     fill="#2f6772"
     d="   M 718.23 421.83   L 738.20 422.42   Q 737.51 434.55 728.43 439.98   C 725.37 441.82 721.60 442.19 717.98 443.08   L 718.23 421.83   Z"
     id="path244" />
  <rect
     fill="#162c51"
     x="-17.56"
     y="-2.34"
     transform="translate(622.85,425.46) rotate(0.3)"
     width="35.12"
     height="4.68"
     rx="2.00"
     id="rect246" />
  <path
     fill="#2f6772"
     d="   M 745.01 473.29   Q 741.07 475.07 738.42 478.02   A 1.45 1.41 67.7 0 0 738.06 478.92   C 737.51 492.43 737.94 509.93 737.92 519.32   Q 737.74 582.86 737.52 646.39   C 737.51 650.73 737.62 654.42 737.06 659.30   C 736.33 665.65 730.88 665.43 726.04 665.54   Q 725.46 665.55 725.47 666.13   Q 725.55 671.47 725.50 676.69   Q 724.97 733.47 725.28 790.25   C 725.33 798.26 722.87 804.49 713.94 804.49   C 583.46 804.51 452.98 804.64 322.50 804.61   C 311.18 804.61 310.66 800.67 311.02 790.67   C 338.97 790.05 366.86 790.55 394.81 790.50   Q 488.03 790.30 581.25 790.46   C 620.28 790.52 659.28 790.14 698.32 790.57   C 708.98 790.69 709.18 782.66 709.10 774.39   C 708.73 733.93 709.35 693.71 708.92 653.00   Q 708.91 652.00 709.92 652.00   C 712.92 652.00 716.41 652.38 719.13 651.25   C 725.16 648.73 726.58 644.29 726.53 637.73   Q 725.93 543.72 726.64 449.76   A 0.28 0.28 0.0 0 1 726.84 449.49   Q 740.49 445.46 744.70 431.69   A 0.24 0.23 -36.3 0 1 745.16 431.76   L 745.01 473.29   Z"
     id="path248" />
  <path
     fill="#b9bfcd"
     d="   M 717.95 462.61   L 717.89 469.58   Q 712.81 486.77 709.78 494.51   Q 709.29 495.76 707.21 497.64   A 0.60 0.59 -41.2 0 0 707.15 498.47   Q 710.19 502.02 708.36 506.63   Q 702.91 520.34 693.31 531.47   Q 692.96 531.88 693.41 532.17   Q 698.48 535.40 695.26 541.27   Q 688.13 554.28 677.10 563.81   A 0.63 0.62 -52.7 0 0 677.24 564.85   C 683.14 567.64 680.07 573.05 676.64 576.75   C 670.77 583.08 664.95 588.81 657.78 593.70   Q 657.29 594.03 657.76 594.39   C 661.12 596.93 664.29 600.00 659.59 603.88   Q 649.50 612.20 637.90 617.57   A 1.81 1.80 -21.6 0 0 636.94 619.78   C 637.84 622.50 633.58 623.98 631.10 624.96   Q 622.57 628.36 613.73 631.99   Q 596.95 628.54 579.26 628.61   A 0.29 0.29 0.0 0 1 579.14 628.06   Q 590.39 622.86 600.66 615.87   C 604.74 613.09 607.80 611.62 606.29 606.69   Q 606.15 606.23 606.60 606.04   C 618.28 601.01 629.80 594.17 639.06 585.36   C 641.97 582.59 642.23 579.94 639.40 577.09   Q 638.96 576.64 639.48 576.28   Q 652.88 566.96 662.15 553.69   C 664.46 550.38 662.84 548.35 660.65 545.70   Q 660.28 545.25 660.69 544.83   Q 670.27 535.02 678.13 521.89   Q 680.86 517.32 677.50 513.75   A 0.68 0.67 -46.7 0 1 677.48 512.86   Q 687.78 500.43 691.98 488.47   Q 692.74 486.32 691.03 483.43   A 1.21 1.20 -51.8 0 1 690.92 482.48   C 691.48 480.68 692.68 478.83 693.22 477.39   Q 695.78 470.59 697.90 463.81   Q 700.52 461.46 704.12 460.65   C 709.23 459.51 713.95 458.89 717.95 462.61   Z"
     id="path250" />
  <path
     fill="#5cb363"
     d="   M 635.51 510.67   C 634.04 512.06 632.35 513.21 631.05 514.67   C 605.24 543.85 578.99 572.55 551.12 599.79   C 545.74 605.05 541.24 610.76 536.51 616.45   A 1.41 1.41 0.0 0 0 537.55 618.76   C 544.49 619.00 545.74 610.45 550.73 608.42   C 548.53 616.97 540.97 622.10 534.20 626.38   A 3.04 3.02 -46.5 0 1 531.14 626.47   Q 527.07 624.24 530.27 620.00   C 536.04 612.32 541.38 604.84 548.27 597.95   C 572.45 573.77 596.15 549.16 618.61 523.37   Q 624.90 516.16 631.89 509.62   A 1.48 1.45 19.9 0 1 632.75 509.23   Q 634.96 509.03 635.51 510.67   Z"
     id="path252" />
  <path
     fill="#162c51"
     d="   M 389.80 513.76   Q 396.64 523.52 405.29 531.65   Q 414.75 540.60 422.99 550.56   Q 426.16 554.33 429.59 557.91   Q 450.89 580.15 473.31 601.26   C 478.04 605.72 481.85 610.50 485.87 615.41   Q 486.63 616.34 485.96 617.32   C 483.75 620.56 481.49 619.13 479.46 616.74   Q 474.49 610.87 468.48 605.02   Q 466.82 603.31 464.46 601.04   Q 424.81 562.93 386.83 519.42   Q 383.87 516.03 382.22 513.66   A 0.83 0.83 0.0 0 1 382.33 512.59   L 384.70 510.28   Q 385.10 509.89 385.62 510.11   Q 388.26 511.22 389.80 513.76   Z"
     id="path254" />
  <path
     fill="#162c51"
     d="   M 635.51 510.67   Q 637.40 511.33 638.57 512.92   Q 638.89 513.35 638.69 513.84   Q 638.29 514.90 637.41 515.91   Q 595.09 564.80 550.73 608.42   C 545.74 610.45 544.49 619.00 537.55 618.76   A 1.41 1.41 0.0 0 1 536.51 616.45   C 541.24 610.76 545.74 605.05 551.12 599.79   C 578.99 572.55 605.24 543.85 631.05 514.67   C 632.35 513.21 634.04 512.06 635.51 510.67   Z"
     id="path256" />
  <path
     fill="#4ba382"
     d="   M 389.80 513.76   C 394.38 514.89 403.05 527.23 405.44 529.81   Q 406.07 530.49 405.29 531.65   Q 396.64 523.52 389.80 513.76   Z"
     id="path258" />
  <path
     fill="#5cb363"
     d="   M 468.48 605.02   Q 474.49 610.87 479.46 616.74   C 481.49 619.13 483.75 620.56 485.96 617.32   Q 486.63 616.34 485.87 615.41   C 481.85 610.50 478.04 605.72 473.31 601.26   Q 450.89 580.15 429.59 557.91   Q 426.16 554.33 422.99 550.56   L 423.84 550.10   Q 424.32 549.83 424.69 550.24   Q 450.24 577.61 477.71 603.03   C 481.53 606.57 484.95 612.90 489.56 617.65   C 491.96 620.12 494.35 623.73 491.39 626.28   C 488.13 629.10 483.39 621.90 480.71 620.34   Q 472.21 615.37 468.48 605.02   Z"
     id="path260" />
  <path
     fill="#b9bfcd"
     d="   M 370.81 566.18   Q 376.16 571.39 382.56 575.41   Q 382.98 575.68 382.71 576.09   L 379.51 581.00   C 376.56 578.25 367.82 571.36 368.23 566.03   Q 368.27 565.44 368.76 565.77   Q 369.77 566.43 370.81 566.18   Z"
     id="path262" />
  <circle
     fill="#162c51"
     cx="701.11"
     cy="581.93"
     r="3.29"
     id="circle264" />
  <ellipse
     fill="#162c51"
     cx="0.00"
     cy="0.00"
     transform="translate(701.16,594.83) rotate(-3.7)"
     rx="3.28"
     ry="3.00"
     id="ellipse266" />
  <path
     fill="#b9bfcd"
     d="   M 398.88 597.53   L 415.71 606.05   Q 416.25 606.32 416.05 606.89   L 415.39 608.71   Q 415.26 609.10 415.28 609.51   C 415.51 614.37 437.72 625.12 443.41 627.84   A 0.16 0.16 0.0 0 1 443.35 628.14   L 434.19 628.55   Q 431.57 627.15 428.55 627.58   A 1.87 1.84 -37.0 0 1 427.57 627.45   Q 412.67 620.96 398.57 609.43   Q 395.28 606.74 393.61 604.17   A 1.25 1.23 -55.5 0 1 393.44 603.21   Q 394.46 598.71 398.88 597.53   Z"
     id="path268" />
  <circle
     fill="#162c51"
     cx="701.13"
     cy="608.05"
     r="3.28"
     id="circle270" />
  <path
     fill="#5cb363"
     d="   M 495.07 650.99   L 493.64 647.61   Q 493.02 646.12 491.44 646.47   L 409.20 664.49   Q 407.53 664.85 407.80 666.55   L 408.23 669.31   C 403.01 670.62 394.82 672.59 394.92 664.92   A 0.91 0.91 0.0 0 1 395.38 664.13   Q 397.26 663.06 400.50 662.24   C 427.99 655.26 454.20 651.23 480.84 644.42   C 484.52 643.48 499.43 639.75 498.22 647.37   Q 497.90 649.42 495.07 650.99   Z"
     id="path272" />
  <path
     fill="#5cb363"
     d="   M 613.97 668.94   C 615.56 664.65 608.59 663.53 605.67 662.89   Q 572.39 655.52 539.22 647.61   C 535.56 646.73 529.03 644.03 529.76 650.77   Q 527.29 650.36 525.71 649.33   A 1.00 0.99 13.7 0 1 525.26 648.60   C 524.38 640.00 537.39 643.25 542.48 644.59   Q 570.56 652.00 599.11 657.30   C 604.99 658.39 623.33 661.86 625.86 664.98   C 627.25 666.68 626.09 668.95 624.09 669.30   Q 619.40 670.13 613.97 668.94   Z"
     id="path274" />
  <path
     fill="#162c51"
     d="   M 613.97 668.94   Q 610.83 669.56 608.48 669.06   Q 578.48 662.57 529.76 650.77   C 529.03 644.03 535.56 646.73 539.22 647.61   Q 572.39 655.52 605.67 662.89   C 608.59 663.53 615.56 664.65 613.97 668.94   Z"
     id="path276" />
  <path
     fill="#162c51"
     d="   M 495.07 650.99   Q 454.94 660.39 414.31 668.57   Q 411.34 669.17 408.23 669.31   L 407.80 666.55   Q 407.53 664.85 409.20 664.49   L 491.44 646.47   Q 493.02 646.12 493.64 647.61   L 495.07 650.99   Z"
     id="path278" />
  <path
     fill="#b9bfcd"
     d="   M 669.54 686.79   Q 675.76 690.42 681.39 694.11   C 684.94 696.43 688.08 697.89 686.04 702.14   Q 685.78 702.70 685.22 702.98   Q 678.94 706.13 672.14 707.90   A 1.74 1.74 0.0 0 0 670.84 709.60   Q 670.87 713.60 666.23 713.76   Q 662.10 713.90 647.31 715.69   L 614.66 714.97   Q 611.52 713.69 608.28 715.73   A 1.70 1.70 0.0 0 1 607.36 716.00   C 600.93 716.00 595.17 712.73 589.01 711.49   C 571.41 707.94 555.68 700.89 540.27 691.72   A 0.44 0.44 0.0 0 0 539.61 692.11   Q 539.87 721.78 539.72 751.75   C 539.65 766.08 522.30 769.85 516.74 757.47   C 515.25 754.16 515.62 749.67 515.85 745.94   Q 523.60 743.02 523.61 734.43   Q 523.66 701.60 523.81 668.74   Q 523.81 668.13 524.33 668.44   C 539.71 677.60 553.66 685.83 571.18 693.58   Q 577.42 696.34 582.99 694.10   Q 583.48 693.90 583.93 694.16   C 589.63 697.37 598.63 701.63 603.74 695.93   Q 604.11 695.52 604.62 695.71   C 611.10 698.11 638.57 704.78 640.56 694.11   A 0.89 0.89 0.0 0 1 641.39 693.37   Q 656.58 692.37 669.54 686.79   Z"
     id="path280" />
  <path
     fill="#b9bfcd"
     d="   M 500.26 693.19   Q 482.64 704.59 463.71 710.73   C 458.82 712.31 452.63 713.35 447.58 710.83   Q 447.10 710.59 446.60 710.78   Q 437.44 714.24 428.20 717.41   C 419.03 720.55 395.77 724.31 388.09 716.09   Q 391.29 716.36 391.66 713.60   Q 391.90 711.80 390.09 711.63   L 384.52 711.10   C 379.46 709.66 361.26 704.50 362.14 697.59   Q 362.62 693.78 367.08 691.79   L 380.72 694.19   Q 381.28 694.28 381.41 694.84   L 381.88 696.85   Q 382.00 697.36 382.41 697.71   C 387.74 702.29 409.10 698.24 416.09 695.97   A 0.86 0.83 59.1 0 1 416.96 696.20   C 422.51 702.09 431.87 697.36 437.71 694.36   Q 438.19 694.11 438.70 694.24   C 441.78 695.01 443.11 696.67 446.45 695.45   C 465.24 688.60 482.26 678.45 499.67 668.71   A 0.39 0.38 75.5 0 1 500.24 669.05   L 500.26 693.19   Z   M 429.4265 712.7186   A 1.26 1.26 0.0 0 0 428.1621 711.4630   L 395.4823 711.5771   A 1.26 1.26 0.0 0 0 394.2267 712.8414   L 394.2335 714.7814   A 1.26 1.26 0.0 0 0 395.4979 716.0370   L 428.1777 715.9229   A 1.26 1.26 0.0 0 0 429.4333 714.6586   L 429.4265 712.7186   Z"
     id="path282" />
  <path
     fill="#162c51"
     d="   M 384.52 711.10   L 390.09 711.63   Q 391.90 711.80 391.66 713.60   Q 391.29 716.36 388.09 716.09   Q 371.07 715.89 353.75 716.03   C 350.41 716.05 349.87 711.25 354.48 711.27   Q 369.19 711.34 384.52 711.10   Z"
     id="path284" />
  <rect
     fill="#162c51"
     x="-17.60"
     y="-2.23"
     transform="translate(411.83,713.75) rotate(-0.2)"
     width="35.20"
     height="4.46"
     rx="1.26"
     id="rect286" />
  <path
     fill="#5cb363"
     d="   M 647.31 715.69   C 654.41 716.27 661.62 715.75 668.49 717.10   A 0.75 0.75 0.0 0 1 669.07 717.64   Q 669.77 720.28 667.25 720.55   Q 662.66 721.03 648.12 719.91   C 638.28 719.15 628.25 719.27 618.28 718.79   C 616.07 718.68 613.02 717.95 614.66 714.97   L 647.31 715.69   Z"
     id="path288" />
  <rect
     fill="#162c51"
     x="-26.55"
     y="-2.32"
     transform="translate(381.36,739.93) rotate(0.2)"
     width="53.10"
     height="4.64"
     rx="1.67"
     id="rect290" />
  <rect
     fill="#162c51"
     x="-7.59"
     y="-2.44"
     transform="translate(418.15,740.03) rotate(-0.2)"
     width="15.18"
     height="4.88"
     rx="2.15"
     id="rect292" />
</svg>
