<?xml version="1.0" encoding="UTF-8" standalone="no"?>
<svg
   version="1.1"
   id="Layer_1"
   x="0px"
   y="0px"
   width="575"
   viewBox="0 0 575.00001 575"
   enable-background="new 0 0 768 1024"
   xml:space="preserve"
   sodipodi:docname="down-arrow-filled-light.svg"
   height="575"
   inkscape:version="1.3.2 (091e20e, 2023-11-25, custom)"
   xmlns:inkscape="http://www.inkscape.org/namespaces/inkscape"
   xmlns:sodipodi="http://sodipodi.sourceforge.net/DTD/sodipodi-0.dtd"
   xmlns="http://www.w3.org/2000/svg"
   xmlns:svg="http://www.w3.org/2000/svg"><defs
   id="defs1" /><sodipodi:namedview
   id="namedview1"
   pagecolor="#505050"
   bordercolor="#eeeeee"
   borderopacity="1"
   inkscape:showpageshadow="0"
   inkscape:pageopacity="0"
   inkscape:pagecheckerboard="0"
   inkscape:deskcolor="#505050"
   inkscape:zoom="0.58488227"
   inkscape:cx="-9.4036019"
   inkscape:cy="327.41632"
   inkscape:window-width="1920"
   inkscape:window-height="1094"
   inkscape:window-x="-11"
   inkscape:window-y="-11"
   inkscape:window-maximized="1"
   inkscape:current-layer="Layer_1" />
<path
   fill="#000000"
   opacity="1"
   stroke="none"
   d="m 334.92528,111.64884 c -6.4e-4,72.8125 -0.002,145.125 -0.002,217.43753 6e-5,7.203 0.005,7.21597 7.02762,7.21619 35.65641,10e-4 71.31284,0.0242 106.96912,-0.0396 5.46916,-0.01 10.25294,1.23443 13.6124,5.85968 4.5504,6.26483 4.16174,12.68194 -1.11049,19.2218 -26.44939,32.8089 -52.88402,65.62973 -79.36525,98.4129 -26.16898,32.39661 -52.38556,64.75479 -78.58991,97.12274 -1.25662,1.55219 -2.51837,3.11331 -3.91137,4.53977 -7.70633,7.89116 -17.22361,7.90284 -24.31968,-0.50278 -11.60406,-13.74561 -22.94293,-27.71817 -34.24493,-41.71512 -42.27765,-52.35879 -84.46332,-104.7919 -126.78394,-157.11594 -4.22088,-5.21859 -6.50579,-10.59011 -3.55743,-16.96325 3.08862,-6.6763 8.79028,-8.8942 15.94818,-8.87143 34.15643,0.1087 68.31345,0.0387 102.47025,0.0228 7.46304,-0.003 7.47107,-0.0213 7.47232,-7.26648 0.0153,-89.64078 -0.0842,-179.28183 0.12936,-268.922206 0.0468,-19.65241 8.05142,-35.58771 25.4827,-45.74 29.28915,-17.0584703 66.11831,0.44574 71.86282,33.89124 1.45435,8.46735 0.80612,16.94812 0.89356,25.42426 0.12884,12.49469 0.0223,24.99176 0.0163,37.987846 m -74.82666,137.49994 c 0.0134,30.99896 0.027,61.99789 0.0402,92.99686 0.006,13.2987 -4.43948,17.80175 -17.56936,17.79947 -31.16559,-0.005 -62.33118,-0.0283 -93.49668,0.0275 -1.82696,0.003 -3.98346,-0.85443 -5.81225,1.4574 47.74963,59.22287 95.00354,118.84445 144.20431,178.15387 48.5915,-59.56915 96.44126,-118.85416 143.44889,-179.02075 -2.64536,-0.6514 -4.79154,-0.65195 -6.93772,-0.65128 -31.66555,0.01 -63.33108,0.0259 -94.99664,0.0259 -12.24524,0 -17.46555,-5.1467 -17.47708,-17.23099 -0.0136,-14.33282 0.0117,-28.66565 0.009,-42.99847 -0.0145,-80.99713 7.4e-4,-161.99432 -0.0815,-242.991326 -0.0139,-13.64649 -10.29452,-24.90656 -23.01248,-25.73322 -13.64533,-0.8869 -25.37768,8.53626 -27.59317,22.23322 -1.41931,8.77478 -0.61484,17.6308 -0.63687,26.43774 -0.14057,56.164366 -0.0811,112.329216 -0.0888,169.494016 z"
   id="path1"
   style="fill:#8b0000;fill-opacity:1" />
</svg>
